G04 #@! TF.GenerationSoftware,KiCad,Pcbnew,(5.0.0)*
G04 #@! TF.CreationDate,2018-07-31T12:07:49+01:00*
G04 #@! TF.ProjectId,blanking,626C616E6B696E672E6B696361645F70,rev?*
G04 #@! TF.SameCoordinates,Original*
G04 #@! TF.FileFunction,Other,Fab,Top*
%FSLAX46Y46*%
G04 Gerber Fmt 4.6, Leading zero omitted, Abs format (unit mm)*
G04 Created by KiCad (PCBNEW (5.0.0)) date 07/31/18 12:07:49*
%MOMM*%
%LPD*%
G01*
G04 APERTURE LIST*
%ADD10C,0.120000*%
%ADD11C,0.100000*%
%ADD12C,0.150000*%
%ADD13C,0.075000*%
G04 APERTURE END LIST*
D10*
G04 #@! TO.C,J8_Green_Enab*
X245570000Y-59805000D02*
X239370000Y-59805000D01*
X239370000Y-59805000D02*
X239370000Y-67825000D01*
X239370000Y-67825000D02*
X245570000Y-67825000D01*
X245570000Y-67825000D02*
X245570000Y-59805000D01*
G04 #@! TO.C,J12_green_blank*
X245320000Y-47055000D02*
X239120000Y-47055000D01*
X239120000Y-47055000D02*
X239120000Y-55075000D01*
X239120000Y-55075000D02*
X245320000Y-55075000D01*
X245320000Y-55075000D02*
X245320000Y-47055000D01*
D11*
G04 #@! TO.C,U2*
X212550000Y-75700000D02*
X212975000Y-76100000D01*
X212975000Y-77350000D02*
X212975000Y-76100000D01*
X212550000Y-75700000D02*
X209925000Y-75700000D01*
X209925000Y-77350000D02*
X209925000Y-75700000D01*
X212975000Y-77350000D02*
X209925000Y-77350000D01*
D10*
G04 #@! TO.C,J1_Blue_enab*
X204470000Y-72605000D02*
X198270000Y-72605000D01*
X198270000Y-72605000D02*
X198270000Y-80625000D01*
X198270000Y-80625000D02*
X204470000Y-80625000D01*
X204470000Y-80625000D02*
X204470000Y-72605000D01*
G04 #@! TO.C,J2_Green_PWM*
X245570000Y-72555000D02*
X239370000Y-72555000D01*
X239370000Y-72555000D02*
X239370000Y-80575000D01*
X239370000Y-80575000D02*
X245570000Y-80575000D01*
X245570000Y-80575000D02*
X245570000Y-72555000D01*
G04 #@! TO.C,J3_Red_PWM*
X225070000Y-72555000D02*
X218870000Y-72555000D01*
X218870000Y-72555000D02*
X218870000Y-80575000D01*
X218870000Y-80575000D02*
X225070000Y-80575000D01*
X225070000Y-80575000D02*
X225070000Y-72555000D01*
D11*
G04 #@! TO.C,J5*
X250700000Y-59375000D02*
X250700000Y-67675000D01*
X250700000Y-67675000D02*
X266700000Y-67675000D01*
X266700000Y-67675000D02*
X266700000Y-59375000D01*
X266700000Y-59375000D02*
X250700000Y-59375000D01*
X250350000Y-63275000D02*
X249750000Y-63575000D01*
X249750000Y-63575000D02*
X249750000Y-62975000D01*
X249750000Y-62975000D02*
X250350000Y-63275000D01*
D10*
G04 #@! TO.C,J6_Blue_Enab*
X204470000Y-59805000D02*
X198270000Y-59805000D01*
X198270000Y-59805000D02*
X198270000Y-67825000D01*
X198270000Y-67825000D02*
X204470000Y-67825000D01*
X204470000Y-67825000D02*
X204470000Y-59805000D01*
G04 #@! TO.C,J7_Red_enab*
X225070000Y-59805000D02*
X218870000Y-59805000D01*
X218870000Y-59805000D02*
X218870000Y-67825000D01*
X218870000Y-67825000D02*
X225070000Y-67825000D01*
X225070000Y-67825000D02*
X225070000Y-59805000D01*
G04 #@! TO.C,J9*
X258520000Y-46705000D02*
X252320000Y-46705000D01*
X252320000Y-46705000D02*
X252320000Y-52185000D01*
X252320000Y-52185000D02*
X258520000Y-52185000D01*
X258520000Y-52185000D02*
X258520000Y-46705000D01*
G04 #@! TO.C,J10_red_blank*
X225070000Y-47055000D02*
X218870000Y-47055000D01*
X218870000Y-47055000D02*
X218870000Y-55075000D01*
X218870000Y-55075000D02*
X225070000Y-55075000D01*
X225070000Y-55075000D02*
X225070000Y-47055000D01*
G04 #@! TO.C,J11_blue_blank*
X204470000Y-47005000D02*
X198270000Y-47005000D01*
X198270000Y-47005000D02*
X198270000Y-55025000D01*
X198270000Y-55025000D02*
X204470000Y-55025000D01*
X204470000Y-55025000D02*
X204470000Y-47005000D01*
G04 #@! TO.C,J13*
X181870000Y-59205000D02*
X175670000Y-59205000D01*
X175670000Y-59205000D02*
X175670000Y-69765000D01*
X175670000Y-69765000D02*
X181870000Y-69765000D01*
X181870000Y-69765000D02*
X181870000Y-59205000D01*
D11*
G04 #@! TO.C,Q1*
X231200000Y-61325000D02*
X231200000Y-64825000D01*
X231196375Y-64818625D02*
G75*
G03X235430000Y-63065000I1753625J1753625D01*
G01*
X231196375Y-61311375D02*
G75*
G02X235430000Y-63065000I1753625J-1753625D01*
G01*
G04 #@! TO.C,Q2*
X189200000Y-61475000D02*
X189200000Y-64975000D01*
X189196375Y-64968625D02*
G75*
G03X193430000Y-63215000I1753625J1753625D01*
G01*
X189196375Y-61461375D02*
G75*
G02X193430000Y-63215000I1753625J-1753625D01*
G01*
G04 #@! TO.C,Q3*
X210200000Y-61325000D02*
X210200000Y-64825000D01*
X210196375Y-64818625D02*
G75*
G03X214430000Y-63065000I1753625J1753625D01*
G01*
X210196375Y-61311375D02*
G75*
G02X214430000Y-63065000I1753625J-1753625D01*
G01*
G04 #@! TO.C,Q4*
X231200000Y-48825000D02*
X231200000Y-52325000D01*
X231196375Y-52318625D02*
G75*
G03X235430000Y-50565000I1753625J1753625D01*
G01*
X231196375Y-48811375D02*
G75*
G02X235430000Y-50565000I1753625J-1753625D01*
G01*
G04 #@! TO.C,Q5*
X210200000Y-48825000D02*
X210200000Y-52325000D01*
X210196375Y-52318625D02*
G75*
G03X214430000Y-50565000I1753625J1753625D01*
G01*
X210196375Y-48811375D02*
G75*
G02X214430000Y-50565000I1753625J-1753625D01*
G01*
G04 #@! TO.C,Q6*
X189200000Y-48875000D02*
X189200000Y-52375000D01*
X189196375Y-52368625D02*
G75*
G03X193430000Y-50615000I1753625J1753625D01*
G01*
X189196375Y-48861375D02*
G75*
G02X193430000Y-50615000I1753625J-1753625D01*
G01*
G04 #@! TO.C,R1 270*
X190750000Y-69675000D02*
G75*
G03X190750000Y-69675000I-800000J0D01*
G01*
X189950000Y-69675000D02*
X192490000Y-69675000D01*
G04 #@! TO.C,R2 270*
X211750000Y-69525000D02*
G75*
G03X211750000Y-69525000I-800000J0D01*
G01*
X210950000Y-69525000D02*
X213490000Y-69525000D01*
G04 #@! TO.C,R3 270*
X232750000Y-69275000D02*
G75*
G03X232750000Y-69275000I-800000J0D01*
G01*
X231950000Y-69275000D02*
X234490000Y-69275000D01*
G04 #@! TO.C,R4 270*
X235000000Y-43775000D02*
G75*
G03X235000000Y-43775000I-800000J0D01*
G01*
X234200000Y-43775000D02*
X231660000Y-43775000D01*
G04 #@! TO.C,R5 270*
X190950000Y-44075000D02*
G75*
G03X190950000Y-44075000I-800000J0D01*
G01*
X190150000Y-44075000D02*
X192690000Y-44075000D01*
G04 #@! TO.C,R6 270*
X212150000Y-43875000D02*
G75*
G03X212150000Y-43875000I-800000J0D01*
G01*
X211350000Y-43875000D02*
X213890000Y-43875000D01*
G04 #@! TO.C,U1*
X192250000Y-75650000D02*
X192675000Y-76050000D01*
X192675000Y-77300000D02*
X192675000Y-76050000D01*
X192250000Y-75650000D02*
X189625000Y-75650000D01*
X189625000Y-77300000D02*
X189625000Y-75650000D01*
X192675000Y-77300000D02*
X189625000Y-77300000D01*
G04 #@! TO.C,U3*
X233300000Y-75700000D02*
X233725000Y-76100000D01*
X233725000Y-77350000D02*
X233725000Y-76100000D01*
X233300000Y-75700000D02*
X230675000Y-75700000D01*
X230675000Y-77350000D02*
X230675000Y-75700000D01*
X233725000Y-77350000D02*
X230675000Y-77350000D01*
G04 #@! TD*
G04 #@! TO.C,J8_Green_Enab*
D12*
X238307142Y-69648333D02*
X238354761Y-69695952D01*
X238402380Y-69838809D01*
X238402380Y-69934047D01*
X238354761Y-70076904D01*
X238259523Y-70172142D01*
X238164285Y-70219761D01*
X237973809Y-70267380D01*
X237830952Y-70267380D01*
X237640476Y-70219761D01*
X237545238Y-70172142D01*
X237450000Y-70076904D01*
X237402380Y-69934047D01*
X237402380Y-69838809D01*
X237450000Y-69695952D01*
X237497619Y-69648333D01*
X238402380Y-69076904D02*
X238354761Y-69172142D01*
X238307142Y-69219761D01*
X238211904Y-69267380D01*
X237926190Y-69267380D01*
X237830952Y-69219761D01*
X237783333Y-69172142D01*
X237735714Y-69076904D01*
X237735714Y-68934047D01*
X237783333Y-68838809D01*
X237830952Y-68791190D01*
X237926190Y-68743571D01*
X238211904Y-68743571D01*
X238307142Y-68791190D01*
X238354761Y-68838809D01*
X238402380Y-68934047D01*
X238402380Y-69076904D01*
X237735714Y-68315000D02*
X238402380Y-68315000D01*
X237830952Y-68315000D02*
X237783333Y-68267380D01*
X237735714Y-68172142D01*
X237735714Y-68029285D01*
X237783333Y-67934047D01*
X237878571Y-67886428D01*
X238402380Y-67886428D01*
X237735714Y-67410238D02*
X238402380Y-67410238D01*
X237830952Y-67410238D02*
X237783333Y-67362619D01*
X237735714Y-67267380D01*
X237735714Y-67124523D01*
X237783333Y-67029285D01*
X237878571Y-66981666D01*
X238402380Y-66981666D01*
X238497619Y-66743571D02*
X238497619Y-65981666D01*
X237402380Y-65553095D02*
X237402380Y-65457857D01*
X237450000Y-65362619D01*
X237497619Y-65315000D01*
X237592857Y-65267380D01*
X237783333Y-65219761D01*
X238021428Y-65219761D01*
X238211904Y-65267380D01*
X238307142Y-65315000D01*
X238354761Y-65362619D01*
X238402380Y-65457857D01*
X238402380Y-65553095D01*
X238354761Y-65648333D01*
X238307142Y-65695952D01*
X238211904Y-65743571D01*
X238021428Y-65791190D01*
X237783333Y-65791190D01*
X237592857Y-65743571D01*
X237497619Y-65695952D01*
X237450000Y-65648333D01*
X237402380Y-65553095D01*
X238402380Y-64267380D02*
X238402380Y-64838809D01*
X238402380Y-64553095D02*
X237402380Y-64553095D01*
X237545238Y-64648333D01*
X237640476Y-64743571D01*
X237688095Y-64838809D01*
X238402380Y-63934047D02*
X237735714Y-63410238D01*
X237735714Y-63934047D02*
X238402380Y-63410238D01*
X237402380Y-62838809D02*
X237402380Y-62743571D01*
X237450000Y-62648333D01*
X237497619Y-62600714D01*
X237592857Y-62553095D01*
X237783333Y-62505476D01*
X238021428Y-62505476D01*
X238211904Y-62553095D01*
X238307142Y-62600714D01*
X238354761Y-62648333D01*
X238402380Y-62743571D01*
X238402380Y-62838809D01*
X238354761Y-62934047D01*
X238307142Y-62981666D01*
X238211904Y-63029285D01*
X238021428Y-63076904D01*
X237783333Y-63076904D01*
X237592857Y-63029285D01*
X237497619Y-62981666D01*
X237450000Y-62934047D01*
X237402380Y-62838809D01*
X237402380Y-62172142D02*
X237402380Y-61553095D01*
X237783333Y-61886428D01*
X237783333Y-61743571D01*
X237830952Y-61648333D01*
X237878571Y-61600714D01*
X237973809Y-61553095D01*
X238211904Y-61553095D01*
X238307142Y-61600714D01*
X238354761Y-61648333D01*
X238402380Y-61743571D01*
X238402380Y-62029285D01*
X238354761Y-62124523D01*
X238307142Y-62172142D01*
X238497619Y-61362619D02*
X238497619Y-60600714D01*
X238402380Y-60362619D02*
X237402380Y-60362619D01*
X238116666Y-60029285D01*
X237402380Y-59695952D01*
X238402380Y-59695952D01*
X238402380Y-58791190D02*
X237878571Y-58791190D01*
X237783333Y-58838809D01*
X237735714Y-58934047D01*
X237735714Y-59124523D01*
X237783333Y-59219761D01*
X238354761Y-58791190D02*
X238402380Y-58886428D01*
X238402380Y-59124523D01*
X238354761Y-59219761D01*
X238259523Y-59267380D01*
X238164285Y-59267380D01*
X238069047Y-59219761D01*
X238021428Y-59124523D01*
X238021428Y-58886428D01*
X237973809Y-58791190D01*
X238402380Y-58172142D02*
X238354761Y-58267380D01*
X238259523Y-58315000D01*
X237402380Y-58315000D01*
X238354761Y-57410238D02*
X238402380Y-57505476D01*
X238402380Y-57695952D01*
X238354761Y-57791190D01*
X238259523Y-57838809D01*
X237878571Y-57838809D01*
X237783333Y-57791190D01*
X237735714Y-57695952D01*
X237735714Y-57505476D01*
X237783333Y-57410238D01*
X237878571Y-57362619D01*
X237973809Y-57362619D01*
X238069047Y-57838809D01*
X241902380Y-68838809D02*
X242616666Y-68838809D01*
X242759523Y-68886428D01*
X242854761Y-68981666D01*
X242902380Y-69124523D01*
X242902380Y-69219761D01*
X242330952Y-68219761D02*
X242283333Y-68315000D01*
X242235714Y-68362619D01*
X242140476Y-68410238D01*
X242092857Y-68410238D01*
X241997619Y-68362619D01*
X241950000Y-68315000D01*
X241902380Y-68219761D01*
X241902380Y-68029285D01*
X241950000Y-67934047D01*
X241997619Y-67886428D01*
X242092857Y-67838809D01*
X242140476Y-67838809D01*
X242235714Y-67886428D01*
X242283333Y-67934047D01*
X242330952Y-68029285D01*
X242330952Y-68219761D01*
X242378571Y-68315000D01*
X242426190Y-68362619D01*
X242521428Y-68410238D01*
X242711904Y-68410238D01*
X242807142Y-68362619D01*
X242854761Y-68315000D01*
X242902380Y-68219761D01*
X242902380Y-68029285D01*
X242854761Y-67934047D01*
X242807142Y-67886428D01*
X242711904Y-67838809D01*
X242521428Y-67838809D01*
X242426190Y-67886428D01*
X242378571Y-67934047D01*
X242330952Y-68029285D01*
X242997619Y-67648333D02*
X242997619Y-66886428D01*
X241950000Y-66124523D02*
X241902380Y-66219761D01*
X241902380Y-66362619D01*
X241950000Y-66505476D01*
X242045238Y-66600714D01*
X242140476Y-66648333D01*
X242330952Y-66695952D01*
X242473809Y-66695952D01*
X242664285Y-66648333D01*
X242759523Y-66600714D01*
X242854761Y-66505476D01*
X242902380Y-66362619D01*
X242902380Y-66267380D01*
X242854761Y-66124523D01*
X242807142Y-66076904D01*
X242473809Y-66076904D01*
X242473809Y-66267380D01*
X242902380Y-65648333D02*
X242235714Y-65648333D01*
X242426190Y-65648333D02*
X242330952Y-65600714D01*
X242283333Y-65553095D01*
X242235714Y-65457857D01*
X242235714Y-65362619D01*
X242854761Y-64648333D02*
X242902380Y-64743571D01*
X242902380Y-64934047D01*
X242854761Y-65029285D01*
X242759523Y-65076904D01*
X242378571Y-65076904D01*
X242283333Y-65029285D01*
X242235714Y-64934047D01*
X242235714Y-64743571D01*
X242283333Y-64648333D01*
X242378571Y-64600714D01*
X242473809Y-64600714D01*
X242569047Y-65076904D01*
X242854761Y-63791190D02*
X242902380Y-63886428D01*
X242902380Y-64076904D01*
X242854761Y-64172142D01*
X242759523Y-64219761D01*
X242378571Y-64219761D01*
X242283333Y-64172142D01*
X242235714Y-64076904D01*
X242235714Y-63886428D01*
X242283333Y-63791190D01*
X242378571Y-63743571D01*
X242473809Y-63743571D01*
X242569047Y-64219761D01*
X242235714Y-63315000D02*
X242902380Y-63315000D01*
X242330952Y-63315000D02*
X242283333Y-63267380D01*
X242235714Y-63172142D01*
X242235714Y-63029285D01*
X242283333Y-62934047D01*
X242378571Y-62886428D01*
X242902380Y-62886428D01*
X242997619Y-62648333D02*
X242997619Y-61886428D01*
X242378571Y-61648333D02*
X242378571Y-61315000D01*
X242902380Y-61172142D02*
X242902380Y-61648333D01*
X241902380Y-61648333D01*
X241902380Y-61172142D01*
X242235714Y-60743571D02*
X242902380Y-60743571D01*
X242330952Y-60743571D02*
X242283333Y-60695952D01*
X242235714Y-60600714D01*
X242235714Y-60457857D01*
X242283333Y-60362619D01*
X242378571Y-60315000D01*
X242902380Y-60315000D01*
X242902380Y-59410238D02*
X242378571Y-59410238D01*
X242283333Y-59457857D01*
X242235714Y-59553095D01*
X242235714Y-59743571D01*
X242283333Y-59838809D01*
X242854761Y-59410238D02*
X242902380Y-59505476D01*
X242902380Y-59743571D01*
X242854761Y-59838809D01*
X242759523Y-59886428D01*
X242664285Y-59886428D01*
X242569047Y-59838809D01*
X242521428Y-59743571D01*
X242521428Y-59505476D01*
X242473809Y-59410238D01*
X242902380Y-58934047D02*
X241902380Y-58934047D01*
X242283333Y-58934047D02*
X242235714Y-58838809D01*
X242235714Y-58648333D01*
X242283333Y-58553095D01*
X242330952Y-58505476D01*
X242426190Y-58457857D01*
X242711904Y-58457857D01*
X242807142Y-58505476D01*
X242854761Y-58553095D01*
X242902380Y-58648333D01*
X242902380Y-58838809D01*
X242854761Y-58934047D01*
G04 #@! TO.C,J12_green_blank*
X241652380Y-56731666D02*
X242366666Y-56731666D01*
X242509523Y-56779285D01*
X242604761Y-56874523D01*
X242652380Y-57017380D01*
X242652380Y-57112619D01*
X242652380Y-55731666D02*
X242652380Y-56303095D01*
X242652380Y-56017380D02*
X241652380Y-56017380D01*
X241795238Y-56112619D01*
X241890476Y-56207857D01*
X241938095Y-56303095D01*
X241747619Y-55350714D02*
X241700000Y-55303095D01*
X241652380Y-55207857D01*
X241652380Y-54969761D01*
X241700000Y-54874523D01*
X241747619Y-54826904D01*
X241842857Y-54779285D01*
X241938095Y-54779285D01*
X242080952Y-54826904D01*
X242652380Y-55398333D01*
X242652380Y-54779285D01*
X242747619Y-54588809D02*
X242747619Y-53826904D01*
X241985714Y-53160238D02*
X242795238Y-53160238D01*
X242890476Y-53207857D01*
X242938095Y-53255476D01*
X242985714Y-53350714D01*
X242985714Y-53493571D01*
X242938095Y-53588809D01*
X242604761Y-53160238D02*
X242652380Y-53255476D01*
X242652380Y-53445952D01*
X242604761Y-53541190D01*
X242557142Y-53588809D01*
X242461904Y-53636428D01*
X242176190Y-53636428D01*
X242080952Y-53588809D01*
X242033333Y-53541190D01*
X241985714Y-53445952D01*
X241985714Y-53255476D01*
X242033333Y-53160238D01*
X242652380Y-52684047D02*
X241985714Y-52684047D01*
X242176190Y-52684047D02*
X242080952Y-52636428D01*
X242033333Y-52588809D01*
X241985714Y-52493571D01*
X241985714Y-52398333D01*
X242604761Y-51684047D02*
X242652380Y-51779285D01*
X242652380Y-51969761D01*
X242604761Y-52065000D01*
X242509523Y-52112619D01*
X242128571Y-52112619D01*
X242033333Y-52065000D01*
X241985714Y-51969761D01*
X241985714Y-51779285D01*
X242033333Y-51684047D01*
X242128571Y-51636428D01*
X242223809Y-51636428D01*
X242319047Y-52112619D01*
X242604761Y-50826904D02*
X242652380Y-50922142D01*
X242652380Y-51112619D01*
X242604761Y-51207857D01*
X242509523Y-51255476D01*
X242128571Y-51255476D01*
X242033333Y-51207857D01*
X241985714Y-51112619D01*
X241985714Y-50922142D01*
X242033333Y-50826904D01*
X242128571Y-50779285D01*
X242223809Y-50779285D01*
X242319047Y-51255476D01*
X241985714Y-50350714D02*
X242652380Y-50350714D01*
X242080952Y-50350714D02*
X242033333Y-50303095D01*
X241985714Y-50207857D01*
X241985714Y-50065000D01*
X242033333Y-49969761D01*
X242128571Y-49922142D01*
X242652380Y-49922142D01*
X242747619Y-49684047D02*
X242747619Y-48922142D01*
X242652380Y-48684047D02*
X241652380Y-48684047D01*
X242033333Y-48684047D02*
X241985714Y-48588809D01*
X241985714Y-48398333D01*
X242033333Y-48303095D01*
X242080952Y-48255476D01*
X242176190Y-48207857D01*
X242461904Y-48207857D01*
X242557142Y-48255476D01*
X242604761Y-48303095D01*
X242652380Y-48398333D01*
X242652380Y-48588809D01*
X242604761Y-48684047D01*
X242652380Y-47636428D02*
X242604761Y-47731666D01*
X242509523Y-47779285D01*
X241652380Y-47779285D01*
X242652380Y-46826904D02*
X242128571Y-46826904D01*
X242033333Y-46874523D01*
X241985714Y-46969761D01*
X241985714Y-47160238D01*
X242033333Y-47255476D01*
X242604761Y-46826904D02*
X242652380Y-46922142D01*
X242652380Y-47160238D01*
X242604761Y-47255476D01*
X242509523Y-47303095D01*
X242414285Y-47303095D01*
X242319047Y-47255476D01*
X242271428Y-47160238D01*
X242271428Y-46922142D01*
X242223809Y-46826904D01*
X241985714Y-46350714D02*
X242652380Y-46350714D01*
X242080952Y-46350714D02*
X242033333Y-46303095D01*
X241985714Y-46207857D01*
X241985714Y-46065000D01*
X242033333Y-45969761D01*
X242128571Y-45922142D01*
X242652380Y-45922142D01*
X242652380Y-45445952D02*
X241652380Y-45445952D01*
X242271428Y-45350714D02*
X242652380Y-45065000D01*
X241985714Y-45065000D02*
X242366666Y-45445952D01*
G04 #@! TO.C,U2*
D13*
X211069047Y-76251190D02*
X211069047Y-76655952D01*
X211092857Y-76703571D01*
X211116666Y-76727380D01*
X211164285Y-76751190D01*
X211259523Y-76751190D01*
X211307142Y-76727380D01*
X211330952Y-76703571D01*
X211354761Y-76655952D01*
X211354761Y-76251190D01*
X211569047Y-76298809D02*
X211592857Y-76275000D01*
X211640476Y-76251190D01*
X211759523Y-76251190D01*
X211807142Y-76275000D01*
X211830952Y-76298809D01*
X211854761Y-76346428D01*
X211854761Y-76394047D01*
X211830952Y-76465476D01*
X211545238Y-76751190D01*
X211854761Y-76751190D01*
G04 #@! TO.C,J1_Blue_enab*
D12*
X200802380Y-81138809D02*
X201516666Y-81138809D01*
X201659523Y-81186428D01*
X201754761Y-81281666D01*
X201802380Y-81424523D01*
X201802380Y-81519761D01*
X201802380Y-80138809D02*
X201802380Y-80710238D01*
X201802380Y-80424523D02*
X200802380Y-80424523D01*
X200945238Y-80519761D01*
X201040476Y-80615000D01*
X201088095Y-80710238D01*
X201897619Y-79948333D02*
X201897619Y-79186428D01*
X201278571Y-78615000D02*
X201326190Y-78472142D01*
X201373809Y-78424523D01*
X201469047Y-78376904D01*
X201611904Y-78376904D01*
X201707142Y-78424523D01*
X201754761Y-78472142D01*
X201802380Y-78567380D01*
X201802380Y-78948333D01*
X200802380Y-78948333D01*
X200802380Y-78615000D01*
X200850000Y-78519761D01*
X200897619Y-78472142D01*
X200992857Y-78424523D01*
X201088095Y-78424523D01*
X201183333Y-78472142D01*
X201230952Y-78519761D01*
X201278571Y-78615000D01*
X201278571Y-78948333D01*
X201802380Y-77805476D02*
X201754761Y-77900714D01*
X201659523Y-77948333D01*
X200802380Y-77948333D01*
X201135714Y-76995952D02*
X201802380Y-76995952D01*
X201135714Y-77424523D02*
X201659523Y-77424523D01*
X201754761Y-77376904D01*
X201802380Y-77281666D01*
X201802380Y-77138809D01*
X201754761Y-77043571D01*
X201707142Y-76995952D01*
X201754761Y-76138809D02*
X201802380Y-76234047D01*
X201802380Y-76424523D01*
X201754761Y-76519761D01*
X201659523Y-76567380D01*
X201278571Y-76567380D01*
X201183333Y-76519761D01*
X201135714Y-76424523D01*
X201135714Y-76234047D01*
X201183333Y-76138809D01*
X201278571Y-76091190D01*
X201373809Y-76091190D01*
X201469047Y-76567380D01*
X201897619Y-75900714D02*
X201897619Y-75138809D01*
X201754761Y-74519761D02*
X201802380Y-74615000D01*
X201802380Y-74805476D01*
X201754761Y-74900714D01*
X201659523Y-74948333D01*
X201278571Y-74948333D01*
X201183333Y-74900714D01*
X201135714Y-74805476D01*
X201135714Y-74615000D01*
X201183333Y-74519761D01*
X201278571Y-74472142D01*
X201373809Y-74472142D01*
X201469047Y-74948333D01*
X201135714Y-74043571D02*
X201802380Y-74043571D01*
X201230952Y-74043571D02*
X201183333Y-73995952D01*
X201135714Y-73900714D01*
X201135714Y-73757857D01*
X201183333Y-73662619D01*
X201278571Y-73615000D01*
X201802380Y-73615000D01*
X201802380Y-72710238D02*
X201278571Y-72710238D01*
X201183333Y-72757857D01*
X201135714Y-72853095D01*
X201135714Y-73043571D01*
X201183333Y-73138809D01*
X201754761Y-72710238D02*
X201802380Y-72805476D01*
X201802380Y-73043571D01*
X201754761Y-73138809D01*
X201659523Y-73186428D01*
X201564285Y-73186428D01*
X201469047Y-73138809D01*
X201421428Y-73043571D01*
X201421428Y-72805476D01*
X201373809Y-72710238D01*
X201802380Y-72234047D02*
X200802380Y-72234047D01*
X201183333Y-72234047D02*
X201135714Y-72138809D01*
X201135714Y-71948333D01*
X201183333Y-71853095D01*
X201230952Y-71805476D01*
X201326190Y-71757857D01*
X201611904Y-71757857D01*
X201707142Y-71805476D01*
X201754761Y-71853095D01*
X201802380Y-71948333D01*
X201802380Y-72138809D01*
X201754761Y-72234047D01*
G04 #@! TO.C,J2_Green_PWM*
X241902380Y-81422142D02*
X242616666Y-81422142D01*
X242759523Y-81469761D01*
X242854761Y-81565000D01*
X242902380Y-81707857D01*
X242902380Y-81803095D01*
X241997619Y-80993571D02*
X241950000Y-80945952D01*
X241902380Y-80850714D01*
X241902380Y-80612619D01*
X241950000Y-80517380D01*
X241997619Y-80469761D01*
X242092857Y-80422142D01*
X242188095Y-80422142D01*
X242330952Y-80469761D01*
X242902380Y-81041190D01*
X242902380Y-80422142D01*
X242997619Y-80231666D02*
X242997619Y-79469761D01*
X241950000Y-78707857D02*
X241902380Y-78803095D01*
X241902380Y-78945952D01*
X241950000Y-79088809D01*
X242045238Y-79184047D01*
X242140476Y-79231666D01*
X242330952Y-79279285D01*
X242473809Y-79279285D01*
X242664285Y-79231666D01*
X242759523Y-79184047D01*
X242854761Y-79088809D01*
X242902380Y-78945952D01*
X242902380Y-78850714D01*
X242854761Y-78707857D01*
X242807142Y-78660238D01*
X242473809Y-78660238D01*
X242473809Y-78850714D01*
X242902380Y-78231666D02*
X242235714Y-78231666D01*
X242426190Y-78231666D02*
X242330952Y-78184047D01*
X242283333Y-78136428D01*
X242235714Y-78041190D01*
X242235714Y-77945952D01*
X242854761Y-77231666D02*
X242902380Y-77326904D01*
X242902380Y-77517380D01*
X242854761Y-77612619D01*
X242759523Y-77660238D01*
X242378571Y-77660238D01*
X242283333Y-77612619D01*
X242235714Y-77517380D01*
X242235714Y-77326904D01*
X242283333Y-77231666D01*
X242378571Y-77184047D01*
X242473809Y-77184047D01*
X242569047Y-77660238D01*
X242854761Y-76374523D02*
X242902380Y-76469761D01*
X242902380Y-76660238D01*
X242854761Y-76755476D01*
X242759523Y-76803095D01*
X242378571Y-76803095D01*
X242283333Y-76755476D01*
X242235714Y-76660238D01*
X242235714Y-76469761D01*
X242283333Y-76374523D01*
X242378571Y-76326904D01*
X242473809Y-76326904D01*
X242569047Y-76803095D01*
X242235714Y-75898333D02*
X242902380Y-75898333D01*
X242330952Y-75898333D02*
X242283333Y-75850714D01*
X242235714Y-75755476D01*
X242235714Y-75612619D01*
X242283333Y-75517380D01*
X242378571Y-75469761D01*
X242902380Y-75469761D01*
X242997619Y-75231666D02*
X242997619Y-74469761D01*
X242902380Y-74231666D02*
X241902380Y-74231666D01*
X241902380Y-73850714D01*
X241950000Y-73755476D01*
X241997619Y-73707857D01*
X242092857Y-73660238D01*
X242235714Y-73660238D01*
X242330952Y-73707857D01*
X242378571Y-73755476D01*
X242426190Y-73850714D01*
X242426190Y-74231666D01*
X241902380Y-73326904D02*
X242902380Y-73088809D01*
X242188095Y-72898333D01*
X242902380Y-72707857D01*
X241902380Y-72469761D01*
X242902380Y-72088809D02*
X241902380Y-72088809D01*
X242616666Y-71755476D01*
X241902380Y-71422142D01*
X242902380Y-71422142D01*
G04 #@! TO.C,J3_Red_PWM*
X221402380Y-80684047D02*
X222116666Y-80684047D01*
X222259523Y-80731666D01*
X222354761Y-80826904D01*
X222402380Y-80969761D01*
X222402380Y-81065000D01*
X221402380Y-80303095D02*
X221402380Y-79684047D01*
X221783333Y-80017380D01*
X221783333Y-79874523D01*
X221830952Y-79779285D01*
X221878571Y-79731666D01*
X221973809Y-79684047D01*
X222211904Y-79684047D01*
X222307142Y-79731666D01*
X222354761Y-79779285D01*
X222402380Y-79874523D01*
X222402380Y-80160238D01*
X222354761Y-80255476D01*
X222307142Y-80303095D01*
X222497619Y-79493571D02*
X222497619Y-78731666D01*
X222402380Y-77922142D02*
X221926190Y-78255476D01*
X222402380Y-78493571D02*
X221402380Y-78493571D01*
X221402380Y-78112619D01*
X221450000Y-78017380D01*
X221497619Y-77969761D01*
X221592857Y-77922142D01*
X221735714Y-77922142D01*
X221830952Y-77969761D01*
X221878571Y-78017380D01*
X221926190Y-78112619D01*
X221926190Y-78493571D01*
X222354761Y-77112619D02*
X222402380Y-77207857D01*
X222402380Y-77398333D01*
X222354761Y-77493571D01*
X222259523Y-77541190D01*
X221878571Y-77541190D01*
X221783333Y-77493571D01*
X221735714Y-77398333D01*
X221735714Y-77207857D01*
X221783333Y-77112619D01*
X221878571Y-77065000D01*
X221973809Y-77065000D01*
X222069047Y-77541190D01*
X222402380Y-76207857D02*
X221402380Y-76207857D01*
X222354761Y-76207857D02*
X222402380Y-76303095D01*
X222402380Y-76493571D01*
X222354761Y-76588809D01*
X222307142Y-76636428D01*
X222211904Y-76684047D01*
X221926190Y-76684047D01*
X221830952Y-76636428D01*
X221783333Y-76588809D01*
X221735714Y-76493571D01*
X221735714Y-76303095D01*
X221783333Y-76207857D01*
X222497619Y-75969761D02*
X222497619Y-75207857D01*
X222402380Y-74969761D02*
X221402380Y-74969761D01*
X221402380Y-74588809D01*
X221450000Y-74493571D01*
X221497619Y-74445952D01*
X221592857Y-74398333D01*
X221735714Y-74398333D01*
X221830952Y-74445952D01*
X221878571Y-74493571D01*
X221926190Y-74588809D01*
X221926190Y-74969761D01*
X221402380Y-74065000D02*
X222402380Y-73826904D01*
X221688095Y-73636428D01*
X222402380Y-73445952D01*
X221402380Y-73207857D01*
X222402380Y-72826904D02*
X221402380Y-72826904D01*
X222116666Y-72493571D01*
X221402380Y-72160238D01*
X222402380Y-72160238D01*
G04 #@! TO.C,J5*
X254747619Y-68860714D02*
X255128571Y-68860714D01*
X254890476Y-68527380D02*
X254890476Y-69384523D01*
X254938095Y-69479761D01*
X255033333Y-69527380D01*
X255128571Y-69527380D01*
X255604761Y-69527380D02*
X255509523Y-69479761D01*
X255461904Y-69432142D01*
X255414285Y-69336904D01*
X255414285Y-69051190D01*
X255461904Y-68955952D01*
X255509523Y-68908333D01*
X255604761Y-68860714D01*
X255747619Y-68860714D01*
X255842857Y-68908333D01*
X255890476Y-68955952D01*
X255938095Y-69051190D01*
X255938095Y-69336904D01*
X255890476Y-69432142D01*
X255842857Y-69479761D01*
X255747619Y-69527380D01*
X255604761Y-69527380D01*
X256128571Y-69622619D02*
X256890476Y-69622619D01*
X257604761Y-69527380D02*
X257128571Y-69527380D01*
X257128571Y-68527380D01*
X258509523Y-69432142D02*
X258461904Y-69479761D01*
X258319047Y-69527380D01*
X258223809Y-69527380D01*
X258080952Y-69479761D01*
X257985714Y-69384523D01*
X257938095Y-69289285D01*
X257890476Y-69098809D01*
X257890476Y-68955952D01*
X257938095Y-68765476D01*
X257985714Y-68670238D01*
X258080952Y-68575000D01*
X258223809Y-68527380D01*
X258319047Y-68527380D01*
X258461904Y-68575000D01*
X258509523Y-68622619D01*
X258938095Y-69527380D02*
X258938095Y-68860714D01*
X258938095Y-69051190D02*
X258985714Y-68955952D01*
X259033333Y-68908333D01*
X259128571Y-68860714D01*
X259223809Y-68860714D01*
X259319047Y-69622619D02*
X260080952Y-69622619D01*
X260604761Y-68527380D02*
X260604761Y-69241666D01*
X260557142Y-69384523D01*
X260461904Y-69479761D01*
X260319047Y-69527380D01*
X260223809Y-69527380D01*
X261033333Y-68622619D02*
X261080952Y-68575000D01*
X261176190Y-68527380D01*
X261414285Y-68527380D01*
X261509523Y-68575000D01*
X261557142Y-68622619D01*
X261604761Y-68717857D01*
X261604761Y-68813095D01*
X261557142Y-68955952D01*
X260985714Y-69527380D01*
X261604761Y-69527380D01*
X262080952Y-69527380D02*
X262271428Y-69527380D01*
X262366666Y-69479761D01*
X262414285Y-69432142D01*
X262509523Y-69289285D01*
X262557142Y-69098809D01*
X262557142Y-68717857D01*
X262509523Y-68622619D01*
X262461904Y-68575000D01*
X262366666Y-68527380D01*
X262176190Y-68527380D01*
X262080952Y-68575000D01*
X262033333Y-68622619D01*
X261985714Y-68717857D01*
X261985714Y-68955952D01*
X262033333Y-69051190D01*
X262080952Y-69098809D01*
X262176190Y-69146428D01*
X262366666Y-69146428D01*
X262461904Y-69098809D01*
X262509523Y-69051190D01*
X262557142Y-68955952D01*
X258366666Y-61227380D02*
X258366666Y-61941666D01*
X258319047Y-62084523D01*
X258223809Y-62179761D01*
X258080952Y-62227380D01*
X257985714Y-62227380D01*
X259319047Y-61227380D02*
X258842857Y-61227380D01*
X258795238Y-61703571D01*
X258842857Y-61655952D01*
X258938095Y-61608333D01*
X259176190Y-61608333D01*
X259271428Y-61655952D01*
X259319047Y-61703571D01*
X259366666Y-61798809D01*
X259366666Y-62036904D01*
X259319047Y-62132142D01*
X259271428Y-62179761D01*
X259176190Y-62227380D01*
X258938095Y-62227380D01*
X258842857Y-62179761D01*
X258795238Y-62132142D01*
G04 #@! TO.C,J6_Blue_Enab*
X197207142Y-71624523D02*
X197254761Y-71672142D01*
X197302380Y-71815000D01*
X197302380Y-71910238D01*
X197254761Y-72053095D01*
X197159523Y-72148333D01*
X197064285Y-72195952D01*
X196873809Y-72243571D01*
X196730952Y-72243571D01*
X196540476Y-72195952D01*
X196445238Y-72148333D01*
X196350000Y-72053095D01*
X196302380Y-71910238D01*
X196302380Y-71815000D01*
X196350000Y-71672142D01*
X196397619Y-71624523D01*
X197302380Y-71053095D02*
X197254761Y-71148333D01*
X197207142Y-71195952D01*
X197111904Y-71243571D01*
X196826190Y-71243571D01*
X196730952Y-71195952D01*
X196683333Y-71148333D01*
X196635714Y-71053095D01*
X196635714Y-70910238D01*
X196683333Y-70815000D01*
X196730952Y-70767380D01*
X196826190Y-70719761D01*
X197111904Y-70719761D01*
X197207142Y-70767380D01*
X197254761Y-70815000D01*
X197302380Y-70910238D01*
X197302380Y-71053095D01*
X196635714Y-70291190D02*
X197302380Y-70291190D01*
X196730952Y-70291190D02*
X196683333Y-70243571D01*
X196635714Y-70148333D01*
X196635714Y-70005476D01*
X196683333Y-69910238D01*
X196778571Y-69862619D01*
X197302380Y-69862619D01*
X196635714Y-69386428D02*
X197302380Y-69386428D01*
X196730952Y-69386428D02*
X196683333Y-69338809D01*
X196635714Y-69243571D01*
X196635714Y-69100714D01*
X196683333Y-69005476D01*
X196778571Y-68957857D01*
X197302380Y-68957857D01*
X197397619Y-68719761D02*
X197397619Y-67957857D01*
X196302380Y-67529285D02*
X196302380Y-67434047D01*
X196350000Y-67338809D01*
X196397619Y-67291190D01*
X196492857Y-67243571D01*
X196683333Y-67195952D01*
X196921428Y-67195952D01*
X197111904Y-67243571D01*
X197207142Y-67291190D01*
X197254761Y-67338809D01*
X197302380Y-67434047D01*
X197302380Y-67529285D01*
X197254761Y-67624523D01*
X197207142Y-67672142D01*
X197111904Y-67719761D01*
X196921428Y-67767380D01*
X196683333Y-67767380D01*
X196492857Y-67719761D01*
X196397619Y-67672142D01*
X196350000Y-67624523D01*
X196302380Y-67529285D01*
X197302380Y-66243571D02*
X197302380Y-66815000D01*
X197302380Y-66529285D02*
X196302380Y-66529285D01*
X196445238Y-66624523D01*
X196540476Y-66719761D01*
X196588095Y-66815000D01*
X197302380Y-65910238D02*
X196635714Y-65386428D01*
X196635714Y-65910238D02*
X197302380Y-65386428D01*
X196302380Y-64815000D02*
X196302380Y-64719761D01*
X196350000Y-64624523D01*
X196397619Y-64576904D01*
X196492857Y-64529285D01*
X196683333Y-64481666D01*
X196921428Y-64481666D01*
X197111904Y-64529285D01*
X197207142Y-64576904D01*
X197254761Y-64624523D01*
X197302380Y-64719761D01*
X197302380Y-64815000D01*
X197254761Y-64910238D01*
X197207142Y-64957857D01*
X197111904Y-65005476D01*
X196921428Y-65053095D01*
X196683333Y-65053095D01*
X196492857Y-65005476D01*
X196397619Y-64957857D01*
X196350000Y-64910238D01*
X196302380Y-64815000D01*
X196302380Y-64148333D02*
X196302380Y-63529285D01*
X196683333Y-63862619D01*
X196683333Y-63719761D01*
X196730952Y-63624523D01*
X196778571Y-63576904D01*
X196873809Y-63529285D01*
X197111904Y-63529285D01*
X197207142Y-63576904D01*
X197254761Y-63624523D01*
X197302380Y-63719761D01*
X197302380Y-64005476D01*
X197254761Y-64100714D01*
X197207142Y-64148333D01*
X197397619Y-63338809D02*
X197397619Y-62576904D01*
X197302380Y-62338809D02*
X196302380Y-62338809D01*
X197016666Y-62005476D01*
X196302380Y-61672142D01*
X197302380Y-61672142D01*
X197302380Y-60767380D02*
X196778571Y-60767380D01*
X196683333Y-60815000D01*
X196635714Y-60910238D01*
X196635714Y-61100714D01*
X196683333Y-61195952D01*
X197254761Y-60767380D02*
X197302380Y-60862619D01*
X197302380Y-61100714D01*
X197254761Y-61195952D01*
X197159523Y-61243571D01*
X197064285Y-61243571D01*
X196969047Y-61195952D01*
X196921428Y-61100714D01*
X196921428Y-60862619D01*
X196873809Y-60767380D01*
X197302380Y-60148333D02*
X197254761Y-60243571D01*
X197159523Y-60291190D01*
X196302380Y-60291190D01*
X197254761Y-59386428D02*
X197302380Y-59481666D01*
X197302380Y-59672142D01*
X197254761Y-59767380D01*
X197159523Y-59815000D01*
X196778571Y-59815000D01*
X196683333Y-59767380D01*
X196635714Y-59672142D01*
X196635714Y-59481666D01*
X196683333Y-59386428D01*
X196778571Y-59338809D01*
X196873809Y-59338809D01*
X196969047Y-59815000D01*
X197302380Y-58148333D02*
X196302380Y-58148333D01*
X196683333Y-58148333D02*
X196635714Y-58053095D01*
X196635714Y-57862619D01*
X196683333Y-57767380D01*
X196730952Y-57719761D01*
X196826190Y-57672142D01*
X197111904Y-57672142D01*
X197207142Y-57719761D01*
X197254761Y-57767380D01*
X197302380Y-57862619D01*
X197302380Y-58053095D01*
X197254761Y-58148333D01*
X197302380Y-57100714D02*
X197254761Y-57195952D01*
X197159523Y-57243571D01*
X196302380Y-57243571D01*
X196635714Y-56291190D02*
X197302380Y-56291190D01*
X196635714Y-56719761D02*
X197159523Y-56719761D01*
X197254761Y-56672142D01*
X197302380Y-56576904D01*
X197302380Y-56434047D01*
X197254761Y-56338809D01*
X197207142Y-56291190D01*
X197254761Y-55434047D02*
X197302380Y-55529285D01*
X197302380Y-55719761D01*
X197254761Y-55815000D01*
X197159523Y-55862619D01*
X196778571Y-55862619D01*
X196683333Y-55815000D01*
X196635714Y-55719761D01*
X196635714Y-55529285D01*
X196683333Y-55434047D01*
X196778571Y-55386428D01*
X196873809Y-55386428D01*
X196969047Y-55862619D01*
X200802380Y-68362619D02*
X201516666Y-68362619D01*
X201659523Y-68410238D01*
X201754761Y-68505476D01*
X201802380Y-68648333D01*
X201802380Y-68743571D01*
X200802380Y-67457857D02*
X200802380Y-67648333D01*
X200850000Y-67743571D01*
X200897619Y-67791190D01*
X201040476Y-67886428D01*
X201230952Y-67934047D01*
X201611904Y-67934047D01*
X201707142Y-67886428D01*
X201754761Y-67838809D01*
X201802380Y-67743571D01*
X201802380Y-67553095D01*
X201754761Y-67457857D01*
X201707142Y-67410238D01*
X201611904Y-67362619D01*
X201373809Y-67362619D01*
X201278571Y-67410238D01*
X201230952Y-67457857D01*
X201183333Y-67553095D01*
X201183333Y-67743571D01*
X201230952Y-67838809D01*
X201278571Y-67886428D01*
X201373809Y-67934047D01*
X201897619Y-67172142D02*
X201897619Y-66410238D01*
X201278571Y-65838809D02*
X201326190Y-65695952D01*
X201373809Y-65648333D01*
X201469047Y-65600714D01*
X201611904Y-65600714D01*
X201707142Y-65648333D01*
X201754761Y-65695952D01*
X201802380Y-65791190D01*
X201802380Y-66172142D01*
X200802380Y-66172142D01*
X200802380Y-65838809D01*
X200850000Y-65743571D01*
X200897619Y-65695952D01*
X200992857Y-65648333D01*
X201088095Y-65648333D01*
X201183333Y-65695952D01*
X201230952Y-65743571D01*
X201278571Y-65838809D01*
X201278571Y-66172142D01*
X201802380Y-65029285D02*
X201754761Y-65124523D01*
X201659523Y-65172142D01*
X200802380Y-65172142D01*
X201135714Y-64219761D02*
X201802380Y-64219761D01*
X201135714Y-64648333D02*
X201659523Y-64648333D01*
X201754761Y-64600714D01*
X201802380Y-64505476D01*
X201802380Y-64362619D01*
X201754761Y-64267380D01*
X201707142Y-64219761D01*
X201754761Y-63362619D02*
X201802380Y-63457857D01*
X201802380Y-63648333D01*
X201754761Y-63743571D01*
X201659523Y-63791190D01*
X201278571Y-63791190D01*
X201183333Y-63743571D01*
X201135714Y-63648333D01*
X201135714Y-63457857D01*
X201183333Y-63362619D01*
X201278571Y-63315000D01*
X201373809Y-63315000D01*
X201469047Y-63791190D01*
X201897619Y-63124523D02*
X201897619Y-62362619D01*
X201278571Y-62124523D02*
X201278571Y-61791190D01*
X201802380Y-61648333D02*
X201802380Y-62124523D01*
X200802380Y-62124523D01*
X200802380Y-61648333D01*
X201135714Y-61219761D02*
X201802380Y-61219761D01*
X201230952Y-61219761D02*
X201183333Y-61172142D01*
X201135714Y-61076904D01*
X201135714Y-60934047D01*
X201183333Y-60838809D01*
X201278571Y-60791190D01*
X201802380Y-60791190D01*
X201802380Y-59886428D02*
X201278571Y-59886428D01*
X201183333Y-59934047D01*
X201135714Y-60029285D01*
X201135714Y-60219761D01*
X201183333Y-60315000D01*
X201754761Y-59886428D02*
X201802380Y-59981666D01*
X201802380Y-60219761D01*
X201754761Y-60315000D01*
X201659523Y-60362619D01*
X201564285Y-60362619D01*
X201469047Y-60315000D01*
X201421428Y-60219761D01*
X201421428Y-59981666D01*
X201373809Y-59886428D01*
X201802380Y-59410238D02*
X200802380Y-59410238D01*
X201183333Y-59410238D02*
X201135714Y-59315000D01*
X201135714Y-59124523D01*
X201183333Y-59029285D01*
X201230952Y-58981666D01*
X201326190Y-58934047D01*
X201611904Y-58934047D01*
X201707142Y-58981666D01*
X201754761Y-59029285D01*
X201802380Y-59124523D01*
X201802380Y-59315000D01*
X201754761Y-59410238D01*
G04 #@! TO.C,J7_Red_enab*
X217807142Y-69648333D02*
X217854761Y-69695952D01*
X217902380Y-69838809D01*
X217902380Y-69934047D01*
X217854761Y-70076904D01*
X217759523Y-70172142D01*
X217664285Y-70219761D01*
X217473809Y-70267380D01*
X217330952Y-70267380D01*
X217140476Y-70219761D01*
X217045238Y-70172142D01*
X216950000Y-70076904D01*
X216902380Y-69934047D01*
X216902380Y-69838809D01*
X216950000Y-69695952D01*
X216997619Y-69648333D01*
X217902380Y-69076904D02*
X217854761Y-69172142D01*
X217807142Y-69219761D01*
X217711904Y-69267380D01*
X217426190Y-69267380D01*
X217330952Y-69219761D01*
X217283333Y-69172142D01*
X217235714Y-69076904D01*
X217235714Y-68934047D01*
X217283333Y-68838809D01*
X217330952Y-68791190D01*
X217426190Y-68743571D01*
X217711904Y-68743571D01*
X217807142Y-68791190D01*
X217854761Y-68838809D01*
X217902380Y-68934047D01*
X217902380Y-69076904D01*
X217235714Y-68315000D02*
X217902380Y-68315000D01*
X217330952Y-68315000D02*
X217283333Y-68267380D01*
X217235714Y-68172142D01*
X217235714Y-68029285D01*
X217283333Y-67934047D01*
X217378571Y-67886428D01*
X217902380Y-67886428D01*
X217235714Y-67410238D02*
X217902380Y-67410238D01*
X217330952Y-67410238D02*
X217283333Y-67362619D01*
X217235714Y-67267380D01*
X217235714Y-67124523D01*
X217283333Y-67029285D01*
X217378571Y-66981666D01*
X217902380Y-66981666D01*
X217997619Y-66743571D02*
X217997619Y-65981666D01*
X216902380Y-65553095D02*
X216902380Y-65457857D01*
X216950000Y-65362619D01*
X216997619Y-65315000D01*
X217092857Y-65267380D01*
X217283333Y-65219761D01*
X217521428Y-65219761D01*
X217711904Y-65267380D01*
X217807142Y-65315000D01*
X217854761Y-65362619D01*
X217902380Y-65457857D01*
X217902380Y-65553095D01*
X217854761Y-65648333D01*
X217807142Y-65695952D01*
X217711904Y-65743571D01*
X217521428Y-65791190D01*
X217283333Y-65791190D01*
X217092857Y-65743571D01*
X216997619Y-65695952D01*
X216950000Y-65648333D01*
X216902380Y-65553095D01*
X217902380Y-64267380D02*
X217902380Y-64838809D01*
X217902380Y-64553095D02*
X216902380Y-64553095D01*
X217045238Y-64648333D01*
X217140476Y-64743571D01*
X217188095Y-64838809D01*
X217902380Y-63934047D02*
X217235714Y-63410238D01*
X217235714Y-63934047D02*
X217902380Y-63410238D01*
X216902380Y-62838809D02*
X216902380Y-62743571D01*
X216950000Y-62648333D01*
X216997619Y-62600714D01*
X217092857Y-62553095D01*
X217283333Y-62505476D01*
X217521428Y-62505476D01*
X217711904Y-62553095D01*
X217807142Y-62600714D01*
X217854761Y-62648333D01*
X217902380Y-62743571D01*
X217902380Y-62838809D01*
X217854761Y-62934047D01*
X217807142Y-62981666D01*
X217711904Y-63029285D01*
X217521428Y-63076904D01*
X217283333Y-63076904D01*
X217092857Y-63029285D01*
X216997619Y-62981666D01*
X216950000Y-62934047D01*
X216902380Y-62838809D01*
X216902380Y-62172142D02*
X216902380Y-61553095D01*
X217283333Y-61886428D01*
X217283333Y-61743571D01*
X217330952Y-61648333D01*
X217378571Y-61600714D01*
X217473809Y-61553095D01*
X217711904Y-61553095D01*
X217807142Y-61600714D01*
X217854761Y-61648333D01*
X217902380Y-61743571D01*
X217902380Y-62029285D01*
X217854761Y-62124523D01*
X217807142Y-62172142D01*
X217997619Y-61362619D02*
X217997619Y-60600714D01*
X217902380Y-60362619D02*
X216902380Y-60362619D01*
X217616666Y-60029285D01*
X216902380Y-59695952D01*
X217902380Y-59695952D01*
X217902380Y-58791190D02*
X217378571Y-58791190D01*
X217283333Y-58838809D01*
X217235714Y-58934047D01*
X217235714Y-59124523D01*
X217283333Y-59219761D01*
X217854761Y-58791190D02*
X217902380Y-58886428D01*
X217902380Y-59124523D01*
X217854761Y-59219761D01*
X217759523Y-59267380D01*
X217664285Y-59267380D01*
X217569047Y-59219761D01*
X217521428Y-59124523D01*
X217521428Y-58886428D01*
X217473809Y-58791190D01*
X217902380Y-58172142D02*
X217854761Y-58267380D01*
X217759523Y-58315000D01*
X216902380Y-58315000D01*
X217854761Y-57410238D02*
X217902380Y-57505476D01*
X217902380Y-57695952D01*
X217854761Y-57791190D01*
X217759523Y-57838809D01*
X217378571Y-57838809D01*
X217283333Y-57791190D01*
X217235714Y-57695952D01*
X217235714Y-57505476D01*
X217283333Y-57410238D01*
X217378571Y-57362619D01*
X217473809Y-57362619D01*
X217569047Y-57838809D01*
X221402380Y-68076904D02*
X222116666Y-68076904D01*
X222259523Y-68124523D01*
X222354761Y-68219761D01*
X222402380Y-68362619D01*
X222402380Y-68457857D01*
X221402380Y-67695952D02*
X221402380Y-67029285D01*
X222402380Y-67457857D01*
X222497619Y-66886428D02*
X222497619Y-66124523D01*
X222402380Y-65315000D02*
X221926190Y-65648333D01*
X222402380Y-65886428D02*
X221402380Y-65886428D01*
X221402380Y-65505476D01*
X221450000Y-65410238D01*
X221497619Y-65362619D01*
X221592857Y-65315000D01*
X221735714Y-65315000D01*
X221830952Y-65362619D01*
X221878571Y-65410238D01*
X221926190Y-65505476D01*
X221926190Y-65886428D01*
X222354761Y-64505476D02*
X222402380Y-64600714D01*
X222402380Y-64791190D01*
X222354761Y-64886428D01*
X222259523Y-64934047D01*
X221878571Y-64934047D01*
X221783333Y-64886428D01*
X221735714Y-64791190D01*
X221735714Y-64600714D01*
X221783333Y-64505476D01*
X221878571Y-64457857D01*
X221973809Y-64457857D01*
X222069047Y-64934047D01*
X222402380Y-63600714D02*
X221402380Y-63600714D01*
X222354761Y-63600714D02*
X222402380Y-63695952D01*
X222402380Y-63886428D01*
X222354761Y-63981666D01*
X222307142Y-64029285D01*
X222211904Y-64076904D01*
X221926190Y-64076904D01*
X221830952Y-64029285D01*
X221783333Y-63981666D01*
X221735714Y-63886428D01*
X221735714Y-63695952D01*
X221783333Y-63600714D01*
X222497619Y-63362619D02*
X222497619Y-62600714D01*
X222354761Y-61981666D02*
X222402380Y-62076904D01*
X222402380Y-62267380D01*
X222354761Y-62362619D01*
X222259523Y-62410238D01*
X221878571Y-62410238D01*
X221783333Y-62362619D01*
X221735714Y-62267380D01*
X221735714Y-62076904D01*
X221783333Y-61981666D01*
X221878571Y-61934047D01*
X221973809Y-61934047D01*
X222069047Y-62410238D01*
X221735714Y-61505476D02*
X222402380Y-61505476D01*
X221830952Y-61505476D02*
X221783333Y-61457857D01*
X221735714Y-61362619D01*
X221735714Y-61219761D01*
X221783333Y-61124523D01*
X221878571Y-61076904D01*
X222402380Y-61076904D01*
X222402380Y-60172142D02*
X221878571Y-60172142D01*
X221783333Y-60219761D01*
X221735714Y-60315000D01*
X221735714Y-60505476D01*
X221783333Y-60600714D01*
X222354761Y-60172142D02*
X222402380Y-60267380D01*
X222402380Y-60505476D01*
X222354761Y-60600714D01*
X222259523Y-60648333D01*
X222164285Y-60648333D01*
X222069047Y-60600714D01*
X222021428Y-60505476D01*
X222021428Y-60267380D01*
X221973809Y-60172142D01*
X222402380Y-59695952D02*
X221402380Y-59695952D01*
X221783333Y-59695952D02*
X221735714Y-59600714D01*
X221735714Y-59410238D01*
X221783333Y-59315000D01*
X221830952Y-59267380D01*
X221926190Y-59219761D01*
X222211904Y-59219761D01*
X222307142Y-59267380D01*
X222354761Y-59315000D01*
X222402380Y-59410238D01*
X222402380Y-59600714D01*
X222354761Y-59695952D01*
G04 #@! TO.C,J9*
X254852380Y-49778333D02*
X255566666Y-49778333D01*
X255709523Y-49825952D01*
X255804761Y-49921190D01*
X255852380Y-50064047D01*
X255852380Y-50159285D01*
X255852380Y-49254523D02*
X255852380Y-49064047D01*
X255804761Y-48968809D01*
X255757142Y-48921190D01*
X255614285Y-48825952D01*
X255423809Y-48778333D01*
X255042857Y-48778333D01*
X254947619Y-48825952D01*
X254900000Y-48873571D01*
X254852380Y-48968809D01*
X254852380Y-49159285D01*
X254900000Y-49254523D01*
X254947619Y-49302142D01*
X255042857Y-49349761D01*
X255280952Y-49349761D01*
X255376190Y-49302142D01*
X255423809Y-49254523D01*
X255471428Y-49159285D01*
X255471428Y-48968809D01*
X255423809Y-48873571D01*
X255376190Y-48825952D01*
X255280952Y-48778333D01*
G04 #@! TO.C,J10_red_blank*
X221402380Y-55850714D02*
X222116666Y-55850714D01*
X222259523Y-55898333D01*
X222354761Y-55993571D01*
X222402380Y-56136428D01*
X222402380Y-56231666D01*
X222402380Y-54850714D02*
X222402380Y-55422142D01*
X222402380Y-55136428D02*
X221402380Y-55136428D01*
X221545238Y-55231666D01*
X221640476Y-55326904D01*
X221688095Y-55422142D01*
X221402380Y-54231666D02*
X221402380Y-54136428D01*
X221450000Y-54041190D01*
X221497619Y-53993571D01*
X221592857Y-53945952D01*
X221783333Y-53898333D01*
X222021428Y-53898333D01*
X222211904Y-53945952D01*
X222307142Y-53993571D01*
X222354761Y-54041190D01*
X222402380Y-54136428D01*
X222402380Y-54231666D01*
X222354761Y-54326904D01*
X222307142Y-54374523D01*
X222211904Y-54422142D01*
X222021428Y-54469761D01*
X221783333Y-54469761D01*
X221592857Y-54422142D01*
X221497619Y-54374523D01*
X221450000Y-54326904D01*
X221402380Y-54231666D01*
X222497619Y-53707857D02*
X222497619Y-52945952D01*
X222402380Y-52707857D02*
X221735714Y-52707857D01*
X221926190Y-52707857D02*
X221830952Y-52660238D01*
X221783333Y-52612619D01*
X221735714Y-52517380D01*
X221735714Y-52422142D01*
X222354761Y-51707857D02*
X222402380Y-51803095D01*
X222402380Y-51993571D01*
X222354761Y-52088809D01*
X222259523Y-52136428D01*
X221878571Y-52136428D01*
X221783333Y-52088809D01*
X221735714Y-51993571D01*
X221735714Y-51803095D01*
X221783333Y-51707857D01*
X221878571Y-51660238D01*
X221973809Y-51660238D01*
X222069047Y-52136428D01*
X222402380Y-50803095D02*
X221402380Y-50803095D01*
X222354761Y-50803095D02*
X222402380Y-50898333D01*
X222402380Y-51088809D01*
X222354761Y-51184047D01*
X222307142Y-51231666D01*
X222211904Y-51279285D01*
X221926190Y-51279285D01*
X221830952Y-51231666D01*
X221783333Y-51184047D01*
X221735714Y-51088809D01*
X221735714Y-50898333D01*
X221783333Y-50803095D01*
X222497619Y-50565000D02*
X222497619Y-49803095D01*
X222402380Y-49565000D02*
X221402380Y-49565000D01*
X221783333Y-49565000D02*
X221735714Y-49469761D01*
X221735714Y-49279285D01*
X221783333Y-49184047D01*
X221830952Y-49136428D01*
X221926190Y-49088809D01*
X222211904Y-49088809D01*
X222307142Y-49136428D01*
X222354761Y-49184047D01*
X222402380Y-49279285D01*
X222402380Y-49469761D01*
X222354761Y-49565000D01*
X222402380Y-48517380D02*
X222354761Y-48612619D01*
X222259523Y-48660238D01*
X221402380Y-48660238D01*
X222402380Y-47707857D02*
X221878571Y-47707857D01*
X221783333Y-47755476D01*
X221735714Y-47850714D01*
X221735714Y-48041190D01*
X221783333Y-48136428D01*
X222354761Y-47707857D02*
X222402380Y-47803095D01*
X222402380Y-48041190D01*
X222354761Y-48136428D01*
X222259523Y-48184047D01*
X222164285Y-48184047D01*
X222069047Y-48136428D01*
X222021428Y-48041190D01*
X222021428Y-47803095D01*
X221973809Y-47707857D01*
X221735714Y-47231666D02*
X222402380Y-47231666D01*
X221830952Y-47231666D02*
X221783333Y-47184047D01*
X221735714Y-47088809D01*
X221735714Y-46945952D01*
X221783333Y-46850714D01*
X221878571Y-46803095D01*
X222402380Y-46803095D01*
X222402380Y-46326904D02*
X221402380Y-46326904D01*
X222021428Y-46231666D02*
X222402380Y-45945952D01*
X221735714Y-45945952D02*
X222116666Y-46326904D01*
G04 #@! TO.C,J11_blue_blank*
X200802380Y-56205476D02*
X201516666Y-56205476D01*
X201659523Y-56253095D01*
X201754761Y-56348333D01*
X201802380Y-56491190D01*
X201802380Y-56586428D01*
X201802380Y-55205476D02*
X201802380Y-55776904D01*
X201802380Y-55491190D02*
X200802380Y-55491190D01*
X200945238Y-55586428D01*
X201040476Y-55681666D01*
X201088095Y-55776904D01*
X201802380Y-54253095D02*
X201802380Y-54824523D01*
X201802380Y-54538809D02*
X200802380Y-54538809D01*
X200945238Y-54634047D01*
X201040476Y-54729285D01*
X201088095Y-54824523D01*
X201897619Y-54062619D02*
X201897619Y-53300714D01*
X201802380Y-53062619D02*
X200802380Y-53062619D01*
X201183333Y-53062619D02*
X201135714Y-52967380D01*
X201135714Y-52776904D01*
X201183333Y-52681666D01*
X201230952Y-52634047D01*
X201326190Y-52586428D01*
X201611904Y-52586428D01*
X201707142Y-52634047D01*
X201754761Y-52681666D01*
X201802380Y-52776904D01*
X201802380Y-52967380D01*
X201754761Y-53062619D01*
X201802380Y-52015000D02*
X201754761Y-52110238D01*
X201659523Y-52157857D01*
X200802380Y-52157857D01*
X201135714Y-51205476D02*
X201802380Y-51205476D01*
X201135714Y-51634047D02*
X201659523Y-51634047D01*
X201754761Y-51586428D01*
X201802380Y-51491190D01*
X201802380Y-51348333D01*
X201754761Y-51253095D01*
X201707142Y-51205476D01*
X201754761Y-50348333D02*
X201802380Y-50443571D01*
X201802380Y-50634047D01*
X201754761Y-50729285D01*
X201659523Y-50776904D01*
X201278571Y-50776904D01*
X201183333Y-50729285D01*
X201135714Y-50634047D01*
X201135714Y-50443571D01*
X201183333Y-50348333D01*
X201278571Y-50300714D01*
X201373809Y-50300714D01*
X201469047Y-50776904D01*
X201897619Y-50110238D02*
X201897619Y-49348333D01*
X201802380Y-49110238D02*
X200802380Y-49110238D01*
X201183333Y-49110238D02*
X201135714Y-49015000D01*
X201135714Y-48824523D01*
X201183333Y-48729285D01*
X201230952Y-48681666D01*
X201326190Y-48634047D01*
X201611904Y-48634047D01*
X201707142Y-48681666D01*
X201754761Y-48729285D01*
X201802380Y-48824523D01*
X201802380Y-49015000D01*
X201754761Y-49110238D01*
X201802380Y-48062619D02*
X201754761Y-48157857D01*
X201659523Y-48205476D01*
X200802380Y-48205476D01*
X201802380Y-47253095D02*
X201278571Y-47253095D01*
X201183333Y-47300714D01*
X201135714Y-47395952D01*
X201135714Y-47586428D01*
X201183333Y-47681666D01*
X201754761Y-47253095D02*
X201802380Y-47348333D01*
X201802380Y-47586428D01*
X201754761Y-47681666D01*
X201659523Y-47729285D01*
X201564285Y-47729285D01*
X201469047Y-47681666D01*
X201421428Y-47586428D01*
X201421428Y-47348333D01*
X201373809Y-47253095D01*
X201135714Y-46776904D02*
X201802380Y-46776904D01*
X201230952Y-46776904D02*
X201183333Y-46729285D01*
X201135714Y-46634047D01*
X201135714Y-46491190D01*
X201183333Y-46395952D01*
X201278571Y-46348333D01*
X201802380Y-46348333D01*
X201802380Y-45872142D02*
X200802380Y-45872142D01*
X201421428Y-45776904D02*
X201802380Y-45491190D01*
X201135714Y-45491190D02*
X201516666Y-45872142D01*
G04 #@! TO.C,J13*
X178202380Y-65294523D02*
X178916666Y-65294523D01*
X179059523Y-65342142D01*
X179154761Y-65437380D01*
X179202380Y-65580238D01*
X179202380Y-65675476D01*
X179202380Y-64294523D02*
X179202380Y-64865952D01*
X179202380Y-64580238D02*
X178202380Y-64580238D01*
X178345238Y-64675476D01*
X178440476Y-64770714D01*
X178488095Y-64865952D01*
X178202380Y-63961190D02*
X178202380Y-63342142D01*
X178583333Y-63675476D01*
X178583333Y-63532619D01*
X178630952Y-63437380D01*
X178678571Y-63389761D01*
X178773809Y-63342142D01*
X179011904Y-63342142D01*
X179107142Y-63389761D01*
X179154761Y-63437380D01*
X179202380Y-63532619D01*
X179202380Y-63818333D01*
X179154761Y-63913571D01*
X179107142Y-63961190D01*
G04 #@! TO.C,J14_inv_vcc*
X259712380Y-80707380D02*
X259045714Y-80707380D01*
X258712380Y-80707380D02*
X258760000Y-80755000D01*
X258807619Y-80707380D01*
X258760000Y-80659761D01*
X258712380Y-80707380D01*
X258807619Y-80707380D01*
X259045714Y-80231190D02*
X259712380Y-80231190D01*
X259140952Y-80231190D02*
X259093333Y-80183571D01*
X259045714Y-80088333D01*
X259045714Y-79945476D01*
X259093333Y-79850238D01*
X259188571Y-79802619D01*
X259712380Y-79802619D01*
X259045714Y-79421666D02*
X259712380Y-79183571D01*
X259045714Y-78945476D01*
X259807619Y-78802619D02*
X259807619Y-78040714D01*
X259045714Y-77897857D02*
X259712380Y-77659761D01*
X259045714Y-77421666D01*
X259664761Y-76612142D02*
X259712380Y-76707380D01*
X259712380Y-76897857D01*
X259664761Y-76993095D01*
X259617142Y-77040714D01*
X259521904Y-77088333D01*
X259236190Y-77088333D01*
X259140952Y-77040714D01*
X259093333Y-76993095D01*
X259045714Y-76897857D01*
X259045714Y-76707380D01*
X259093333Y-76612142D01*
X259664761Y-75755000D02*
X259712380Y-75850238D01*
X259712380Y-76040714D01*
X259664761Y-76135952D01*
X259617142Y-76183571D01*
X259521904Y-76231190D01*
X259236190Y-76231190D01*
X259140952Y-76183571D01*
X259093333Y-76135952D01*
X259045714Y-76040714D01*
X259045714Y-75850238D01*
X259093333Y-75755000D01*
G04 #@! TO.C,Q1*
X230707619Y-66422142D02*
X230660000Y-66517380D01*
X230564761Y-66612619D01*
X230421904Y-66755476D01*
X230374285Y-66850714D01*
X230374285Y-66945952D01*
X230612380Y-66898333D02*
X230564761Y-66993571D01*
X230469523Y-67088809D01*
X230279047Y-67136428D01*
X229945714Y-67136428D01*
X229755238Y-67088809D01*
X229660000Y-66993571D01*
X229612380Y-66898333D01*
X229612380Y-66707857D01*
X229660000Y-66612619D01*
X229755238Y-66517380D01*
X229945714Y-66469761D01*
X230279047Y-66469761D01*
X230469523Y-66517380D01*
X230564761Y-66612619D01*
X230612380Y-66707857D01*
X230612380Y-66898333D01*
X230707619Y-66279285D02*
X230707619Y-65517380D01*
X230612380Y-65279285D02*
X229612380Y-65279285D01*
X229612380Y-64898333D01*
X229660000Y-64803095D01*
X229707619Y-64755476D01*
X229802857Y-64707857D01*
X229945714Y-64707857D01*
X230040952Y-64755476D01*
X230088571Y-64803095D01*
X230136190Y-64898333D01*
X230136190Y-65279285D01*
X230612380Y-64279285D02*
X229612380Y-64279285D01*
X230612380Y-63707857D01*
X229612380Y-63707857D01*
X230612380Y-63231666D02*
X229612380Y-63231666D01*
X229612380Y-62850714D01*
X229660000Y-62755476D01*
X229707619Y-62707857D01*
X229802857Y-62660238D01*
X229945714Y-62660238D01*
X230040952Y-62707857D01*
X230088571Y-62755476D01*
X230136190Y-62850714D01*
X230136190Y-63231666D01*
X230707619Y-62469761D02*
X230707619Y-61707857D01*
X230088571Y-61469761D02*
X230088571Y-61136428D01*
X230612380Y-60993571D02*
X230612380Y-61469761D01*
X229612380Y-61469761D01*
X229612380Y-60993571D01*
X230088571Y-60231666D02*
X230136190Y-60088809D01*
X230183809Y-60041190D01*
X230279047Y-59993571D01*
X230421904Y-59993571D01*
X230517142Y-60041190D01*
X230564761Y-60088809D01*
X230612380Y-60184047D01*
X230612380Y-60565000D01*
X229612380Y-60565000D01*
X229612380Y-60231666D01*
X229660000Y-60136428D01*
X229707619Y-60088809D01*
X229802857Y-60041190D01*
X229898095Y-60041190D01*
X229993333Y-60088809D01*
X230040952Y-60136428D01*
X230088571Y-60231666D01*
X230088571Y-60565000D01*
X230517142Y-58993571D02*
X230564761Y-59041190D01*
X230612380Y-59184047D01*
X230612380Y-59279285D01*
X230564761Y-59422142D01*
X230469523Y-59517380D01*
X230374285Y-59565000D01*
X230183809Y-59612619D01*
X230040952Y-59612619D01*
X229850476Y-59565000D01*
X229755238Y-59517380D01*
X229660000Y-59422142D01*
X229612380Y-59279285D01*
X229612380Y-59184047D01*
X229660000Y-59041190D01*
X229707619Y-58993571D01*
X237057619Y-63160238D02*
X237010000Y-63255476D01*
X236914761Y-63350714D01*
X236771904Y-63493571D01*
X236724285Y-63588809D01*
X236724285Y-63684047D01*
X236962380Y-63636428D02*
X236914761Y-63731666D01*
X236819523Y-63826904D01*
X236629047Y-63874523D01*
X236295714Y-63874523D01*
X236105238Y-63826904D01*
X236010000Y-63731666D01*
X235962380Y-63636428D01*
X235962380Y-63445952D01*
X236010000Y-63350714D01*
X236105238Y-63255476D01*
X236295714Y-63207857D01*
X236629047Y-63207857D01*
X236819523Y-63255476D01*
X236914761Y-63350714D01*
X236962380Y-63445952D01*
X236962380Y-63636428D01*
X236962380Y-62255476D02*
X236962380Y-62826904D01*
X236962380Y-62541190D02*
X235962380Y-62541190D01*
X236105238Y-62636428D01*
X236200476Y-62731666D01*
X236248095Y-62826904D01*
G04 #@! TO.C,Q2*
X188707619Y-66572142D02*
X188660000Y-66667380D01*
X188564761Y-66762619D01*
X188421904Y-66905476D01*
X188374285Y-67000714D01*
X188374285Y-67095952D01*
X188612380Y-67048333D02*
X188564761Y-67143571D01*
X188469523Y-67238809D01*
X188279047Y-67286428D01*
X187945714Y-67286428D01*
X187755238Y-67238809D01*
X187660000Y-67143571D01*
X187612380Y-67048333D01*
X187612380Y-66857857D01*
X187660000Y-66762619D01*
X187755238Y-66667380D01*
X187945714Y-66619761D01*
X188279047Y-66619761D01*
X188469523Y-66667380D01*
X188564761Y-66762619D01*
X188612380Y-66857857D01*
X188612380Y-67048333D01*
X188707619Y-66429285D02*
X188707619Y-65667380D01*
X188612380Y-65429285D02*
X187612380Y-65429285D01*
X187612380Y-65048333D01*
X187660000Y-64953095D01*
X187707619Y-64905476D01*
X187802857Y-64857857D01*
X187945714Y-64857857D01*
X188040952Y-64905476D01*
X188088571Y-64953095D01*
X188136190Y-65048333D01*
X188136190Y-65429285D01*
X188612380Y-64429285D02*
X187612380Y-64429285D01*
X188612380Y-63857857D01*
X187612380Y-63857857D01*
X188612380Y-63381666D02*
X187612380Y-63381666D01*
X187612380Y-63000714D01*
X187660000Y-62905476D01*
X187707619Y-62857857D01*
X187802857Y-62810238D01*
X187945714Y-62810238D01*
X188040952Y-62857857D01*
X188088571Y-62905476D01*
X188136190Y-63000714D01*
X188136190Y-63381666D01*
X188707619Y-62619761D02*
X188707619Y-61857857D01*
X188088571Y-61619761D02*
X188088571Y-61286428D01*
X188612380Y-61143571D02*
X188612380Y-61619761D01*
X187612380Y-61619761D01*
X187612380Y-61143571D01*
X188088571Y-60381666D02*
X188136190Y-60238809D01*
X188183809Y-60191190D01*
X188279047Y-60143571D01*
X188421904Y-60143571D01*
X188517142Y-60191190D01*
X188564761Y-60238809D01*
X188612380Y-60334047D01*
X188612380Y-60715000D01*
X187612380Y-60715000D01*
X187612380Y-60381666D01*
X187660000Y-60286428D01*
X187707619Y-60238809D01*
X187802857Y-60191190D01*
X187898095Y-60191190D01*
X187993333Y-60238809D01*
X188040952Y-60286428D01*
X188088571Y-60381666D01*
X188088571Y-60715000D01*
X188517142Y-59143571D02*
X188564761Y-59191190D01*
X188612380Y-59334047D01*
X188612380Y-59429285D01*
X188564761Y-59572142D01*
X188469523Y-59667380D01*
X188374285Y-59715000D01*
X188183809Y-59762619D01*
X188040952Y-59762619D01*
X187850476Y-59715000D01*
X187755238Y-59667380D01*
X187660000Y-59572142D01*
X187612380Y-59429285D01*
X187612380Y-59334047D01*
X187660000Y-59191190D01*
X187707619Y-59143571D01*
X195057619Y-63310238D02*
X195010000Y-63405476D01*
X194914761Y-63500714D01*
X194771904Y-63643571D01*
X194724285Y-63738809D01*
X194724285Y-63834047D01*
X194962380Y-63786428D02*
X194914761Y-63881666D01*
X194819523Y-63976904D01*
X194629047Y-64024523D01*
X194295714Y-64024523D01*
X194105238Y-63976904D01*
X194010000Y-63881666D01*
X193962380Y-63786428D01*
X193962380Y-63595952D01*
X194010000Y-63500714D01*
X194105238Y-63405476D01*
X194295714Y-63357857D01*
X194629047Y-63357857D01*
X194819523Y-63405476D01*
X194914761Y-63500714D01*
X194962380Y-63595952D01*
X194962380Y-63786428D01*
X194057619Y-62976904D02*
X194010000Y-62929285D01*
X193962380Y-62834047D01*
X193962380Y-62595952D01*
X194010000Y-62500714D01*
X194057619Y-62453095D01*
X194152857Y-62405476D01*
X194248095Y-62405476D01*
X194390952Y-62453095D01*
X194962380Y-63024523D01*
X194962380Y-62405476D01*
G04 #@! TO.C,Q3*
X209707619Y-66422142D02*
X209660000Y-66517380D01*
X209564761Y-66612619D01*
X209421904Y-66755476D01*
X209374285Y-66850714D01*
X209374285Y-66945952D01*
X209612380Y-66898333D02*
X209564761Y-66993571D01*
X209469523Y-67088809D01*
X209279047Y-67136428D01*
X208945714Y-67136428D01*
X208755238Y-67088809D01*
X208660000Y-66993571D01*
X208612380Y-66898333D01*
X208612380Y-66707857D01*
X208660000Y-66612619D01*
X208755238Y-66517380D01*
X208945714Y-66469761D01*
X209279047Y-66469761D01*
X209469523Y-66517380D01*
X209564761Y-66612619D01*
X209612380Y-66707857D01*
X209612380Y-66898333D01*
X209707619Y-66279285D02*
X209707619Y-65517380D01*
X209612380Y-65279285D02*
X208612380Y-65279285D01*
X208612380Y-64898333D01*
X208660000Y-64803095D01*
X208707619Y-64755476D01*
X208802857Y-64707857D01*
X208945714Y-64707857D01*
X209040952Y-64755476D01*
X209088571Y-64803095D01*
X209136190Y-64898333D01*
X209136190Y-65279285D01*
X209612380Y-64279285D02*
X208612380Y-64279285D01*
X209612380Y-63707857D01*
X208612380Y-63707857D01*
X209612380Y-63231666D02*
X208612380Y-63231666D01*
X208612380Y-62850714D01*
X208660000Y-62755476D01*
X208707619Y-62707857D01*
X208802857Y-62660238D01*
X208945714Y-62660238D01*
X209040952Y-62707857D01*
X209088571Y-62755476D01*
X209136190Y-62850714D01*
X209136190Y-63231666D01*
X209707619Y-62469761D02*
X209707619Y-61707857D01*
X209088571Y-61469761D02*
X209088571Y-61136428D01*
X209612380Y-60993571D02*
X209612380Y-61469761D01*
X208612380Y-61469761D01*
X208612380Y-60993571D01*
X209088571Y-60231666D02*
X209136190Y-60088809D01*
X209183809Y-60041190D01*
X209279047Y-59993571D01*
X209421904Y-59993571D01*
X209517142Y-60041190D01*
X209564761Y-60088809D01*
X209612380Y-60184047D01*
X209612380Y-60565000D01*
X208612380Y-60565000D01*
X208612380Y-60231666D01*
X208660000Y-60136428D01*
X208707619Y-60088809D01*
X208802857Y-60041190D01*
X208898095Y-60041190D01*
X208993333Y-60088809D01*
X209040952Y-60136428D01*
X209088571Y-60231666D01*
X209088571Y-60565000D01*
X209517142Y-58993571D02*
X209564761Y-59041190D01*
X209612380Y-59184047D01*
X209612380Y-59279285D01*
X209564761Y-59422142D01*
X209469523Y-59517380D01*
X209374285Y-59565000D01*
X209183809Y-59612619D01*
X209040952Y-59612619D01*
X208850476Y-59565000D01*
X208755238Y-59517380D01*
X208660000Y-59422142D01*
X208612380Y-59279285D01*
X208612380Y-59184047D01*
X208660000Y-59041190D01*
X208707619Y-58993571D01*
X216057619Y-63160238D02*
X216010000Y-63255476D01*
X215914761Y-63350714D01*
X215771904Y-63493571D01*
X215724285Y-63588809D01*
X215724285Y-63684047D01*
X215962380Y-63636428D02*
X215914761Y-63731666D01*
X215819523Y-63826904D01*
X215629047Y-63874523D01*
X215295714Y-63874523D01*
X215105238Y-63826904D01*
X215010000Y-63731666D01*
X214962380Y-63636428D01*
X214962380Y-63445952D01*
X215010000Y-63350714D01*
X215105238Y-63255476D01*
X215295714Y-63207857D01*
X215629047Y-63207857D01*
X215819523Y-63255476D01*
X215914761Y-63350714D01*
X215962380Y-63445952D01*
X215962380Y-63636428D01*
X214962380Y-62874523D02*
X214962380Y-62255476D01*
X215343333Y-62588809D01*
X215343333Y-62445952D01*
X215390952Y-62350714D01*
X215438571Y-62303095D01*
X215533809Y-62255476D01*
X215771904Y-62255476D01*
X215867142Y-62303095D01*
X215914761Y-62350714D01*
X215962380Y-62445952D01*
X215962380Y-62731666D01*
X215914761Y-62826904D01*
X215867142Y-62874523D01*
G04 #@! TO.C,Q4*
X230707619Y-53922142D02*
X230660000Y-54017380D01*
X230564761Y-54112619D01*
X230421904Y-54255476D01*
X230374285Y-54350714D01*
X230374285Y-54445952D01*
X230612380Y-54398333D02*
X230564761Y-54493571D01*
X230469523Y-54588809D01*
X230279047Y-54636428D01*
X229945714Y-54636428D01*
X229755238Y-54588809D01*
X229660000Y-54493571D01*
X229612380Y-54398333D01*
X229612380Y-54207857D01*
X229660000Y-54112619D01*
X229755238Y-54017380D01*
X229945714Y-53969761D01*
X230279047Y-53969761D01*
X230469523Y-54017380D01*
X230564761Y-54112619D01*
X230612380Y-54207857D01*
X230612380Y-54398333D01*
X230707619Y-53779285D02*
X230707619Y-53017380D01*
X230612380Y-52779285D02*
X229612380Y-52779285D01*
X229612380Y-52398333D01*
X229660000Y-52303095D01*
X229707619Y-52255476D01*
X229802857Y-52207857D01*
X229945714Y-52207857D01*
X230040952Y-52255476D01*
X230088571Y-52303095D01*
X230136190Y-52398333D01*
X230136190Y-52779285D01*
X230612380Y-51779285D02*
X229612380Y-51779285D01*
X230612380Y-51207857D01*
X229612380Y-51207857D01*
X230612380Y-50731666D02*
X229612380Y-50731666D01*
X229612380Y-50350714D01*
X229660000Y-50255476D01*
X229707619Y-50207857D01*
X229802857Y-50160238D01*
X229945714Y-50160238D01*
X230040952Y-50207857D01*
X230088571Y-50255476D01*
X230136190Y-50350714D01*
X230136190Y-50731666D01*
X230707619Y-49969761D02*
X230707619Y-49207857D01*
X230088571Y-48969761D02*
X230088571Y-48636428D01*
X230612380Y-48493571D02*
X230612380Y-48969761D01*
X229612380Y-48969761D01*
X229612380Y-48493571D01*
X230088571Y-47731666D02*
X230136190Y-47588809D01*
X230183809Y-47541190D01*
X230279047Y-47493571D01*
X230421904Y-47493571D01*
X230517142Y-47541190D01*
X230564761Y-47588809D01*
X230612380Y-47684047D01*
X230612380Y-48065000D01*
X229612380Y-48065000D01*
X229612380Y-47731666D01*
X229660000Y-47636428D01*
X229707619Y-47588809D01*
X229802857Y-47541190D01*
X229898095Y-47541190D01*
X229993333Y-47588809D01*
X230040952Y-47636428D01*
X230088571Y-47731666D01*
X230088571Y-48065000D01*
X230517142Y-46493571D02*
X230564761Y-46541190D01*
X230612380Y-46684047D01*
X230612380Y-46779285D01*
X230564761Y-46922142D01*
X230469523Y-47017380D01*
X230374285Y-47065000D01*
X230183809Y-47112619D01*
X230040952Y-47112619D01*
X229850476Y-47065000D01*
X229755238Y-47017380D01*
X229660000Y-46922142D01*
X229612380Y-46779285D01*
X229612380Y-46684047D01*
X229660000Y-46541190D01*
X229707619Y-46493571D01*
X237057619Y-50660238D02*
X237010000Y-50755476D01*
X236914761Y-50850714D01*
X236771904Y-50993571D01*
X236724285Y-51088809D01*
X236724285Y-51184047D01*
X236962380Y-51136428D02*
X236914761Y-51231666D01*
X236819523Y-51326904D01*
X236629047Y-51374523D01*
X236295714Y-51374523D01*
X236105238Y-51326904D01*
X236010000Y-51231666D01*
X235962380Y-51136428D01*
X235962380Y-50945952D01*
X236010000Y-50850714D01*
X236105238Y-50755476D01*
X236295714Y-50707857D01*
X236629047Y-50707857D01*
X236819523Y-50755476D01*
X236914761Y-50850714D01*
X236962380Y-50945952D01*
X236962380Y-51136428D01*
X236295714Y-49850714D02*
X236962380Y-49850714D01*
X235914761Y-50088809D02*
X236629047Y-50326904D01*
X236629047Y-49707857D01*
G04 #@! TO.C,Q5*
X209707619Y-53922142D02*
X209660000Y-54017380D01*
X209564761Y-54112619D01*
X209421904Y-54255476D01*
X209374285Y-54350714D01*
X209374285Y-54445952D01*
X209612380Y-54398333D02*
X209564761Y-54493571D01*
X209469523Y-54588809D01*
X209279047Y-54636428D01*
X208945714Y-54636428D01*
X208755238Y-54588809D01*
X208660000Y-54493571D01*
X208612380Y-54398333D01*
X208612380Y-54207857D01*
X208660000Y-54112619D01*
X208755238Y-54017380D01*
X208945714Y-53969761D01*
X209279047Y-53969761D01*
X209469523Y-54017380D01*
X209564761Y-54112619D01*
X209612380Y-54207857D01*
X209612380Y-54398333D01*
X209707619Y-53779285D02*
X209707619Y-53017380D01*
X209612380Y-52779285D02*
X208612380Y-52779285D01*
X208612380Y-52398333D01*
X208660000Y-52303095D01*
X208707619Y-52255476D01*
X208802857Y-52207857D01*
X208945714Y-52207857D01*
X209040952Y-52255476D01*
X209088571Y-52303095D01*
X209136190Y-52398333D01*
X209136190Y-52779285D01*
X209612380Y-51779285D02*
X208612380Y-51779285D01*
X209612380Y-51207857D01*
X208612380Y-51207857D01*
X209612380Y-50731666D02*
X208612380Y-50731666D01*
X208612380Y-50350714D01*
X208660000Y-50255476D01*
X208707619Y-50207857D01*
X208802857Y-50160238D01*
X208945714Y-50160238D01*
X209040952Y-50207857D01*
X209088571Y-50255476D01*
X209136190Y-50350714D01*
X209136190Y-50731666D01*
X209707619Y-49969761D02*
X209707619Y-49207857D01*
X209088571Y-48969761D02*
X209088571Y-48636428D01*
X209612380Y-48493571D02*
X209612380Y-48969761D01*
X208612380Y-48969761D01*
X208612380Y-48493571D01*
X209088571Y-47731666D02*
X209136190Y-47588809D01*
X209183809Y-47541190D01*
X209279047Y-47493571D01*
X209421904Y-47493571D01*
X209517142Y-47541190D01*
X209564761Y-47588809D01*
X209612380Y-47684047D01*
X209612380Y-48065000D01*
X208612380Y-48065000D01*
X208612380Y-47731666D01*
X208660000Y-47636428D01*
X208707619Y-47588809D01*
X208802857Y-47541190D01*
X208898095Y-47541190D01*
X208993333Y-47588809D01*
X209040952Y-47636428D01*
X209088571Y-47731666D01*
X209088571Y-48065000D01*
X209517142Y-46493571D02*
X209564761Y-46541190D01*
X209612380Y-46684047D01*
X209612380Y-46779285D01*
X209564761Y-46922142D01*
X209469523Y-47017380D01*
X209374285Y-47065000D01*
X209183809Y-47112619D01*
X209040952Y-47112619D01*
X208850476Y-47065000D01*
X208755238Y-47017380D01*
X208660000Y-46922142D01*
X208612380Y-46779285D01*
X208612380Y-46684047D01*
X208660000Y-46541190D01*
X208707619Y-46493571D01*
X216057619Y-50660238D02*
X216010000Y-50755476D01*
X215914761Y-50850714D01*
X215771904Y-50993571D01*
X215724285Y-51088809D01*
X215724285Y-51184047D01*
X215962380Y-51136428D02*
X215914761Y-51231666D01*
X215819523Y-51326904D01*
X215629047Y-51374523D01*
X215295714Y-51374523D01*
X215105238Y-51326904D01*
X215010000Y-51231666D01*
X214962380Y-51136428D01*
X214962380Y-50945952D01*
X215010000Y-50850714D01*
X215105238Y-50755476D01*
X215295714Y-50707857D01*
X215629047Y-50707857D01*
X215819523Y-50755476D01*
X215914761Y-50850714D01*
X215962380Y-50945952D01*
X215962380Y-51136428D01*
X214962380Y-49803095D02*
X214962380Y-50279285D01*
X215438571Y-50326904D01*
X215390952Y-50279285D01*
X215343333Y-50184047D01*
X215343333Y-49945952D01*
X215390952Y-49850714D01*
X215438571Y-49803095D01*
X215533809Y-49755476D01*
X215771904Y-49755476D01*
X215867142Y-49803095D01*
X215914761Y-49850714D01*
X215962380Y-49945952D01*
X215962380Y-50184047D01*
X215914761Y-50279285D01*
X215867142Y-50326904D01*
G04 #@! TO.C,Q6*
X188707619Y-53972142D02*
X188660000Y-54067380D01*
X188564761Y-54162619D01*
X188421904Y-54305476D01*
X188374285Y-54400714D01*
X188374285Y-54495952D01*
X188612380Y-54448333D02*
X188564761Y-54543571D01*
X188469523Y-54638809D01*
X188279047Y-54686428D01*
X187945714Y-54686428D01*
X187755238Y-54638809D01*
X187660000Y-54543571D01*
X187612380Y-54448333D01*
X187612380Y-54257857D01*
X187660000Y-54162619D01*
X187755238Y-54067380D01*
X187945714Y-54019761D01*
X188279047Y-54019761D01*
X188469523Y-54067380D01*
X188564761Y-54162619D01*
X188612380Y-54257857D01*
X188612380Y-54448333D01*
X188707619Y-53829285D02*
X188707619Y-53067380D01*
X188612380Y-52829285D02*
X187612380Y-52829285D01*
X187612380Y-52448333D01*
X187660000Y-52353095D01*
X187707619Y-52305476D01*
X187802857Y-52257857D01*
X187945714Y-52257857D01*
X188040952Y-52305476D01*
X188088571Y-52353095D01*
X188136190Y-52448333D01*
X188136190Y-52829285D01*
X188612380Y-51829285D02*
X187612380Y-51829285D01*
X188612380Y-51257857D01*
X187612380Y-51257857D01*
X188612380Y-50781666D02*
X187612380Y-50781666D01*
X187612380Y-50400714D01*
X187660000Y-50305476D01*
X187707619Y-50257857D01*
X187802857Y-50210238D01*
X187945714Y-50210238D01*
X188040952Y-50257857D01*
X188088571Y-50305476D01*
X188136190Y-50400714D01*
X188136190Y-50781666D01*
X188707619Y-50019761D02*
X188707619Y-49257857D01*
X188088571Y-49019761D02*
X188088571Y-48686428D01*
X188612380Y-48543571D02*
X188612380Y-49019761D01*
X187612380Y-49019761D01*
X187612380Y-48543571D01*
X188088571Y-47781666D02*
X188136190Y-47638809D01*
X188183809Y-47591190D01*
X188279047Y-47543571D01*
X188421904Y-47543571D01*
X188517142Y-47591190D01*
X188564761Y-47638809D01*
X188612380Y-47734047D01*
X188612380Y-48115000D01*
X187612380Y-48115000D01*
X187612380Y-47781666D01*
X187660000Y-47686428D01*
X187707619Y-47638809D01*
X187802857Y-47591190D01*
X187898095Y-47591190D01*
X187993333Y-47638809D01*
X188040952Y-47686428D01*
X188088571Y-47781666D01*
X188088571Y-48115000D01*
X188517142Y-46543571D02*
X188564761Y-46591190D01*
X188612380Y-46734047D01*
X188612380Y-46829285D01*
X188564761Y-46972142D01*
X188469523Y-47067380D01*
X188374285Y-47115000D01*
X188183809Y-47162619D01*
X188040952Y-47162619D01*
X187850476Y-47115000D01*
X187755238Y-47067380D01*
X187660000Y-46972142D01*
X187612380Y-46829285D01*
X187612380Y-46734047D01*
X187660000Y-46591190D01*
X187707619Y-46543571D01*
X195057619Y-50710238D02*
X195010000Y-50805476D01*
X194914761Y-50900714D01*
X194771904Y-51043571D01*
X194724285Y-51138809D01*
X194724285Y-51234047D01*
X194962380Y-51186428D02*
X194914761Y-51281666D01*
X194819523Y-51376904D01*
X194629047Y-51424523D01*
X194295714Y-51424523D01*
X194105238Y-51376904D01*
X194010000Y-51281666D01*
X193962380Y-51186428D01*
X193962380Y-50995952D01*
X194010000Y-50900714D01*
X194105238Y-50805476D01*
X194295714Y-50757857D01*
X194629047Y-50757857D01*
X194819523Y-50805476D01*
X194914761Y-50900714D01*
X194962380Y-50995952D01*
X194962380Y-51186428D01*
X193962380Y-49900714D02*
X193962380Y-50091190D01*
X194010000Y-50186428D01*
X194057619Y-50234047D01*
X194200476Y-50329285D01*
X194390952Y-50376904D01*
X194771904Y-50376904D01*
X194867142Y-50329285D01*
X194914761Y-50281666D01*
X194962380Y-50186428D01*
X194962380Y-49995952D01*
X194914761Y-49900714D01*
X194867142Y-49853095D01*
X194771904Y-49805476D01*
X194533809Y-49805476D01*
X194438571Y-49853095D01*
X194390952Y-49900714D01*
X194343333Y-49995952D01*
X194343333Y-50186428D01*
X194390952Y-50281666D01*
X194438571Y-50329285D01*
X194533809Y-50376904D01*
G04 #@! TO.C,R1 270*
X191529523Y-71987380D02*
X191196190Y-71511190D01*
X190958095Y-71987380D02*
X190958095Y-70987380D01*
X191339047Y-70987380D01*
X191434285Y-71035000D01*
X191481904Y-71082619D01*
X191529523Y-71177857D01*
X191529523Y-71320714D01*
X191481904Y-71415952D01*
X191434285Y-71463571D01*
X191339047Y-71511190D01*
X190958095Y-71511190D01*
G04 #@! TO.C,R2 270*
X212529523Y-71837380D02*
X212196190Y-71361190D01*
X211958095Y-71837380D02*
X211958095Y-70837380D01*
X212339047Y-70837380D01*
X212434285Y-70885000D01*
X212481904Y-70932619D01*
X212529523Y-71027857D01*
X212529523Y-71170714D01*
X212481904Y-71265952D01*
X212434285Y-71313571D01*
X212339047Y-71361190D01*
X211958095Y-71361190D01*
G04 #@! TO.C,R3 270*
X233529523Y-71652380D02*
X233196190Y-71176190D01*
X232958095Y-71652380D02*
X232958095Y-70652380D01*
X233339047Y-70652380D01*
X233434285Y-70700000D01*
X233481904Y-70747619D01*
X233529523Y-70842857D01*
X233529523Y-70985714D01*
X233481904Y-71080952D01*
X233434285Y-71128571D01*
X233339047Y-71176190D01*
X232958095Y-71176190D01*
G04 #@! TO.C,R4 270*
X233239523Y-42367380D02*
X232906190Y-41891190D01*
X232668095Y-42367380D02*
X232668095Y-41367380D01*
X233049047Y-41367380D01*
X233144285Y-41415000D01*
X233191904Y-41462619D01*
X233239523Y-41557857D01*
X233239523Y-41700714D01*
X233191904Y-41795952D01*
X233144285Y-41843571D01*
X233049047Y-41891190D01*
X232668095Y-41891190D01*
G04 #@! TO.C,R5 270*
X191729523Y-46387380D02*
X191396190Y-45911190D01*
X191158095Y-46387380D02*
X191158095Y-45387380D01*
X191539047Y-45387380D01*
X191634285Y-45435000D01*
X191681904Y-45482619D01*
X191729523Y-45577857D01*
X191729523Y-45720714D01*
X191681904Y-45815952D01*
X191634285Y-45863571D01*
X191539047Y-45911190D01*
X191158095Y-45911190D01*
G04 #@! TO.C,R6 270*
X212929523Y-46187380D02*
X212596190Y-45711190D01*
X212358095Y-46187380D02*
X212358095Y-45187380D01*
X212739047Y-45187380D01*
X212834285Y-45235000D01*
X212881904Y-45282619D01*
X212929523Y-45377857D01*
X212929523Y-45520714D01*
X212881904Y-45615952D01*
X212834285Y-45663571D01*
X212739047Y-45711190D01*
X212358095Y-45711190D01*
G04 #@! TO.C,U1*
D13*
X190769047Y-76201190D02*
X190769047Y-76605952D01*
X190792857Y-76653571D01*
X190816666Y-76677380D01*
X190864285Y-76701190D01*
X190959523Y-76701190D01*
X191007142Y-76677380D01*
X191030952Y-76653571D01*
X191054761Y-76605952D01*
X191054761Y-76201190D01*
X191554761Y-76701190D02*
X191269047Y-76701190D01*
X191411904Y-76701190D02*
X191411904Y-76201190D01*
X191364285Y-76272619D01*
X191316666Y-76320238D01*
X191269047Y-76344047D01*
G04 #@! TO.C,U3*
X231819047Y-76326190D02*
X231819047Y-76730952D01*
X231842857Y-76778571D01*
X231866666Y-76802380D01*
X231914285Y-76826190D01*
X232009523Y-76826190D01*
X232057142Y-76802380D01*
X232080952Y-76778571D01*
X232104761Y-76730952D01*
X232104761Y-76326190D01*
X232295238Y-76326190D02*
X232604761Y-76326190D01*
X232438095Y-76516666D01*
X232509523Y-76516666D01*
X232557142Y-76540476D01*
X232580952Y-76564285D01*
X232604761Y-76611904D01*
X232604761Y-76730952D01*
X232580952Y-76778571D01*
X232557142Y-76802380D01*
X232509523Y-76826190D01*
X232366666Y-76826190D01*
X232319047Y-76802380D01*
X232295238Y-76778571D01*
G04 #@! TO.C,REF\002A\002A*
D12*
X168830952Y-49927380D02*
X168830952Y-48927380D01*
X169164285Y-49641666D01*
X169497619Y-48927380D01*
X169497619Y-49927380D01*
X170116666Y-49927380D02*
X170021428Y-49879761D01*
X169973809Y-49832142D01*
X169926190Y-49736904D01*
X169926190Y-49451190D01*
X169973809Y-49355952D01*
X170021428Y-49308333D01*
X170116666Y-49260714D01*
X170259523Y-49260714D01*
X170354761Y-49308333D01*
X170402380Y-49355952D01*
X170450000Y-49451190D01*
X170450000Y-49736904D01*
X170402380Y-49832142D01*
X170354761Y-49879761D01*
X170259523Y-49927380D01*
X170116666Y-49927380D01*
X171307142Y-49260714D02*
X171307142Y-49927380D01*
X170878571Y-49260714D02*
X170878571Y-49784523D01*
X170926190Y-49879761D01*
X171021428Y-49927380D01*
X171164285Y-49927380D01*
X171259523Y-49879761D01*
X171307142Y-49832142D01*
X171783333Y-49260714D02*
X171783333Y-49927380D01*
X171783333Y-49355952D02*
X171830952Y-49308333D01*
X171926190Y-49260714D01*
X172069047Y-49260714D01*
X172164285Y-49308333D01*
X172211904Y-49403571D01*
X172211904Y-49927380D01*
X172545238Y-49260714D02*
X172926190Y-49260714D01*
X172688095Y-48927380D02*
X172688095Y-49784523D01*
X172735714Y-49879761D01*
X172830952Y-49927380D01*
X172926190Y-49927380D01*
X173259523Y-49927380D02*
X173259523Y-49260714D01*
X173259523Y-48927380D02*
X173211904Y-48975000D01*
X173259523Y-49022619D01*
X173307142Y-48975000D01*
X173259523Y-48927380D01*
X173259523Y-49022619D01*
X173735714Y-49260714D02*
X173735714Y-49927380D01*
X173735714Y-49355952D02*
X173783333Y-49308333D01*
X173878571Y-49260714D01*
X174021428Y-49260714D01*
X174116666Y-49308333D01*
X174164285Y-49403571D01*
X174164285Y-49927380D01*
X175069047Y-49260714D02*
X175069047Y-50070238D01*
X175021428Y-50165476D01*
X174973809Y-50213095D01*
X174878571Y-50260714D01*
X174735714Y-50260714D01*
X174640476Y-50213095D01*
X175069047Y-49879761D02*
X174973809Y-49927380D01*
X174783333Y-49927380D01*
X174688095Y-49879761D01*
X174640476Y-49832142D01*
X174592857Y-49736904D01*
X174592857Y-49451190D01*
X174640476Y-49355952D01*
X174688095Y-49308333D01*
X174783333Y-49260714D01*
X174973809Y-49260714D01*
X175069047Y-49308333D01*
X175545238Y-49927380D02*
X175545238Y-48927380D01*
X175545238Y-49403571D02*
X176116666Y-49403571D01*
X176116666Y-49927380D02*
X176116666Y-48927380D01*
X176735714Y-49927380D02*
X176640476Y-49879761D01*
X176592857Y-49832142D01*
X176545238Y-49736904D01*
X176545238Y-49451190D01*
X176592857Y-49355952D01*
X176640476Y-49308333D01*
X176735714Y-49260714D01*
X176878571Y-49260714D01*
X176973809Y-49308333D01*
X177021428Y-49355952D01*
X177069047Y-49451190D01*
X177069047Y-49736904D01*
X177021428Y-49832142D01*
X176973809Y-49879761D01*
X176878571Y-49927380D01*
X176735714Y-49927380D01*
X177640476Y-49927380D02*
X177545238Y-49879761D01*
X177497619Y-49784523D01*
X177497619Y-48927380D01*
X178402380Y-49879761D02*
X178307142Y-49927380D01*
X178116666Y-49927380D01*
X178021428Y-49879761D01*
X177973809Y-49784523D01*
X177973809Y-49403571D01*
X178021428Y-49308333D01*
X178116666Y-49260714D01*
X178307142Y-49260714D01*
X178402380Y-49308333D01*
X178450000Y-49403571D01*
X178450000Y-49498809D01*
X177973809Y-49594047D01*
X178640476Y-50022619D02*
X179402380Y-50022619D01*
X179545238Y-48927380D02*
X180164285Y-48927380D01*
X179830952Y-49308333D01*
X179973809Y-49308333D01*
X180069047Y-49355952D01*
X180116666Y-49403571D01*
X180164285Y-49498809D01*
X180164285Y-49736904D01*
X180116666Y-49832142D01*
X180069047Y-49879761D01*
X179973809Y-49927380D01*
X179688095Y-49927380D01*
X179592857Y-49879761D01*
X179545238Y-49832142D01*
X180592857Y-49832142D02*
X180640476Y-49879761D01*
X180592857Y-49927380D01*
X180545238Y-49879761D01*
X180592857Y-49832142D01*
X180592857Y-49927380D01*
X181021428Y-49022619D02*
X181069047Y-48975000D01*
X181164285Y-48927380D01*
X181402380Y-48927380D01*
X181497619Y-48975000D01*
X181545238Y-49022619D01*
X181592857Y-49117857D01*
X181592857Y-49213095D01*
X181545238Y-49355952D01*
X180973809Y-49927380D01*
X181592857Y-49927380D01*
X182021428Y-49927380D02*
X182021428Y-49260714D01*
X182021428Y-49355952D02*
X182069047Y-49308333D01*
X182164285Y-49260714D01*
X182307142Y-49260714D01*
X182402380Y-49308333D01*
X182450000Y-49403571D01*
X182450000Y-49927380D01*
X182450000Y-49403571D02*
X182497619Y-49308333D01*
X182592857Y-49260714D01*
X182735714Y-49260714D01*
X182830952Y-49308333D01*
X182878571Y-49403571D01*
X182878571Y-49927380D01*
X183354761Y-49927380D02*
X183354761Y-49260714D01*
X183354761Y-49355952D02*
X183402380Y-49308333D01*
X183497619Y-49260714D01*
X183640476Y-49260714D01*
X183735714Y-49308333D01*
X183783333Y-49403571D01*
X183783333Y-49927380D01*
X183783333Y-49403571D02*
X183830952Y-49308333D01*
X183926190Y-49260714D01*
X184069047Y-49260714D01*
X184164285Y-49308333D01*
X184211904Y-49403571D01*
X184211904Y-49927380D01*
X184450000Y-50022619D02*
X185211904Y-50022619D01*
X185450000Y-49927380D02*
X185450000Y-48927380D01*
X185783333Y-49641666D01*
X186116666Y-48927380D01*
X186116666Y-49927380D01*
X186497619Y-48927380D02*
X187116666Y-48927380D01*
X186783333Y-49308333D01*
X186926190Y-49308333D01*
X187021428Y-49355952D01*
X187069047Y-49403571D01*
X187116666Y-49498809D01*
X187116666Y-49736904D01*
X187069047Y-49832142D01*
X187021428Y-49879761D01*
X186926190Y-49927380D01*
X186640476Y-49927380D01*
X186545238Y-49879761D01*
X186497619Y-49832142D01*
X176916666Y-45727380D02*
X176583333Y-45251190D01*
X176345238Y-45727380D02*
X176345238Y-44727380D01*
X176726190Y-44727380D01*
X176821428Y-44775000D01*
X176869047Y-44822619D01*
X176916666Y-44917857D01*
X176916666Y-45060714D01*
X176869047Y-45155952D01*
X176821428Y-45203571D01*
X176726190Y-45251190D01*
X176345238Y-45251190D01*
X177345238Y-45203571D02*
X177678571Y-45203571D01*
X177821428Y-45727380D02*
X177345238Y-45727380D01*
X177345238Y-44727380D01*
X177821428Y-44727380D01*
X178583333Y-45203571D02*
X178250000Y-45203571D01*
X178250000Y-45727380D02*
X178250000Y-44727380D01*
X178726190Y-44727380D01*
X179250000Y-44727380D02*
X179250000Y-44965476D01*
X179011904Y-44870238D02*
X179250000Y-44965476D01*
X179488095Y-44870238D01*
X179107142Y-45155952D02*
X179250000Y-44965476D01*
X179392857Y-45155952D01*
X180011904Y-44727380D02*
X180011904Y-44965476D01*
X179773809Y-44870238D02*
X180011904Y-44965476D01*
X180250000Y-44870238D01*
X179869047Y-45155952D02*
X180011904Y-44965476D01*
X180154761Y-45155952D01*
X168830952Y-83427380D02*
X168830952Y-82427380D01*
X169164285Y-83141666D01*
X169497619Y-82427380D01*
X169497619Y-83427380D01*
X170116666Y-83427380D02*
X170021428Y-83379761D01*
X169973809Y-83332142D01*
X169926190Y-83236904D01*
X169926190Y-82951190D01*
X169973809Y-82855952D01*
X170021428Y-82808333D01*
X170116666Y-82760714D01*
X170259523Y-82760714D01*
X170354761Y-82808333D01*
X170402380Y-82855952D01*
X170450000Y-82951190D01*
X170450000Y-83236904D01*
X170402380Y-83332142D01*
X170354761Y-83379761D01*
X170259523Y-83427380D01*
X170116666Y-83427380D01*
X171307142Y-82760714D02*
X171307142Y-83427380D01*
X170878571Y-82760714D02*
X170878571Y-83284523D01*
X170926190Y-83379761D01*
X171021428Y-83427380D01*
X171164285Y-83427380D01*
X171259523Y-83379761D01*
X171307142Y-83332142D01*
X171783333Y-82760714D02*
X171783333Y-83427380D01*
X171783333Y-82855952D02*
X171830952Y-82808333D01*
X171926190Y-82760714D01*
X172069047Y-82760714D01*
X172164285Y-82808333D01*
X172211904Y-82903571D01*
X172211904Y-83427380D01*
X172545238Y-82760714D02*
X172926190Y-82760714D01*
X172688095Y-82427380D02*
X172688095Y-83284523D01*
X172735714Y-83379761D01*
X172830952Y-83427380D01*
X172926190Y-83427380D01*
X173259523Y-83427380D02*
X173259523Y-82760714D01*
X173259523Y-82427380D02*
X173211904Y-82475000D01*
X173259523Y-82522619D01*
X173307142Y-82475000D01*
X173259523Y-82427380D01*
X173259523Y-82522619D01*
X173735714Y-82760714D02*
X173735714Y-83427380D01*
X173735714Y-82855952D02*
X173783333Y-82808333D01*
X173878571Y-82760714D01*
X174021428Y-82760714D01*
X174116666Y-82808333D01*
X174164285Y-82903571D01*
X174164285Y-83427380D01*
X175069047Y-82760714D02*
X175069047Y-83570238D01*
X175021428Y-83665476D01*
X174973809Y-83713095D01*
X174878571Y-83760714D01*
X174735714Y-83760714D01*
X174640476Y-83713095D01*
X175069047Y-83379761D02*
X174973809Y-83427380D01*
X174783333Y-83427380D01*
X174688095Y-83379761D01*
X174640476Y-83332142D01*
X174592857Y-83236904D01*
X174592857Y-82951190D01*
X174640476Y-82855952D01*
X174688095Y-82808333D01*
X174783333Y-82760714D01*
X174973809Y-82760714D01*
X175069047Y-82808333D01*
X175545238Y-83427380D02*
X175545238Y-82427380D01*
X175545238Y-82903571D02*
X176116666Y-82903571D01*
X176116666Y-83427380D02*
X176116666Y-82427380D01*
X176735714Y-83427380D02*
X176640476Y-83379761D01*
X176592857Y-83332142D01*
X176545238Y-83236904D01*
X176545238Y-82951190D01*
X176592857Y-82855952D01*
X176640476Y-82808333D01*
X176735714Y-82760714D01*
X176878571Y-82760714D01*
X176973809Y-82808333D01*
X177021428Y-82855952D01*
X177069047Y-82951190D01*
X177069047Y-83236904D01*
X177021428Y-83332142D01*
X176973809Y-83379761D01*
X176878571Y-83427380D01*
X176735714Y-83427380D01*
X177640476Y-83427380D02*
X177545238Y-83379761D01*
X177497619Y-83284523D01*
X177497619Y-82427380D01*
X178402380Y-83379761D02*
X178307142Y-83427380D01*
X178116666Y-83427380D01*
X178021428Y-83379761D01*
X177973809Y-83284523D01*
X177973809Y-82903571D01*
X178021428Y-82808333D01*
X178116666Y-82760714D01*
X178307142Y-82760714D01*
X178402380Y-82808333D01*
X178450000Y-82903571D01*
X178450000Y-82998809D01*
X177973809Y-83094047D01*
X178640476Y-83522619D02*
X179402380Y-83522619D01*
X179545238Y-82427380D02*
X180164285Y-82427380D01*
X179830952Y-82808333D01*
X179973809Y-82808333D01*
X180069047Y-82855952D01*
X180116666Y-82903571D01*
X180164285Y-82998809D01*
X180164285Y-83236904D01*
X180116666Y-83332142D01*
X180069047Y-83379761D01*
X179973809Y-83427380D01*
X179688095Y-83427380D01*
X179592857Y-83379761D01*
X179545238Y-83332142D01*
X180592857Y-83332142D02*
X180640476Y-83379761D01*
X180592857Y-83427380D01*
X180545238Y-83379761D01*
X180592857Y-83332142D01*
X180592857Y-83427380D01*
X181021428Y-82522619D02*
X181069047Y-82475000D01*
X181164285Y-82427380D01*
X181402380Y-82427380D01*
X181497619Y-82475000D01*
X181545238Y-82522619D01*
X181592857Y-82617857D01*
X181592857Y-82713095D01*
X181545238Y-82855952D01*
X180973809Y-83427380D01*
X181592857Y-83427380D01*
X182021428Y-83427380D02*
X182021428Y-82760714D01*
X182021428Y-82855952D02*
X182069047Y-82808333D01*
X182164285Y-82760714D01*
X182307142Y-82760714D01*
X182402380Y-82808333D01*
X182450000Y-82903571D01*
X182450000Y-83427380D01*
X182450000Y-82903571D02*
X182497619Y-82808333D01*
X182592857Y-82760714D01*
X182735714Y-82760714D01*
X182830952Y-82808333D01*
X182878571Y-82903571D01*
X182878571Y-83427380D01*
X183354761Y-83427380D02*
X183354761Y-82760714D01*
X183354761Y-82855952D02*
X183402380Y-82808333D01*
X183497619Y-82760714D01*
X183640476Y-82760714D01*
X183735714Y-82808333D01*
X183783333Y-82903571D01*
X183783333Y-83427380D01*
X183783333Y-82903571D02*
X183830952Y-82808333D01*
X183926190Y-82760714D01*
X184069047Y-82760714D01*
X184164285Y-82808333D01*
X184211904Y-82903571D01*
X184211904Y-83427380D01*
X184450000Y-83522619D02*
X185211904Y-83522619D01*
X185450000Y-83427380D02*
X185450000Y-82427380D01*
X185783333Y-83141666D01*
X186116666Y-82427380D01*
X186116666Y-83427380D01*
X186497619Y-82427380D02*
X187116666Y-82427380D01*
X186783333Y-82808333D01*
X186926190Y-82808333D01*
X187021428Y-82855952D01*
X187069047Y-82903571D01*
X187116666Y-82998809D01*
X187116666Y-83236904D01*
X187069047Y-83332142D01*
X187021428Y-83379761D01*
X186926190Y-83427380D01*
X186640476Y-83427380D01*
X186545238Y-83379761D01*
X186497619Y-83332142D01*
X176916666Y-79227380D02*
X176583333Y-78751190D01*
X176345238Y-79227380D02*
X176345238Y-78227380D01*
X176726190Y-78227380D01*
X176821428Y-78275000D01*
X176869047Y-78322619D01*
X176916666Y-78417857D01*
X176916666Y-78560714D01*
X176869047Y-78655952D01*
X176821428Y-78703571D01*
X176726190Y-78751190D01*
X176345238Y-78751190D01*
X177345238Y-78703571D02*
X177678571Y-78703571D01*
X177821428Y-79227380D02*
X177345238Y-79227380D01*
X177345238Y-78227380D01*
X177821428Y-78227380D01*
X178583333Y-78703571D02*
X178250000Y-78703571D01*
X178250000Y-79227380D02*
X178250000Y-78227380D01*
X178726190Y-78227380D01*
X179250000Y-78227380D02*
X179250000Y-78465476D01*
X179011904Y-78370238D02*
X179250000Y-78465476D01*
X179488095Y-78370238D01*
X179107142Y-78655952D02*
X179250000Y-78465476D01*
X179392857Y-78655952D01*
X180011904Y-78227380D02*
X180011904Y-78465476D01*
X179773809Y-78370238D02*
X180011904Y-78465476D01*
X180250000Y-78370238D01*
X179869047Y-78655952D02*
X180011904Y-78465476D01*
X180154761Y-78655952D01*
X255330952Y-49927380D02*
X255330952Y-48927380D01*
X255664285Y-49641666D01*
X255997619Y-48927380D01*
X255997619Y-49927380D01*
X256616666Y-49927380D02*
X256521428Y-49879761D01*
X256473809Y-49832142D01*
X256426190Y-49736904D01*
X256426190Y-49451190D01*
X256473809Y-49355952D01*
X256521428Y-49308333D01*
X256616666Y-49260714D01*
X256759523Y-49260714D01*
X256854761Y-49308333D01*
X256902380Y-49355952D01*
X256950000Y-49451190D01*
X256950000Y-49736904D01*
X256902380Y-49832142D01*
X256854761Y-49879761D01*
X256759523Y-49927380D01*
X256616666Y-49927380D01*
X257807142Y-49260714D02*
X257807142Y-49927380D01*
X257378571Y-49260714D02*
X257378571Y-49784523D01*
X257426190Y-49879761D01*
X257521428Y-49927380D01*
X257664285Y-49927380D01*
X257759523Y-49879761D01*
X257807142Y-49832142D01*
X258283333Y-49260714D02*
X258283333Y-49927380D01*
X258283333Y-49355952D02*
X258330952Y-49308333D01*
X258426190Y-49260714D01*
X258569047Y-49260714D01*
X258664285Y-49308333D01*
X258711904Y-49403571D01*
X258711904Y-49927380D01*
X259045238Y-49260714D02*
X259426190Y-49260714D01*
X259188095Y-48927380D02*
X259188095Y-49784523D01*
X259235714Y-49879761D01*
X259330952Y-49927380D01*
X259426190Y-49927380D01*
X259759523Y-49927380D02*
X259759523Y-49260714D01*
X259759523Y-48927380D02*
X259711904Y-48975000D01*
X259759523Y-49022619D01*
X259807142Y-48975000D01*
X259759523Y-48927380D01*
X259759523Y-49022619D01*
X260235714Y-49260714D02*
X260235714Y-49927380D01*
X260235714Y-49355952D02*
X260283333Y-49308333D01*
X260378571Y-49260714D01*
X260521428Y-49260714D01*
X260616666Y-49308333D01*
X260664285Y-49403571D01*
X260664285Y-49927380D01*
X261569047Y-49260714D02*
X261569047Y-50070238D01*
X261521428Y-50165476D01*
X261473809Y-50213095D01*
X261378571Y-50260714D01*
X261235714Y-50260714D01*
X261140476Y-50213095D01*
X261569047Y-49879761D02*
X261473809Y-49927380D01*
X261283333Y-49927380D01*
X261188095Y-49879761D01*
X261140476Y-49832142D01*
X261092857Y-49736904D01*
X261092857Y-49451190D01*
X261140476Y-49355952D01*
X261188095Y-49308333D01*
X261283333Y-49260714D01*
X261473809Y-49260714D01*
X261569047Y-49308333D01*
X262045238Y-49927380D02*
X262045238Y-48927380D01*
X262045238Y-49403571D02*
X262616666Y-49403571D01*
X262616666Y-49927380D02*
X262616666Y-48927380D01*
X263235714Y-49927380D02*
X263140476Y-49879761D01*
X263092857Y-49832142D01*
X263045238Y-49736904D01*
X263045238Y-49451190D01*
X263092857Y-49355952D01*
X263140476Y-49308333D01*
X263235714Y-49260714D01*
X263378571Y-49260714D01*
X263473809Y-49308333D01*
X263521428Y-49355952D01*
X263569047Y-49451190D01*
X263569047Y-49736904D01*
X263521428Y-49832142D01*
X263473809Y-49879761D01*
X263378571Y-49927380D01*
X263235714Y-49927380D01*
X264140476Y-49927380D02*
X264045238Y-49879761D01*
X263997619Y-49784523D01*
X263997619Y-48927380D01*
X264902380Y-49879761D02*
X264807142Y-49927380D01*
X264616666Y-49927380D01*
X264521428Y-49879761D01*
X264473809Y-49784523D01*
X264473809Y-49403571D01*
X264521428Y-49308333D01*
X264616666Y-49260714D01*
X264807142Y-49260714D01*
X264902380Y-49308333D01*
X264950000Y-49403571D01*
X264950000Y-49498809D01*
X264473809Y-49594047D01*
X265140476Y-50022619D02*
X265902380Y-50022619D01*
X266045238Y-48927380D02*
X266664285Y-48927380D01*
X266330952Y-49308333D01*
X266473809Y-49308333D01*
X266569047Y-49355952D01*
X266616666Y-49403571D01*
X266664285Y-49498809D01*
X266664285Y-49736904D01*
X266616666Y-49832142D01*
X266569047Y-49879761D01*
X266473809Y-49927380D01*
X266188095Y-49927380D01*
X266092857Y-49879761D01*
X266045238Y-49832142D01*
X267092857Y-49832142D02*
X267140476Y-49879761D01*
X267092857Y-49927380D01*
X267045238Y-49879761D01*
X267092857Y-49832142D01*
X267092857Y-49927380D01*
X267521428Y-49022619D02*
X267569047Y-48975000D01*
X267664285Y-48927380D01*
X267902380Y-48927380D01*
X267997619Y-48975000D01*
X268045238Y-49022619D01*
X268092857Y-49117857D01*
X268092857Y-49213095D01*
X268045238Y-49355952D01*
X267473809Y-49927380D01*
X268092857Y-49927380D01*
X268521428Y-49927380D02*
X268521428Y-49260714D01*
X268521428Y-49355952D02*
X268569047Y-49308333D01*
X268664285Y-49260714D01*
X268807142Y-49260714D01*
X268902380Y-49308333D01*
X268950000Y-49403571D01*
X268950000Y-49927380D01*
X268950000Y-49403571D02*
X268997619Y-49308333D01*
X269092857Y-49260714D01*
X269235714Y-49260714D01*
X269330952Y-49308333D01*
X269378571Y-49403571D01*
X269378571Y-49927380D01*
X269854761Y-49927380D02*
X269854761Y-49260714D01*
X269854761Y-49355952D02*
X269902380Y-49308333D01*
X269997619Y-49260714D01*
X270140476Y-49260714D01*
X270235714Y-49308333D01*
X270283333Y-49403571D01*
X270283333Y-49927380D01*
X270283333Y-49403571D02*
X270330952Y-49308333D01*
X270426190Y-49260714D01*
X270569047Y-49260714D01*
X270664285Y-49308333D01*
X270711904Y-49403571D01*
X270711904Y-49927380D01*
X270950000Y-50022619D02*
X271711904Y-50022619D01*
X271950000Y-49927380D02*
X271950000Y-48927380D01*
X272283333Y-49641666D01*
X272616666Y-48927380D01*
X272616666Y-49927380D01*
X272997619Y-48927380D02*
X273616666Y-48927380D01*
X273283333Y-49308333D01*
X273426190Y-49308333D01*
X273521428Y-49355952D01*
X273569047Y-49403571D01*
X273616666Y-49498809D01*
X273616666Y-49736904D01*
X273569047Y-49832142D01*
X273521428Y-49879761D01*
X273426190Y-49927380D01*
X273140476Y-49927380D01*
X273045238Y-49879761D01*
X272997619Y-49832142D01*
X263416666Y-45727380D02*
X263083333Y-45251190D01*
X262845238Y-45727380D02*
X262845238Y-44727380D01*
X263226190Y-44727380D01*
X263321428Y-44775000D01*
X263369047Y-44822619D01*
X263416666Y-44917857D01*
X263416666Y-45060714D01*
X263369047Y-45155952D01*
X263321428Y-45203571D01*
X263226190Y-45251190D01*
X262845238Y-45251190D01*
X263845238Y-45203571D02*
X264178571Y-45203571D01*
X264321428Y-45727380D02*
X263845238Y-45727380D01*
X263845238Y-44727380D01*
X264321428Y-44727380D01*
X265083333Y-45203571D02*
X264750000Y-45203571D01*
X264750000Y-45727380D02*
X264750000Y-44727380D01*
X265226190Y-44727380D01*
X265750000Y-44727380D02*
X265750000Y-44965476D01*
X265511904Y-44870238D02*
X265750000Y-44965476D01*
X265988095Y-44870238D01*
X265607142Y-45155952D02*
X265750000Y-44965476D01*
X265892857Y-45155952D01*
X266511904Y-44727380D02*
X266511904Y-44965476D01*
X266273809Y-44870238D02*
X266511904Y-44965476D01*
X266750000Y-44870238D01*
X266369047Y-45155952D02*
X266511904Y-44965476D01*
X266654761Y-45155952D01*
X255330952Y-83427380D02*
X255330952Y-82427380D01*
X255664285Y-83141666D01*
X255997619Y-82427380D01*
X255997619Y-83427380D01*
X256616666Y-83427380D02*
X256521428Y-83379761D01*
X256473809Y-83332142D01*
X256426190Y-83236904D01*
X256426190Y-82951190D01*
X256473809Y-82855952D01*
X256521428Y-82808333D01*
X256616666Y-82760714D01*
X256759523Y-82760714D01*
X256854761Y-82808333D01*
X256902380Y-82855952D01*
X256950000Y-82951190D01*
X256950000Y-83236904D01*
X256902380Y-83332142D01*
X256854761Y-83379761D01*
X256759523Y-83427380D01*
X256616666Y-83427380D01*
X257807142Y-82760714D02*
X257807142Y-83427380D01*
X257378571Y-82760714D02*
X257378571Y-83284523D01*
X257426190Y-83379761D01*
X257521428Y-83427380D01*
X257664285Y-83427380D01*
X257759523Y-83379761D01*
X257807142Y-83332142D01*
X258283333Y-82760714D02*
X258283333Y-83427380D01*
X258283333Y-82855952D02*
X258330952Y-82808333D01*
X258426190Y-82760714D01*
X258569047Y-82760714D01*
X258664285Y-82808333D01*
X258711904Y-82903571D01*
X258711904Y-83427380D01*
X259045238Y-82760714D02*
X259426190Y-82760714D01*
X259188095Y-82427380D02*
X259188095Y-83284523D01*
X259235714Y-83379761D01*
X259330952Y-83427380D01*
X259426190Y-83427380D01*
X259759523Y-83427380D02*
X259759523Y-82760714D01*
X259759523Y-82427380D02*
X259711904Y-82475000D01*
X259759523Y-82522619D01*
X259807142Y-82475000D01*
X259759523Y-82427380D01*
X259759523Y-82522619D01*
X260235714Y-82760714D02*
X260235714Y-83427380D01*
X260235714Y-82855952D02*
X260283333Y-82808333D01*
X260378571Y-82760714D01*
X260521428Y-82760714D01*
X260616666Y-82808333D01*
X260664285Y-82903571D01*
X260664285Y-83427380D01*
X261569047Y-82760714D02*
X261569047Y-83570238D01*
X261521428Y-83665476D01*
X261473809Y-83713095D01*
X261378571Y-83760714D01*
X261235714Y-83760714D01*
X261140476Y-83713095D01*
X261569047Y-83379761D02*
X261473809Y-83427380D01*
X261283333Y-83427380D01*
X261188095Y-83379761D01*
X261140476Y-83332142D01*
X261092857Y-83236904D01*
X261092857Y-82951190D01*
X261140476Y-82855952D01*
X261188095Y-82808333D01*
X261283333Y-82760714D01*
X261473809Y-82760714D01*
X261569047Y-82808333D01*
X262045238Y-83427380D02*
X262045238Y-82427380D01*
X262045238Y-82903571D02*
X262616666Y-82903571D01*
X262616666Y-83427380D02*
X262616666Y-82427380D01*
X263235714Y-83427380D02*
X263140476Y-83379761D01*
X263092857Y-83332142D01*
X263045238Y-83236904D01*
X263045238Y-82951190D01*
X263092857Y-82855952D01*
X263140476Y-82808333D01*
X263235714Y-82760714D01*
X263378571Y-82760714D01*
X263473809Y-82808333D01*
X263521428Y-82855952D01*
X263569047Y-82951190D01*
X263569047Y-83236904D01*
X263521428Y-83332142D01*
X263473809Y-83379761D01*
X263378571Y-83427380D01*
X263235714Y-83427380D01*
X264140476Y-83427380D02*
X264045238Y-83379761D01*
X263997619Y-83284523D01*
X263997619Y-82427380D01*
X264902380Y-83379761D02*
X264807142Y-83427380D01*
X264616666Y-83427380D01*
X264521428Y-83379761D01*
X264473809Y-83284523D01*
X264473809Y-82903571D01*
X264521428Y-82808333D01*
X264616666Y-82760714D01*
X264807142Y-82760714D01*
X264902380Y-82808333D01*
X264950000Y-82903571D01*
X264950000Y-82998809D01*
X264473809Y-83094047D01*
X265140476Y-83522619D02*
X265902380Y-83522619D01*
X266045238Y-82427380D02*
X266664285Y-82427380D01*
X266330952Y-82808333D01*
X266473809Y-82808333D01*
X266569047Y-82855952D01*
X266616666Y-82903571D01*
X266664285Y-82998809D01*
X266664285Y-83236904D01*
X266616666Y-83332142D01*
X266569047Y-83379761D01*
X266473809Y-83427380D01*
X266188095Y-83427380D01*
X266092857Y-83379761D01*
X266045238Y-83332142D01*
X267092857Y-83332142D02*
X267140476Y-83379761D01*
X267092857Y-83427380D01*
X267045238Y-83379761D01*
X267092857Y-83332142D01*
X267092857Y-83427380D01*
X267521428Y-82522619D02*
X267569047Y-82475000D01*
X267664285Y-82427380D01*
X267902380Y-82427380D01*
X267997619Y-82475000D01*
X268045238Y-82522619D01*
X268092857Y-82617857D01*
X268092857Y-82713095D01*
X268045238Y-82855952D01*
X267473809Y-83427380D01*
X268092857Y-83427380D01*
X268521428Y-83427380D02*
X268521428Y-82760714D01*
X268521428Y-82855952D02*
X268569047Y-82808333D01*
X268664285Y-82760714D01*
X268807142Y-82760714D01*
X268902380Y-82808333D01*
X268950000Y-82903571D01*
X268950000Y-83427380D01*
X268950000Y-82903571D02*
X268997619Y-82808333D01*
X269092857Y-82760714D01*
X269235714Y-82760714D01*
X269330952Y-82808333D01*
X269378571Y-82903571D01*
X269378571Y-83427380D01*
X269854761Y-83427380D02*
X269854761Y-82760714D01*
X269854761Y-82855952D02*
X269902380Y-82808333D01*
X269997619Y-82760714D01*
X270140476Y-82760714D01*
X270235714Y-82808333D01*
X270283333Y-82903571D01*
X270283333Y-83427380D01*
X270283333Y-82903571D02*
X270330952Y-82808333D01*
X270426190Y-82760714D01*
X270569047Y-82760714D01*
X270664285Y-82808333D01*
X270711904Y-82903571D01*
X270711904Y-83427380D01*
X270950000Y-83522619D02*
X271711904Y-83522619D01*
X271950000Y-83427380D02*
X271950000Y-82427380D01*
X272283333Y-83141666D01*
X272616666Y-82427380D01*
X272616666Y-83427380D01*
X272997619Y-82427380D02*
X273616666Y-82427380D01*
X273283333Y-82808333D01*
X273426190Y-82808333D01*
X273521428Y-82855952D01*
X273569047Y-82903571D01*
X273616666Y-82998809D01*
X273616666Y-83236904D01*
X273569047Y-83332142D01*
X273521428Y-83379761D01*
X273426190Y-83427380D01*
X273140476Y-83427380D01*
X273045238Y-83379761D01*
X272997619Y-83332142D01*
X263416666Y-79227380D02*
X263083333Y-78751190D01*
X262845238Y-79227380D02*
X262845238Y-78227380D01*
X263226190Y-78227380D01*
X263321428Y-78275000D01*
X263369047Y-78322619D01*
X263416666Y-78417857D01*
X263416666Y-78560714D01*
X263369047Y-78655952D01*
X263321428Y-78703571D01*
X263226190Y-78751190D01*
X262845238Y-78751190D01*
X263845238Y-78703571D02*
X264178571Y-78703571D01*
X264321428Y-79227380D02*
X263845238Y-79227380D01*
X263845238Y-78227380D01*
X264321428Y-78227380D01*
X265083333Y-78703571D02*
X264750000Y-78703571D01*
X264750000Y-79227380D02*
X264750000Y-78227380D01*
X265226190Y-78227380D01*
X265750000Y-78227380D02*
X265750000Y-78465476D01*
X265511904Y-78370238D02*
X265750000Y-78465476D01*
X265988095Y-78370238D01*
X265607142Y-78655952D02*
X265750000Y-78465476D01*
X265892857Y-78655952D01*
X266511904Y-78227380D02*
X266511904Y-78465476D01*
X266273809Y-78370238D02*
X266511904Y-78465476D01*
X266750000Y-78370238D01*
X266369047Y-78655952D02*
X266511904Y-78465476D01*
X266654761Y-78655952D01*
G04 #@! TD*
M02*
