G04 #@! TF.GenerationSoftware,KiCad,Pcbnew,(5.0.0)*
G04 #@! TF.CreationDate,2018-07-31T12:07:49+01:00*
G04 #@! TF.ProjectId,blanking,626C616E6B696E672E6B696361645F70,rev?*
G04 #@! TF.SameCoordinates,Original*
G04 #@! TF.FileFunction,Other,User*
%FSLAX46Y46*%
G04 Gerber Fmt 4.6, Leading zero omitted, Abs format (unit mm)*
G04 Created by KiCad (PCBNEW (5.0.0)) date 07/31/18 12:07:49*
%MOMM*%
%LPD*%
G01*
G04 APERTURE LIST*
%ADD10C,0.050000*%
G04 APERTURE END LIST*
D10*
G04 #@! TO.C,J8_Green_Enab*
X238950000Y-59375000D02*
X246000000Y-59375000D01*
X246000000Y-59375000D02*
X246000000Y-68275000D01*
X246000000Y-68275000D02*
X238950000Y-68275000D01*
X238950000Y-68275000D02*
X238950000Y-59375000D01*
G04 #@! TO.C,J12_green_blank*
X238700000Y-46625000D02*
X245750000Y-46625000D01*
X245750000Y-46625000D02*
X245750000Y-55525000D01*
X245750000Y-55525000D02*
X238700000Y-55525000D01*
X238700000Y-55525000D02*
X238700000Y-46625000D01*
G04 #@! TO.C,U2*
X213230000Y-74765000D02*
X213230000Y-78285000D01*
X213230000Y-74765000D02*
X209680000Y-74765000D01*
X209680000Y-78285000D02*
X213230000Y-78285000D01*
X209680000Y-78285000D02*
X209680000Y-74765000D01*
G04 #@! TO.C,J1_Blue_enab*
X197850000Y-72175000D02*
X204900000Y-72175000D01*
X204900000Y-72175000D02*
X204900000Y-81075000D01*
X204900000Y-81075000D02*
X197850000Y-81075000D01*
X197850000Y-81075000D02*
X197850000Y-72175000D01*
G04 #@! TO.C,J2_Green_PWM*
X238950000Y-72125000D02*
X246000000Y-72125000D01*
X246000000Y-72125000D02*
X246000000Y-81025000D01*
X246000000Y-81025000D02*
X238950000Y-81025000D01*
X238950000Y-81025000D02*
X238950000Y-72125000D01*
G04 #@! TO.C,J3_Red_PWM*
X218450000Y-72125000D02*
X225500000Y-72125000D01*
X225500000Y-72125000D02*
X225500000Y-81025000D01*
X225500000Y-81025000D02*
X218450000Y-81025000D01*
X218450000Y-81025000D02*
X218450000Y-72125000D01*
G04 #@! TO.C,J5*
X250050000Y-58725000D02*
X250050000Y-68325000D01*
X250050000Y-68325000D02*
X267350000Y-68325000D01*
X267350000Y-68325000D02*
X267350000Y-58725000D01*
X267350000Y-58725000D02*
X250050000Y-58725000D01*
G04 #@! TO.C,J6_Blue_Enab*
X197850000Y-59375000D02*
X204900000Y-59375000D01*
X204900000Y-59375000D02*
X204900000Y-68275000D01*
X204900000Y-68275000D02*
X197850000Y-68275000D01*
X197850000Y-68275000D02*
X197850000Y-59375000D01*
G04 #@! TO.C,J7_Red_enab*
X218450000Y-59375000D02*
X225500000Y-59375000D01*
X225500000Y-59375000D02*
X225500000Y-68275000D01*
X225500000Y-68275000D02*
X218450000Y-68275000D01*
X218450000Y-68275000D02*
X218450000Y-59375000D01*
G04 #@! TO.C,J9*
X251900000Y-46275000D02*
X258950000Y-46275000D01*
X258950000Y-46275000D02*
X258950000Y-52625000D01*
X258950000Y-52625000D02*
X251900000Y-52625000D01*
X251900000Y-52625000D02*
X251900000Y-46275000D01*
G04 #@! TO.C,J10_red_blank*
X218450000Y-46625000D02*
X225500000Y-46625000D01*
X225500000Y-46625000D02*
X225500000Y-55525000D01*
X225500000Y-55525000D02*
X218450000Y-55525000D01*
X218450000Y-55525000D02*
X218450000Y-46625000D01*
G04 #@! TO.C,J11_blue_blank*
X197850000Y-46575000D02*
X204900000Y-46575000D01*
X204900000Y-46575000D02*
X204900000Y-55475000D01*
X204900000Y-55475000D02*
X197850000Y-55475000D01*
X197850000Y-55475000D02*
X197850000Y-46575000D01*
G04 #@! TO.C,J13*
X175250000Y-58775000D02*
X182300000Y-58775000D01*
X182300000Y-58775000D02*
X182300000Y-70175000D01*
X182300000Y-70175000D02*
X175250000Y-70175000D01*
X175250000Y-70175000D02*
X175250000Y-58775000D01*
G04 #@! TO.C,J14_inv_vcc*
X252030000Y-81045000D02*
X252030000Y-75465000D01*
X252030000Y-81045000D02*
X258870000Y-81045000D01*
X258870000Y-75465000D02*
X252030000Y-75465000D01*
X258870000Y-75465000D02*
X258870000Y-81045000D01*
G04 #@! TO.C,Q1*
X235680000Y-59515000D02*
X235680000Y-66615000D01*
X235680000Y-59515000D02*
X230940000Y-59515000D01*
X230940000Y-66615000D02*
X235680000Y-66615000D01*
X230940000Y-66615000D02*
X230940000Y-59515000D01*
G04 #@! TO.C,Q2*
X193680000Y-59665000D02*
X193680000Y-66765000D01*
X193680000Y-59665000D02*
X188940000Y-59665000D01*
X188940000Y-66765000D02*
X193680000Y-66765000D01*
X188940000Y-66765000D02*
X188940000Y-59665000D01*
G04 #@! TO.C,Q3*
X214680000Y-59515000D02*
X214680000Y-66615000D01*
X214680000Y-59515000D02*
X209940000Y-59515000D01*
X209940000Y-66615000D02*
X214680000Y-66615000D01*
X209940000Y-66615000D02*
X209940000Y-59515000D01*
G04 #@! TO.C,Q4*
X235680000Y-47015000D02*
X235680000Y-54115000D01*
X235680000Y-47015000D02*
X230940000Y-47015000D01*
X230940000Y-54115000D02*
X235680000Y-54115000D01*
X230940000Y-54115000D02*
X230940000Y-47015000D01*
G04 #@! TO.C,Q5*
X214680000Y-47015000D02*
X214680000Y-54115000D01*
X214680000Y-47015000D02*
X209940000Y-47015000D01*
X209940000Y-54115000D02*
X214680000Y-54115000D01*
X209940000Y-54115000D02*
X209940000Y-47015000D01*
G04 #@! TO.C,Q6*
X193680000Y-47065000D02*
X193680000Y-54165000D01*
X193680000Y-47065000D02*
X188940000Y-47065000D01*
X188940000Y-54165000D02*
X193680000Y-54165000D01*
X188940000Y-54165000D02*
X188940000Y-47065000D01*
G04 #@! TO.C,R1 270*
X188800000Y-68525000D02*
X188800000Y-70825000D01*
X188800000Y-70825000D02*
X193500000Y-70825000D01*
X193500000Y-70825000D02*
X193500000Y-68525000D01*
X193500000Y-68525000D02*
X188800000Y-68525000D01*
G04 #@! TO.C,R2 270*
X209800000Y-68375000D02*
X209800000Y-70675000D01*
X209800000Y-70675000D02*
X214500000Y-70675000D01*
X214500000Y-70675000D02*
X214500000Y-68375000D01*
X214500000Y-68375000D02*
X209800000Y-68375000D01*
G04 #@! TO.C,R3 270*
X230800000Y-68125000D02*
X230800000Y-70425000D01*
X230800000Y-70425000D02*
X235500000Y-70425000D01*
X235500000Y-70425000D02*
X235500000Y-68125000D01*
X235500000Y-68125000D02*
X230800000Y-68125000D01*
G04 #@! TO.C,R4 270*
X235350000Y-44925000D02*
X235350000Y-42625000D01*
X235350000Y-42625000D02*
X230650000Y-42625000D01*
X230650000Y-42625000D02*
X230650000Y-44925000D01*
X230650000Y-44925000D02*
X235350000Y-44925000D01*
G04 #@! TO.C,R5 270*
X189000000Y-42925000D02*
X189000000Y-45225000D01*
X189000000Y-45225000D02*
X193700000Y-45225000D01*
X193700000Y-45225000D02*
X193700000Y-42925000D01*
X193700000Y-42925000D02*
X189000000Y-42925000D01*
G04 #@! TO.C,R6 270*
X210200000Y-42725000D02*
X210200000Y-45025000D01*
X210200000Y-45025000D02*
X214900000Y-45025000D01*
X214900000Y-45025000D02*
X214900000Y-42725000D01*
X214900000Y-42725000D02*
X210200000Y-42725000D01*
G04 #@! TO.C,U1*
X192930000Y-74715000D02*
X192930000Y-78235000D01*
X192930000Y-74715000D02*
X189380000Y-74715000D01*
X189380000Y-78235000D02*
X192930000Y-78235000D01*
X189380000Y-78235000D02*
X189380000Y-74715000D01*
G04 #@! TO.C,U3*
X233980000Y-74765000D02*
X233980000Y-78285000D01*
X233980000Y-74765000D02*
X230430000Y-74765000D01*
X230430000Y-78285000D02*
X233980000Y-78285000D01*
X230430000Y-78285000D02*
X230430000Y-74765000D01*
G04 #@! TO.C,REF\002A\002A*
X181400000Y-45275000D02*
G75*
G03X181400000Y-45275000I-3450000J0D01*
G01*
X181400000Y-78775000D02*
G75*
G03X181400000Y-78775000I-3450000J0D01*
G01*
X267900000Y-45275000D02*
G75*
G03X267900000Y-45275000I-3450000J0D01*
G01*
X267900000Y-78775000D02*
G75*
G03X267900000Y-78775000I-3450000J0D01*
G01*
G04 #@! TD*
M02*
