G04 #@! TF.GenerationSoftware,KiCad,Pcbnew,(5.0.0)*
G04 #@! TF.CreationDate,2018-07-31T12:07:49+01:00*
G04 #@! TF.ProjectId,blanking,626C616E6B696E672E6B696361645F70,rev?*
G04 #@! TF.SameCoordinates,Original*
G04 #@! TF.FileFunction,Soldermask,Bot*
G04 #@! TF.FilePolarity,Negative*
%FSLAX46Y46*%
G04 Gerber Fmt 4.6, Leading zero omitted, Abs format (unit mm)*
G04 Created by KiCad (PCBNEW (5.0.0)) date 07/31/18 12:07:49*
%MOMM*%
%LPD*%
G01*
G04 APERTURE LIST*
%ADD10R,3.000000X2.400000*%
%ADD11O,3.000000X2.400000*%
%ADD12R,1.700000X1.700000*%
%ADD13C,1.700000*%
%ADD14O,3.410000X1.910000*%
%ADD15C,1.920000*%
%ADD16R,1.920000X1.920000*%
%ADD17C,1.800000*%
%ADD18O,1.800000X1.800000*%
%ADD19C,3.600000*%
G04 APERTURE END LIST*
D10*
G04 #@! TO.C,J8_Green_Enab*
X242450000Y-61275000D03*
D11*
X242450000Y-63815000D03*
X242450000Y-66355000D03*
G04 #@! TD*
D10*
G04 #@! TO.C,J12_green_blank*
X242200000Y-48525000D03*
D11*
X242200000Y-51065000D03*
X242200000Y-53605000D03*
G04 #@! TD*
D10*
G04 #@! TO.C,J1_Blue_enab*
X201350000Y-74075000D03*
D11*
X201350000Y-76615000D03*
X201350000Y-79155000D03*
G04 #@! TD*
D10*
G04 #@! TO.C,J2_Green_PWM*
X242450000Y-74025000D03*
D11*
X242450000Y-76565000D03*
X242450000Y-79105000D03*
G04 #@! TD*
D10*
G04 #@! TO.C,J3_Red_PWM*
X221950000Y-74025000D03*
D11*
X221950000Y-76565000D03*
X221950000Y-79105000D03*
G04 #@! TD*
D12*
G04 #@! TO.C,J5*
X252700000Y-63275000D03*
D13*
X254700000Y-63275000D03*
X256700000Y-63275000D03*
X258700000Y-63275000D03*
X260700000Y-63275000D03*
X262700000Y-63275000D03*
X264700000Y-63275000D03*
X252700000Y-65275000D03*
X254700000Y-65275000D03*
X256700000Y-65275000D03*
X258700000Y-65275000D03*
X260700000Y-65275000D03*
X262700000Y-65275000D03*
X264700000Y-65275000D03*
G04 #@! TD*
D10*
G04 #@! TO.C,J6_Blue_Enab*
X201350000Y-61275000D03*
D11*
X201350000Y-63815000D03*
X201350000Y-66355000D03*
G04 #@! TD*
D10*
G04 #@! TO.C,J7_Red_enab*
X221950000Y-61275000D03*
D11*
X221950000Y-63815000D03*
X221950000Y-66355000D03*
G04 #@! TD*
D10*
G04 #@! TO.C,J9*
X255400000Y-48175000D03*
D11*
X255400000Y-50715000D03*
G04 #@! TD*
D10*
G04 #@! TO.C,J10_red_blank*
X221950000Y-48525000D03*
D11*
X221950000Y-51065000D03*
X221950000Y-53605000D03*
G04 #@! TD*
D10*
G04 #@! TO.C,J11_blue_blank*
X201350000Y-48475000D03*
D11*
X201350000Y-51015000D03*
X201350000Y-53555000D03*
G04 #@! TD*
D10*
G04 #@! TO.C,J13*
X178750000Y-60675000D03*
D11*
X178750000Y-63215000D03*
X178750000Y-65755000D03*
X178750000Y-68295000D03*
G04 #@! TD*
D14*
G04 #@! TO.C,J14_inv_vcc*
X255450000Y-79525000D03*
X255450000Y-76985000D03*
G04 #@! TD*
D15*
G04 #@! TO.C,Q1*
X232950000Y-63065000D03*
X232950000Y-65605000D03*
D16*
X232950000Y-60525000D03*
G04 #@! TD*
D15*
G04 #@! TO.C,Q2*
X190950000Y-63215000D03*
X190950000Y-65755000D03*
D16*
X190950000Y-60675000D03*
G04 #@! TD*
D15*
G04 #@! TO.C,Q3*
X211950000Y-63065000D03*
X211950000Y-65605000D03*
D16*
X211950000Y-60525000D03*
G04 #@! TD*
D15*
G04 #@! TO.C,Q4*
X232950000Y-50565000D03*
X232950000Y-53105000D03*
D16*
X232950000Y-48025000D03*
G04 #@! TD*
D15*
G04 #@! TO.C,Q5*
X211950000Y-50565000D03*
X211950000Y-53105000D03*
D16*
X211950000Y-48025000D03*
G04 #@! TD*
D15*
G04 #@! TO.C,Q6*
X190950000Y-50615000D03*
X190950000Y-53155000D03*
D16*
X190950000Y-48075000D03*
G04 #@! TD*
D17*
G04 #@! TO.C,R1 270*
X189950000Y-69675000D03*
D18*
X192490000Y-69675000D03*
G04 #@! TD*
D17*
G04 #@! TO.C,R2 270*
X210950000Y-69525000D03*
D18*
X213490000Y-69525000D03*
G04 #@! TD*
D17*
G04 #@! TO.C,R3 270*
X231950000Y-69275000D03*
D18*
X234490000Y-69275000D03*
G04 #@! TD*
D17*
G04 #@! TO.C,R4 270*
X234200000Y-43775000D03*
D18*
X231660000Y-43775000D03*
G04 #@! TD*
D17*
G04 #@! TO.C,R5 270*
X190150000Y-44075000D03*
D18*
X192690000Y-44075000D03*
G04 #@! TD*
D17*
G04 #@! TO.C,R6 270*
X211350000Y-43875000D03*
D18*
X213890000Y-43875000D03*
G04 #@! TD*
D19*
G04 #@! TO.C,REF\002A\002A*
X177950000Y-45275000D03*
G04 #@! TD*
G04 #@! TO.C,REF\002A\002A*
X177950000Y-78775000D03*
G04 #@! TD*
G04 #@! TO.C,REF\002A\002A*
X264450000Y-45275000D03*
G04 #@! TD*
G04 #@! TO.C,REF\002A\002A*
X264450000Y-78775000D03*
G04 #@! TD*
M02*
