G04 #@! TF.GenerationSoftware,KiCad,Pcbnew,(5.0.0)*
G04 #@! TF.CreationDate,2018-08-01T11:46:43+01:00*
G04 #@! TF.ProjectId,blanking,626C616E6B696E672E6B696361645F70,rev?*
G04 #@! TF.SameCoordinates,Original*
G04 #@! TF.FileFunction,Other,ECO2*
%FSLAX46Y46*%
G04 Gerber Fmt 4.6, Leading zero omitted, Abs format (unit mm)*
G04 Created by KiCad (PCBNEW (5.0.0)) date 08/01/18 11:46:43*
%MOMM*%
%LPD*%
G01*
G04 APERTURE LIST*
%ADD10C,0.300000*%
G04 APERTURE END LIST*
D10*
X276371428Y-56525000D02*
X275371428Y-56525000D01*
X276942857Y-56167857D02*
X275871428Y-55810714D01*
X275871428Y-56739285D01*
X276728571Y-57239285D02*
X276800000Y-57310714D01*
X276871428Y-57453571D01*
X276871428Y-57810714D01*
X276800000Y-57953571D01*
X276728571Y-58025000D01*
X276585714Y-58096428D01*
X276442857Y-58096428D01*
X276228571Y-58025000D01*
X275371428Y-57167857D01*
X275371428Y-58096428D01*
X275514285Y-58739285D02*
X275442857Y-58810714D01*
X275371428Y-58739285D01*
X275442857Y-58667857D01*
X275514285Y-58739285D01*
X275371428Y-58739285D01*
X276871428Y-60167857D02*
X276871428Y-59453571D01*
X276157142Y-59382142D01*
X276228571Y-59453571D01*
X276300000Y-59596428D01*
X276300000Y-59953571D01*
X276228571Y-60096428D01*
X276157142Y-60167857D01*
X276014285Y-60239285D01*
X275657142Y-60239285D01*
X275514285Y-60167857D01*
X275442857Y-60096428D01*
X275371428Y-59953571D01*
X275371428Y-59596428D01*
X275442857Y-59453571D01*
X275514285Y-59382142D01*
X276871428Y-61167857D02*
X276871428Y-61310714D01*
X276800000Y-61453571D01*
X276728571Y-61525000D01*
X276585714Y-61596428D01*
X276300000Y-61667857D01*
X275942857Y-61667857D01*
X275657142Y-61596428D01*
X275514285Y-61525000D01*
X275442857Y-61453571D01*
X275371428Y-61310714D01*
X275371428Y-61167857D01*
X275442857Y-61025000D01*
X275514285Y-60953571D01*
X275657142Y-60882142D01*
X275942857Y-60810714D01*
X276300000Y-60810714D01*
X276585714Y-60882142D01*
X276728571Y-60953571D01*
X276800000Y-61025000D01*
X276871428Y-61167857D01*
X276871428Y-62596428D02*
X276871428Y-62739285D01*
X276800000Y-62882142D01*
X276728571Y-62953571D01*
X276585714Y-63025000D01*
X276300000Y-63096428D01*
X275942857Y-63096428D01*
X275657142Y-63025000D01*
X275514285Y-62953571D01*
X275442857Y-62882142D01*
X275371428Y-62739285D01*
X275371428Y-62596428D01*
X275442857Y-62453571D01*
X275514285Y-62382142D01*
X275657142Y-62310714D01*
X275942857Y-62239285D01*
X276300000Y-62239285D01*
X276585714Y-62310714D01*
X276728571Y-62382142D01*
X276800000Y-62453571D01*
X276871428Y-62596428D01*
X275371428Y-64882142D02*
X276371428Y-64882142D01*
X276228571Y-64882142D02*
X276300000Y-64953571D01*
X276371428Y-65096428D01*
X276371428Y-65310714D01*
X276300000Y-65453571D01*
X276157142Y-65525000D01*
X275371428Y-65525000D01*
X276157142Y-65525000D02*
X276300000Y-65596428D01*
X276371428Y-65739285D01*
X276371428Y-65953571D01*
X276300000Y-66096428D01*
X276157142Y-66167857D01*
X275371428Y-66167857D01*
X275371428Y-66882142D02*
X276371428Y-66882142D01*
X276228571Y-66882142D02*
X276300000Y-66953571D01*
X276371428Y-67096428D01*
X276371428Y-67310714D01*
X276300000Y-67453571D01*
X276157142Y-67525000D01*
X275371428Y-67525000D01*
X276157142Y-67525000D02*
X276300000Y-67596428D01*
X276371428Y-67739285D01*
X276371428Y-67953571D01*
X276300000Y-68096428D01*
X276157142Y-68167857D01*
X275371428Y-68167857D01*
X273950000Y-40775000D02*
X273950000Y-83275000D01*
X269950000Y-40775000D02*
X274536421Y-40775000D01*
X269950000Y-83275000D02*
X274536421Y-83275000D01*
X273950000Y-83275000D02*
X273363579Y-82148496D01*
X273950000Y-83275000D02*
X274536421Y-82148496D01*
X273950000Y-40775000D02*
X273363579Y-41901504D01*
X273950000Y-40775000D02*
X274536421Y-41901504D01*
X215378571Y-29353571D02*
X215664285Y-29353571D01*
X215807142Y-29282142D01*
X215878571Y-29210714D01*
X216021428Y-28996428D01*
X216092857Y-28710714D01*
X216092857Y-28139285D01*
X216021428Y-27996428D01*
X215950000Y-27925000D01*
X215807142Y-27853571D01*
X215521428Y-27853571D01*
X215378571Y-27925000D01*
X215307142Y-27996428D01*
X215235714Y-28139285D01*
X215235714Y-28496428D01*
X215307142Y-28639285D01*
X215378571Y-28710714D01*
X215521428Y-28782142D01*
X215807142Y-28782142D01*
X215950000Y-28710714D01*
X216021428Y-28639285D01*
X216092857Y-28496428D01*
X217378571Y-27853571D02*
X217092857Y-27853571D01*
X216950000Y-27925000D01*
X216878571Y-27996428D01*
X216735714Y-28210714D01*
X216664285Y-28496428D01*
X216664285Y-29067857D01*
X216735714Y-29210714D01*
X216807142Y-29282142D01*
X216950000Y-29353571D01*
X217235714Y-29353571D01*
X217378571Y-29282142D01*
X217450000Y-29210714D01*
X217521428Y-29067857D01*
X217521428Y-28710714D01*
X217450000Y-28567857D01*
X217378571Y-28496428D01*
X217235714Y-28425000D01*
X216950000Y-28425000D01*
X216807142Y-28496428D01*
X216735714Y-28567857D01*
X216664285Y-28710714D01*
X218164285Y-29210714D02*
X218235714Y-29282142D01*
X218164285Y-29353571D01*
X218092857Y-29282142D01*
X218164285Y-29210714D01*
X218164285Y-29353571D01*
X219164285Y-27853571D02*
X219307142Y-27853571D01*
X219450000Y-27925000D01*
X219521428Y-27996428D01*
X219592857Y-28139285D01*
X219664285Y-28425000D01*
X219664285Y-28782142D01*
X219592857Y-29067857D01*
X219521428Y-29210714D01*
X219450000Y-29282142D01*
X219307142Y-29353571D01*
X219164285Y-29353571D01*
X219021428Y-29282142D01*
X218950000Y-29210714D01*
X218878571Y-29067857D01*
X218807142Y-28782142D01*
X218807142Y-28425000D01*
X218878571Y-28139285D01*
X218950000Y-27996428D01*
X219021428Y-27925000D01*
X219164285Y-27853571D01*
X220592857Y-27853571D02*
X220735714Y-27853571D01*
X220878571Y-27925000D01*
X220950000Y-27996428D01*
X221021428Y-28139285D01*
X221092857Y-28425000D01*
X221092857Y-28782142D01*
X221021428Y-29067857D01*
X220950000Y-29210714D01*
X220878571Y-29282142D01*
X220735714Y-29353571D01*
X220592857Y-29353571D01*
X220450000Y-29282142D01*
X220378571Y-29210714D01*
X220307142Y-29067857D01*
X220235714Y-28782142D01*
X220235714Y-28425000D01*
X220307142Y-28139285D01*
X220378571Y-27996428D01*
X220450000Y-27925000D01*
X220592857Y-27853571D01*
X222021428Y-27853571D02*
X222164285Y-27853571D01*
X222307142Y-27925000D01*
X222378571Y-27996428D01*
X222450000Y-28139285D01*
X222521428Y-28425000D01*
X222521428Y-28782142D01*
X222450000Y-29067857D01*
X222378571Y-29210714D01*
X222307142Y-29282142D01*
X222164285Y-29353571D01*
X222021428Y-29353571D01*
X221878571Y-29282142D01*
X221807142Y-29210714D01*
X221735714Y-29067857D01*
X221664285Y-28782142D01*
X221664285Y-28425000D01*
X221735714Y-28139285D01*
X221807142Y-27996428D01*
X221878571Y-27925000D01*
X222021428Y-27853571D01*
X224307142Y-29353571D02*
X224307142Y-28353571D01*
X224307142Y-28496428D02*
X224378571Y-28425000D01*
X224521428Y-28353571D01*
X224735714Y-28353571D01*
X224878571Y-28425000D01*
X224950000Y-28567857D01*
X224950000Y-29353571D01*
X224950000Y-28567857D02*
X225021428Y-28425000D01*
X225164285Y-28353571D01*
X225378571Y-28353571D01*
X225521428Y-28425000D01*
X225592857Y-28567857D01*
X225592857Y-29353571D01*
X226307142Y-29353571D02*
X226307142Y-28353571D01*
X226307142Y-28496428D02*
X226378571Y-28425000D01*
X226521428Y-28353571D01*
X226735714Y-28353571D01*
X226878571Y-28425000D01*
X226950000Y-28567857D01*
X226950000Y-29353571D01*
X226950000Y-28567857D02*
X227021428Y-28425000D01*
X227164285Y-28353571D01*
X227378571Y-28353571D01*
X227521428Y-28425000D01*
X227592857Y-28567857D01*
X227592857Y-29353571D01*
X173450000Y-30775000D02*
X269450000Y-30775000D01*
X173450000Y-40275000D02*
X173450000Y-30188579D01*
X269450000Y-40275000D02*
X269450000Y-30188579D01*
X269450000Y-30775000D02*
X268323496Y-31361421D01*
X269450000Y-30775000D02*
X268323496Y-30188579D01*
X173450000Y-30775000D02*
X174576504Y-31361421D01*
X173450000Y-30775000D02*
X174576504Y-30188579D01*
M02*
