M48
;DRILL file {KiCad (5.0.0)} date 08/01/18 11:46:48
;FORMAT={-:-/ absolute / metric / decimal}
FMAT,2
METRIC,TZ
T1C0.400
T2C0.700
T3C0.800
T4C1.000
T5C1.200
%
G90
G05
M71
T1
X190.15Y-74.275
X190.55Y-79.875
X209.55Y-76.075
X210.95Y-79.075
X229.95Y-75.675
X231.75Y-79.075
X242.35Y-69.075
X243.15Y-68.275
X245.75Y-69.075
X246.35Y-68.275
X250.35Y-69.875
X252.75Y-67.475
T2
X210.95Y-69.525
X213.49Y-69.525
X231.66Y-43.775
X234.2Y-43.775
X231.95Y-69.275
X234.49Y-69.275
X211.35Y-43.875
X213.89Y-43.875
X189.95Y-69.675
X192.49Y-69.675
X190.15Y-44.075
X192.69Y-44.075
T3
X232.95Y-48.025
X232.95Y-50.565
X232.95Y-53.105
X252.7Y-63.275
X252.7Y-65.275
X254.7Y-63.275
X254.7Y-65.275
X256.7Y-63.275
X256.7Y-65.275
X258.7Y-63.275
X258.7Y-65.275
X260.7Y-63.275
X260.7Y-65.275
X262.7Y-63.275
X262.7Y-65.275
X264.7Y-63.275
X264.7Y-65.275
X211.95Y-48.025
X211.95Y-50.565
X211.95Y-53.105
X190.95Y-60.675
X190.95Y-63.215
X190.95Y-65.755
X211.95Y-60.525
X211.95Y-63.065
X211.95Y-65.605
X190.95Y-48.075
X190.95Y-50.615
X190.95Y-53.155
X232.95Y-60.525
X232.95Y-63.065
X232.95Y-65.605
T4
X255.45Y-76.985
X255.45Y-79.525
T5
X221.95Y-48.525
X221.95Y-51.065
X221.95Y-53.605
X255.4Y-48.175
X255.4Y-50.715
X178.75Y-60.675
X178.75Y-63.215
X178.75Y-65.755
X178.75Y-68.295
X201.35Y-61.275
X201.35Y-63.815
X201.35Y-66.355
X221.95Y-61.275
X221.95Y-63.815
X221.95Y-66.355
X201.35Y-74.075
X201.35Y-76.615
X201.35Y-79.155
X201.35Y-48.475
X201.35Y-51.015
X201.35Y-53.555
X242.45Y-74.025
X242.45Y-76.565
X242.45Y-79.105
X242.2Y-48.525
X242.2Y-51.065
X242.2Y-53.605
X242.45Y-61.275
X242.45Y-63.815
X242.45Y-66.355
X221.95Y-74.025
X221.95Y-76.565
X221.95Y-79.105
T0
M30
