G04 #@! TF.GenerationSoftware,KiCad,Pcbnew,(5.0.0)*
G04 #@! TF.CreationDate,2018-07-31T12:07:49+01:00*
G04 #@! TF.ProjectId,blanking,626C616E6B696E672E6B696361645F70,rev?*
G04 #@! TF.SameCoordinates,Original*
G04 #@! TF.FileFunction,Legend,Top*
G04 #@! TF.FilePolarity,Positive*
%FSLAX46Y46*%
G04 Gerber Fmt 4.6, Leading zero omitted, Abs format (unit mm)*
G04 Created by KiCad (PCBNEW (5.0.0)) date 07/31/18 12:07:49*
%MOMM*%
%LPD*%
G01*
G04 APERTURE LIST*
%ADD10C,0.300000*%
%ADD11C,0.120000*%
%ADD12C,0.150000*%
G04 APERTURE END LIST*
D10*
X183592857Y-66346428D02*
X183664285Y-66132142D01*
X183735714Y-66060714D01*
X183878571Y-65989285D01*
X184092857Y-65989285D01*
X184235714Y-66060714D01*
X184307142Y-66132142D01*
X184378571Y-66275000D01*
X184378571Y-66846428D01*
X182878571Y-66846428D01*
X182878571Y-66346428D01*
X182950000Y-66203571D01*
X183021428Y-66132142D01*
X183164285Y-66060714D01*
X183307142Y-66060714D01*
X183450000Y-66132142D01*
X183521428Y-66203571D01*
X183592857Y-66346428D01*
X183592857Y-66846428D01*
X184378571Y-64489285D02*
X183664285Y-64989285D01*
X184378571Y-65346428D02*
X182878571Y-65346428D01*
X182878571Y-64775000D01*
X182950000Y-64632142D01*
X183021428Y-64560714D01*
X183164285Y-64489285D01*
X183378571Y-64489285D01*
X183521428Y-64560714D01*
X183592857Y-64632142D01*
X183664285Y-64775000D01*
X183664285Y-65346428D01*
X182950000Y-63060714D02*
X182878571Y-63203571D01*
X182878571Y-63417857D01*
X182950000Y-63632142D01*
X183092857Y-63775000D01*
X183235714Y-63846428D01*
X183521428Y-63917857D01*
X183735714Y-63917857D01*
X184021428Y-63846428D01*
X184164285Y-63775000D01*
X184307142Y-63632142D01*
X184378571Y-63417857D01*
X184378571Y-63275000D01*
X184307142Y-63060714D01*
X184235714Y-62989285D01*
X183735714Y-62989285D01*
X183735714Y-63275000D01*
X183807142Y-62346428D02*
X183807142Y-61203571D01*
X260021428Y-50882142D02*
X258878571Y-50882142D01*
X259450000Y-51453571D02*
X259450000Y-50310714D01*
X260021428Y-48132142D02*
X258878571Y-48132142D01*
X258057142Y-77346428D02*
X258057142Y-76203571D01*
X257378571Y-79382142D02*
X258521428Y-79382142D01*
X257950000Y-79953571D02*
X257950000Y-78810714D01*
X249771428Y-70892857D02*
X249985714Y-70964285D01*
X250057142Y-71035714D01*
X250128571Y-71178571D01*
X250128571Y-71392857D01*
X250057142Y-71535714D01*
X249985714Y-71607142D01*
X249842857Y-71678571D01*
X249271428Y-71678571D01*
X249271428Y-70178571D01*
X249771428Y-70178571D01*
X249914285Y-70250000D01*
X249985714Y-70321428D01*
X250057142Y-70464285D01*
X250057142Y-70607142D01*
X249985714Y-70750000D01*
X249914285Y-70821428D01*
X249771428Y-70892857D01*
X249271428Y-70892857D01*
X250628571Y-70678571D02*
X250985714Y-71678571D01*
X251342857Y-70678571D02*
X250985714Y-71678571D01*
X250842857Y-72035714D01*
X250771428Y-72107142D01*
X250628571Y-72178571D01*
X252985714Y-71250000D02*
X253700000Y-71250000D01*
X252842857Y-71678571D02*
X253342857Y-70178571D01*
X253842857Y-71678571D01*
X254342857Y-71678571D02*
X254342857Y-70178571D01*
X254842857Y-71250000D01*
X255342857Y-70178571D01*
X255342857Y-71678571D01*
X258057142Y-71535714D02*
X257985714Y-71607142D01*
X257771428Y-71678571D01*
X257628571Y-71678571D01*
X257414285Y-71607142D01*
X257271428Y-71464285D01*
X257200000Y-71321428D01*
X257128571Y-71035714D01*
X257128571Y-70821428D01*
X257200000Y-70535714D01*
X257271428Y-70392857D01*
X257414285Y-70250000D01*
X257628571Y-70178571D01*
X257771428Y-70178571D01*
X257985714Y-70250000D01*
X258057142Y-70321428D01*
X258700000Y-71678571D02*
X258700000Y-70178571D01*
X259342857Y-71678571D02*
X259342857Y-70892857D01*
X259271428Y-70750000D01*
X259128571Y-70678571D01*
X258914285Y-70678571D01*
X258771428Y-70750000D01*
X258700000Y-70821428D01*
X260700000Y-71678571D02*
X260700000Y-70892857D01*
X260628571Y-70750000D01*
X260485714Y-70678571D01*
X260200000Y-70678571D01*
X260057142Y-70750000D01*
X260700000Y-71607142D02*
X260557142Y-71678571D01*
X260200000Y-71678571D01*
X260057142Y-71607142D01*
X259985714Y-71464285D01*
X259985714Y-71321428D01*
X260057142Y-71178571D01*
X260200000Y-71107142D01*
X260557142Y-71107142D01*
X260700000Y-71035714D01*
X262057142Y-70678571D02*
X262057142Y-71892857D01*
X261985714Y-72035714D01*
X261914285Y-72107142D01*
X261771428Y-72178571D01*
X261557142Y-72178571D01*
X261414285Y-72107142D01*
X262057142Y-71607142D02*
X261914285Y-71678571D01*
X261628571Y-71678571D01*
X261485714Y-71607142D01*
X261414285Y-71535714D01*
X261342857Y-71392857D01*
X261342857Y-70964285D01*
X261414285Y-70821428D01*
X261485714Y-70750000D01*
X261628571Y-70678571D01*
X261914285Y-70678571D01*
X262057142Y-70750000D01*
X263414285Y-71678571D02*
X263414285Y-70892857D01*
X263342857Y-70750000D01*
X263200000Y-70678571D01*
X262914285Y-70678571D01*
X262771428Y-70750000D01*
X263414285Y-71607142D02*
X263271428Y-71678571D01*
X262914285Y-71678571D01*
X262771428Y-71607142D01*
X262700000Y-71464285D01*
X262700000Y-71321428D01*
X262771428Y-71178571D01*
X262914285Y-71107142D01*
X263271428Y-71107142D01*
X263414285Y-71035714D01*
X264057142Y-71607142D02*
X264200000Y-71678571D01*
X264485714Y-71678571D01*
X264628571Y-71607142D01*
X264700000Y-71464285D01*
X264700000Y-71392857D01*
X264628571Y-71250000D01*
X264485714Y-71178571D01*
X264271428Y-71178571D01*
X264128571Y-71107142D01*
X264057142Y-70964285D01*
X264057142Y-70892857D01*
X264128571Y-70750000D01*
X264271428Y-70678571D01*
X264485714Y-70678571D01*
X264628571Y-70750000D01*
X251521428Y-72871428D02*
X251592857Y-72800000D01*
X251735714Y-72728571D01*
X252092857Y-72728571D01*
X252235714Y-72800000D01*
X252307142Y-72871428D01*
X252378571Y-73014285D01*
X252378571Y-73157142D01*
X252307142Y-73371428D01*
X251450000Y-74228571D01*
X252378571Y-74228571D01*
X253307142Y-72728571D02*
X253450000Y-72728571D01*
X253592857Y-72800000D01*
X253664285Y-72871428D01*
X253735714Y-73014285D01*
X253807142Y-73300000D01*
X253807142Y-73657142D01*
X253735714Y-73942857D01*
X253664285Y-74085714D01*
X253592857Y-74157142D01*
X253450000Y-74228571D01*
X253307142Y-74228571D01*
X253164285Y-74157142D01*
X253092857Y-74085714D01*
X253021428Y-73942857D01*
X252950000Y-73657142D01*
X252950000Y-73300000D01*
X253021428Y-73014285D01*
X253092857Y-72871428D01*
X253164285Y-72800000D01*
X253307142Y-72728571D01*
X255235714Y-74228571D02*
X254378571Y-74228571D01*
X254807142Y-74228571D02*
X254807142Y-72728571D01*
X254664285Y-72942857D01*
X254521428Y-73085714D01*
X254378571Y-73157142D01*
X256092857Y-73371428D02*
X255950000Y-73300000D01*
X255878571Y-73228571D01*
X255807142Y-73085714D01*
X255807142Y-73014285D01*
X255878571Y-72871428D01*
X255950000Y-72800000D01*
X256092857Y-72728571D01*
X256378571Y-72728571D01*
X256521428Y-72800000D01*
X256592857Y-72871428D01*
X256664285Y-73014285D01*
X256664285Y-73085714D01*
X256592857Y-73228571D01*
X256521428Y-73300000D01*
X256378571Y-73371428D01*
X256092857Y-73371428D01*
X255950000Y-73442857D01*
X255878571Y-73514285D01*
X255807142Y-73657142D01*
X255807142Y-73942857D01*
X255878571Y-74085714D01*
X255950000Y-74157142D01*
X256092857Y-74228571D01*
X256378571Y-74228571D01*
X256521428Y-74157142D01*
X256592857Y-74085714D01*
X256664285Y-73942857D01*
X256664285Y-73657142D01*
X256592857Y-73514285D01*
X256521428Y-73442857D01*
X256378571Y-73371428D01*
X257592857Y-72728571D02*
X257735714Y-72728571D01*
X257878571Y-72800000D01*
X257950000Y-72871428D01*
X258021428Y-73014285D01*
X258092857Y-73300000D01*
X258092857Y-73657142D01*
X258021428Y-73942857D01*
X257950000Y-74085714D01*
X257878571Y-74157142D01*
X257735714Y-74228571D01*
X257592857Y-74228571D01*
X257450000Y-74157142D01*
X257378571Y-74085714D01*
X257307142Y-73942857D01*
X257235714Y-73657142D01*
X257235714Y-73300000D01*
X257307142Y-73014285D01*
X257378571Y-72871428D01*
X257450000Y-72800000D01*
X257592857Y-72728571D01*
X258592857Y-72728571D02*
X259592857Y-72728571D01*
X258950000Y-74228571D01*
X260021428Y-72728571D02*
X260950000Y-72728571D01*
X260450000Y-73300000D01*
X260664285Y-73300000D01*
X260807142Y-73371428D01*
X260878571Y-73442857D01*
X260950000Y-73585714D01*
X260950000Y-73942857D01*
X260878571Y-74085714D01*
X260807142Y-74157142D01*
X260664285Y-74228571D01*
X260235714Y-74228571D01*
X260092857Y-74157142D01*
X260021428Y-74085714D01*
X261878571Y-72728571D02*
X262021428Y-72728571D01*
X262164285Y-72800000D01*
X262235714Y-72871428D01*
X262307142Y-73014285D01*
X262378571Y-73300000D01*
X262378571Y-73657142D01*
X262307142Y-73942857D01*
X262235714Y-74085714D01*
X262164285Y-74157142D01*
X262021428Y-74228571D01*
X261878571Y-74228571D01*
X261735714Y-74157142D01*
X261664285Y-74085714D01*
X261592857Y-73942857D01*
X261521428Y-73657142D01*
X261521428Y-73300000D01*
X261592857Y-73014285D01*
X261664285Y-72871428D01*
X261735714Y-72800000D01*
X261878571Y-72728571D01*
X248807142Y-53892857D02*
X249021428Y-53964285D01*
X249092857Y-54035714D01*
X249164285Y-54178571D01*
X249164285Y-54392857D01*
X249092857Y-54535714D01*
X249021428Y-54607142D01*
X248878571Y-54678571D01*
X248307142Y-54678571D01*
X248307142Y-53178571D01*
X248807142Y-53178571D01*
X248950000Y-53250000D01*
X249021428Y-53321428D01*
X249092857Y-53464285D01*
X249092857Y-53607142D01*
X249021428Y-53750000D01*
X248950000Y-53821428D01*
X248807142Y-53892857D01*
X248307142Y-53892857D01*
X250021428Y-54678571D02*
X249878571Y-54607142D01*
X249807142Y-54464285D01*
X249807142Y-53178571D01*
X251235714Y-54678571D02*
X251235714Y-53892857D01*
X251164285Y-53750000D01*
X251021428Y-53678571D01*
X250735714Y-53678571D01*
X250592857Y-53750000D01*
X251235714Y-54607142D02*
X251092857Y-54678571D01*
X250735714Y-54678571D01*
X250592857Y-54607142D01*
X250521428Y-54464285D01*
X250521428Y-54321428D01*
X250592857Y-54178571D01*
X250735714Y-54107142D01*
X251092857Y-54107142D01*
X251235714Y-54035714D01*
X251950000Y-53678571D02*
X251950000Y-54678571D01*
X251950000Y-53821428D02*
X252021428Y-53750000D01*
X252164285Y-53678571D01*
X252378571Y-53678571D01*
X252521428Y-53750000D01*
X252592857Y-53892857D01*
X252592857Y-54678571D01*
X253307142Y-54678571D02*
X253307142Y-53178571D01*
X253450000Y-54107142D02*
X253878571Y-54678571D01*
X253878571Y-53678571D02*
X253307142Y-54250000D01*
X255021428Y-53892857D02*
X255235714Y-53964285D01*
X255307142Y-54035714D01*
X255378571Y-54178571D01*
X255378571Y-54392857D01*
X255307142Y-54535714D01*
X255235714Y-54607142D01*
X255092857Y-54678571D01*
X254521428Y-54678571D01*
X254521428Y-53178571D01*
X255021428Y-53178571D01*
X255164285Y-53250000D01*
X255235714Y-53321428D01*
X255307142Y-53464285D01*
X255307142Y-53607142D01*
X255235714Y-53750000D01*
X255164285Y-53821428D01*
X255021428Y-53892857D01*
X254521428Y-53892857D01*
X256235714Y-54678571D02*
X256092857Y-54607142D01*
X256021428Y-54535714D01*
X255950000Y-54392857D01*
X255950000Y-53964285D01*
X256021428Y-53821428D01*
X256092857Y-53750000D01*
X256235714Y-53678571D01*
X256450000Y-53678571D01*
X256592857Y-53750000D01*
X256664285Y-53821428D01*
X256735714Y-53964285D01*
X256735714Y-54392857D01*
X256664285Y-54535714D01*
X256592857Y-54607142D01*
X256450000Y-54678571D01*
X256235714Y-54678571D01*
X258021428Y-54678571D02*
X258021428Y-53892857D01*
X257950000Y-53750000D01*
X257807142Y-53678571D01*
X257521428Y-53678571D01*
X257378571Y-53750000D01*
X258021428Y-54607142D02*
X257878571Y-54678571D01*
X257521428Y-54678571D01*
X257378571Y-54607142D01*
X257307142Y-54464285D01*
X257307142Y-54321428D01*
X257378571Y-54178571D01*
X257521428Y-54107142D01*
X257878571Y-54107142D01*
X258021428Y-54035714D01*
X258735714Y-54678571D02*
X258735714Y-53678571D01*
X258735714Y-53964285D02*
X258807142Y-53821428D01*
X258878571Y-53750000D01*
X259021428Y-53678571D01*
X259164285Y-53678571D01*
X260307142Y-54678571D02*
X260307142Y-53178571D01*
X260307142Y-54607142D02*
X260164285Y-54678571D01*
X259878571Y-54678571D01*
X259735714Y-54607142D01*
X259664285Y-54535714D01*
X259592857Y-54392857D01*
X259592857Y-53964285D01*
X259664285Y-53821428D01*
X259735714Y-53750000D01*
X259878571Y-53678571D01*
X260164285Y-53678571D01*
X260307142Y-53750000D01*
X262021428Y-53678571D02*
X262378571Y-54678571D01*
X262735714Y-53678571D01*
X263592857Y-53178571D02*
X263735714Y-53178571D01*
X263878571Y-53250000D01*
X263950000Y-53321428D01*
X264021428Y-53464285D01*
X264092857Y-53750000D01*
X264092857Y-54107142D01*
X264021428Y-54392857D01*
X263950000Y-54535714D01*
X263878571Y-54607142D01*
X263735714Y-54678571D01*
X263592857Y-54678571D01*
X263450000Y-54607142D01*
X263378571Y-54535714D01*
X263307142Y-54392857D01*
X263235714Y-54107142D01*
X263235714Y-53750000D01*
X263307142Y-53464285D01*
X263378571Y-53321428D01*
X263450000Y-53250000D01*
X263592857Y-53178571D01*
X264735714Y-54535714D02*
X264807142Y-54607142D01*
X264735714Y-54678571D01*
X264664285Y-54607142D01*
X264735714Y-54535714D01*
X264735714Y-54678571D01*
X265735714Y-53178571D02*
X265878571Y-53178571D01*
X266021428Y-53250000D01*
X266092857Y-53321428D01*
X266164285Y-53464285D01*
X266235714Y-53750000D01*
X266235714Y-54107142D01*
X266164285Y-54392857D01*
X266092857Y-54535714D01*
X266021428Y-54607142D01*
X265878571Y-54678571D01*
X265735714Y-54678571D01*
X265592857Y-54607142D01*
X265521428Y-54535714D01*
X265450000Y-54392857D01*
X265378571Y-54107142D01*
X265378571Y-53750000D01*
X265450000Y-53464285D01*
X265521428Y-53321428D01*
X265592857Y-53250000D01*
X265735714Y-53178571D01*
X267664285Y-54678571D02*
X266807142Y-54678571D01*
X267235714Y-54678571D02*
X267235714Y-53178571D01*
X267092857Y-53392857D01*
X266950000Y-53535714D01*
X266807142Y-53607142D01*
X250521428Y-57085714D02*
X250450000Y-57157142D01*
X250235714Y-57228571D01*
X250092857Y-57228571D01*
X249878571Y-57157142D01*
X249735714Y-57014285D01*
X249664285Y-56871428D01*
X249592857Y-56585714D01*
X249592857Y-56371428D01*
X249664285Y-56085714D01*
X249735714Y-55942857D01*
X249878571Y-55800000D01*
X250092857Y-55728571D01*
X250235714Y-55728571D01*
X250450000Y-55800000D01*
X250521428Y-55871428D01*
X251164285Y-56442857D02*
X251664285Y-56442857D01*
X251878571Y-57228571D02*
X251164285Y-57228571D01*
X251164285Y-55728571D01*
X251878571Y-55728571D01*
X253378571Y-57228571D02*
X252878571Y-56514285D01*
X252521428Y-57228571D02*
X252521428Y-55728571D01*
X253092857Y-55728571D01*
X253235714Y-55800000D01*
X253307142Y-55871428D01*
X253378571Y-56014285D01*
X253378571Y-56228571D01*
X253307142Y-56371428D01*
X253235714Y-56442857D01*
X253092857Y-56514285D01*
X252521428Y-56514285D01*
X254021428Y-57228571D02*
X254021428Y-55728571D01*
X254878571Y-57228571D01*
X254878571Y-55728571D01*
X257021428Y-55728571D02*
X257307142Y-55728571D01*
X257450000Y-55800000D01*
X257592857Y-55942857D01*
X257664285Y-56228571D01*
X257664285Y-56728571D01*
X257592857Y-57014285D01*
X257450000Y-57157142D01*
X257307142Y-57228571D01*
X257021428Y-57228571D01*
X256878571Y-57157142D01*
X256735714Y-57014285D01*
X256664285Y-56728571D01*
X256664285Y-56228571D01*
X256735714Y-55942857D01*
X256878571Y-55800000D01*
X257021428Y-55728571D01*
X258307142Y-57228571D02*
X258307142Y-55728571D01*
X258307142Y-56442857D02*
X259164285Y-56442857D01*
X259164285Y-57228571D02*
X259164285Y-55728571D01*
X260592857Y-57228571D02*
X259878571Y-57228571D01*
X259878571Y-55728571D01*
X262092857Y-56228571D02*
X262450000Y-57228571D01*
X262807142Y-56228571D01*
X264164285Y-57228571D02*
X263307142Y-57228571D01*
X263735714Y-57228571D02*
X263735714Y-55728571D01*
X263592857Y-55942857D01*
X263450000Y-56085714D01*
X263307142Y-56157142D01*
X264807142Y-57085714D02*
X264878571Y-57157142D01*
X264807142Y-57228571D01*
X264735714Y-57157142D01*
X264807142Y-57085714D01*
X264807142Y-57228571D01*
X265450000Y-55871428D02*
X265521428Y-55800000D01*
X265664285Y-55728571D01*
X266021428Y-55728571D01*
X266164285Y-55800000D01*
X266235714Y-55871428D01*
X266307142Y-56014285D01*
X266307142Y-56157142D01*
X266235714Y-56371428D01*
X265378571Y-57228571D01*
X266307142Y-57228571D01*
D11*
G04 #@! TO.C,J8_Green_Enab*
X245470000Y-59905000D02*
X239470000Y-59905000D01*
X239470000Y-59905000D02*
X239470000Y-67725000D01*
X239470000Y-67725000D02*
X245470000Y-67725000D01*
X245470000Y-67725000D02*
X245470000Y-59905000D01*
X239470000Y-61275000D02*
X240470000Y-61275000D01*
X240470000Y-61275000D02*
X240470000Y-66355000D01*
X240470000Y-66355000D02*
X239470000Y-66355000D01*
X240470000Y-61275000D02*
X240900000Y-61525000D01*
X240900000Y-61525000D02*
X240900000Y-66105000D01*
X240900000Y-66105000D02*
X240470000Y-66355000D01*
X239470000Y-61525000D02*
X240470000Y-61525000D01*
X239470000Y-66105000D02*
X240470000Y-66105000D01*
X245470000Y-60475000D02*
X244850000Y-60475000D01*
X244850000Y-60475000D02*
X244850000Y-62075000D01*
X244850000Y-62075000D02*
X245470000Y-62075000D01*
X245470000Y-63015000D02*
X244850000Y-63015000D01*
X244850000Y-63015000D02*
X244850000Y-64615000D01*
X244850000Y-64615000D02*
X245470000Y-64615000D01*
X245470000Y-65555000D02*
X244850000Y-65555000D01*
X244850000Y-65555000D02*
X244850000Y-67155000D01*
X244850000Y-67155000D02*
X245470000Y-67155000D01*
G04 #@! TO.C,J12_green_blank*
X245220000Y-47155000D02*
X239220000Y-47155000D01*
X239220000Y-47155000D02*
X239220000Y-54975000D01*
X239220000Y-54975000D02*
X245220000Y-54975000D01*
X245220000Y-54975000D02*
X245220000Y-47155000D01*
X239220000Y-48525000D02*
X240220000Y-48525000D01*
X240220000Y-48525000D02*
X240220000Y-53605000D01*
X240220000Y-53605000D02*
X239220000Y-53605000D01*
X240220000Y-48525000D02*
X240650000Y-48775000D01*
X240650000Y-48775000D02*
X240650000Y-53355000D01*
X240650000Y-53355000D02*
X240220000Y-53605000D01*
X239220000Y-48775000D02*
X240220000Y-48775000D01*
X239220000Y-53355000D02*
X240220000Y-53355000D01*
X245220000Y-47725000D02*
X244600000Y-47725000D01*
X244600000Y-47725000D02*
X244600000Y-49325000D01*
X244600000Y-49325000D02*
X245220000Y-49325000D01*
X245220000Y-50265000D02*
X244600000Y-50265000D01*
X244600000Y-50265000D02*
X244600000Y-51865000D01*
X244600000Y-51865000D02*
X245220000Y-51865000D01*
X245220000Y-52805000D02*
X244600000Y-52805000D01*
X244600000Y-52805000D02*
X244600000Y-54405000D01*
X244600000Y-54405000D02*
X245220000Y-54405000D01*
G04 #@! TO.C,U2*
X209850000Y-75725000D02*
X209850000Y-77325000D01*
X213050000Y-77325000D02*
X213050000Y-75025000D01*
G04 #@! TO.C,J1_Blue_enab*
X204370000Y-72705000D02*
X198370000Y-72705000D01*
X198370000Y-72705000D02*
X198370000Y-80525000D01*
X198370000Y-80525000D02*
X204370000Y-80525000D01*
X204370000Y-80525000D02*
X204370000Y-72705000D01*
X198370000Y-74075000D02*
X199370000Y-74075000D01*
X199370000Y-74075000D02*
X199370000Y-79155000D01*
X199370000Y-79155000D02*
X198370000Y-79155000D01*
X199370000Y-74075000D02*
X199800000Y-74325000D01*
X199800000Y-74325000D02*
X199800000Y-78905000D01*
X199800000Y-78905000D02*
X199370000Y-79155000D01*
X198370000Y-74325000D02*
X199370000Y-74325000D01*
X198370000Y-78905000D02*
X199370000Y-78905000D01*
X204370000Y-73275000D02*
X203750000Y-73275000D01*
X203750000Y-73275000D02*
X203750000Y-74875000D01*
X203750000Y-74875000D02*
X204370000Y-74875000D01*
X204370000Y-75815000D02*
X203750000Y-75815000D01*
X203750000Y-75815000D02*
X203750000Y-77415000D01*
X203750000Y-77415000D02*
X204370000Y-77415000D01*
X204370000Y-78355000D02*
X203750000Y-78355000D01*
X203750000Y-78355000D02*
X203750000Y-79955000D01*
X203750000Y-79955000D02*
X204370000Y-79955000D01*
G04 #@! TO.C,J2_Green_PWM*
X245470000Y-72655000D02*
X239470000Y-72655000D01*
X239470000Y-72655000D02*
X239470000Y-80475000D01*
X239470000Y-80475000D02*
X245470000Y-80475000D01*
X245470000Y-80475000D02*
X245470000Y-72655000D01*
X239470000Y-74025000D02*
X240470000Y-74025000D01*
X240470000Y-74025000D02*
X240470000Y-79105000D01*
X240470000Y-79105000D02*
X239470000Y-79105000D01*
X240470000Y-74025000D02*
X240900000Y-74275000D01*
X240900000Y-74275000D02*
X240900000Y-78855000D01*
X240900000Y-78855000D02*
X240470000Y-79105000D01*
X239470000Y-74275000D02*
X240470000Y-74275000D01*
X239470000Y-78855000D02*
X240470000Y-78855000D01*
X245470000Y-73225000D02*
X244850000Y-73225000D01*
X244850000Y-73225000D02*
X244850000Y-74825000D01*
X244850000Y-74825000D02*
X245470000Y-74825000D01*
X245470000Y-75765000D02*
X244850000Y-75765000D01*
X244850000Y-75765000D02*
X244850000Y-77365000D01*
X244850000Y-77365000D02*
X245470000Y-77365000D01*
X245470000Y-78305000D02*
X244850000Y-78305000D01*
X244850000Y-78305000D02*
X244850000Y-79905000D01*
X244850000Y-79905000D02*
X245470000Y-79905000D01*
G04 #@! TO.C,J3_Red_PWM*
X224970000Y-72655000D02*
X218970000Y-72655000D01*
X218970000Y-72655000D02*
X218970000Y-80475000D01*
X218970000Y-80475000D02*
X224970000Y-80475000D01*
X224970000Y-80475000D02*
X224970000Y-72655000D01*
X218970000Y-74025000D02*
X219970000Y-74025000D01*
X219970000Y-74025000D02*
X219970000Y-79105000D01*
X219970000Y-79105000D02*
X218970000Y-79105000D01*
X219970000Y-74025000D02*
X220400000Y-74275000D01*
X220400000Y-74275000D02*
X220400000Y-78855000D01*
X220400000Y-78855000D02*
X219970000Y-79105000D01*
X218970000Y-74275000D02*
X219970000Y-74275000D01*
X218970000Y-78855000D02*
X219970000Y-78855000D01*
X224970000Y-73225000D02*
X224350000Y-73225000D01*
X224350000Y-73225000D02*
X224350000Y-74825000D01*
X224350000Y-74825000D02*
X224970000Y-74825000D01*
X224970000Y-75765000D02*
X224350000Y-75765000D01*
X224350000Y-75765000D02*
X224350000Y-77365000D01*
X224350000Y-77365000D02*
X224970000Y-77365000D01*
X224970000Y-78305000D02*
X224350000Y-78305000D01*
X224350000Y-78305000D02*
X224350000Y-79905000D01*
X224350000Y-79905000D02*
X224970000Y-79905000D01*
G04 #@! TO.C,J5*
X255450000Y-60125000D02*
X255450000Y-60875000D01*
X255450000Y-60875000D02*
X261950000Y-60875000D01*
X261950000Y-60875000D02*
X261950000Y-60125000D01*
X261950000Y-60125000D02*
X255450000Y-60125000D01*
X254700000Y-59225000D02*
X254700000Y-60875000D01*
X254700000Y-60875000D02*
X253950000Y-60875000D01*
X253950000Y-60875000D02*
X253950000Y-60125000D01*
X253950000Y-60125000D02*
X251450000Y-60125000D01*
X251450000Y-60125000D02*
X251450000Y-66925000D01*
X251450000Y-66925000D02*
X258700000Y-66925000D01*
X262700000Y-59225000D02*
X262700000Y-60875000D01*
X262700000Y-60875000D02*
X263450000Y-60875000D01*
X263450000Y-60875000D02*
X263450000Y-60125000D01*
X263450000Y-60125000D02*
X265950000Y-60125000D01*
X265950000Y-60125000D02*
X265950000Y-66925000D01*
X265950000Y-66925000D02*
X258700000Y-66925000D01*
X250550000Y-59225000D02*
X250550000Y-67825000D01*
X250550000Y-67825000D02*
X266850000Y-67825000D01*
X266850000Y-67825000D02*
X266850000Y-59225000D01*
X266850000Y-59225000D02*
X250550000Y-59225000D01*
X250350000Y-63275000D02*
X249750000Y-63575000D01*
X249750000Y-63575000D02*
X249750000Y-62975000D01*
X249750000Y-62975000D02*
X250350000Y-63275000D01*
G04 #@! TO.C,J6_Blue_Enab*
X204370000Y-59905000D02*
X198370000Y-59905000D01*
X198370000Y-59905000D02*
X198370000Y-67725000D01*
X198370000Y-67725000D02*
X204370000Y-67725000D01*
X204370000Y-67725000D02*
X204370000Y-59905000D01*
X198370000Y-61275000D02*
X199370000Y-61275000D01*
X199370000Y-61275000D02*
X199370000Y-66355000D01*
X199370000Y-66355000D02*
X198370000Y-66355000D01*
X199370000Y-61275000D02*
X199800000Y-61525000D01*
X199800000Y-61525000D02*
X199800000Y-66105000D01*
X199800000Y-66105000D02*
X199370000Y-66355000D01*
X198370000Y-61525000D02*
X199370000Y-61525000D01*
X198370000Y-66105000D02*
X199370000Y-66105000D01*
X204370000Y-60475000D02*
X203750000Y-60475000D01*
X203750000Y-60475000D02*
X203750000Y-62075000D01*
X203750000Y-62075000D02*
X204370000Y-62075000D01*
X204370000Y-63015000D02*
X203750000Y-63015000D01*
X203750000Y-63015000D02*
X203750000Y-64615000D01*
X203750000Y-64615000D02*
X204370000Y-64615000D01*
X204370000Y-65555000D02*
X203750000Y-65555000D01*
X203750000Y-65555000D02*
X203750000Y-67155000D01*
X203750000Y-67155000D02*
X204370000Y-67155000D01*
G04 #@! TO.C,J7_Red_enab*
X224970000Y-59905000D02*
X218970000Y-59905000D01*
X218970000Y-59905000D02*
X218970000Y-67725000D01*
X218970000Y-67725000D02*
X224970000Y-67725000D01*
X224970000Y-67725000D02*
X224970000Y-59905000D01*
X218970000Y-61275000D02*
X219970000Y-61275000D01*
X219970000Y-61275000D02*
X219970000Y-66355000D01*
X219970000Y-66355000D02*
X218970000Y-66355000D01*
X219970000Y-61275000D02*
X220400000Y-61525000D01*
X220400000Y-61525000D02*
X220400000Y-66105000D01*
X220400000Y-66105000D02*
X219970000Y-66355000D01*
X218970000Y-61525000D02*
X219970000Y-61525000D01*
X218970000Y-66105000D02*
X219970000Y-66105000D01*
X224970000Y-60475000D02*
X224350000Y-60475000D01*
X224350000Y-60475000D02*
X224350000Y-62075000D01*
X224350000Y-62075000D02*
X224970000Y-62075000D01*
X224970000Y-63015000D02*
X224350000Y-63015000D01*
X224350000Y-63015000D02*
X224350000Y-64615000D01*
X224350000Y-64615000D02*
X224970000Y-64615000D01*
X224970000Y-65555000D02*
X224350000Y-65555000D01*
X224350000Y-65555000D02*
X224350000Y-67155000D01*
X224350000Y-67155000D02*
X224970000Y-67155000D01*
G04 #@! TO.C,J9*
X258420000Y-46805000D02*
X252420000Y-46805000D01*
X252420000Y-46805000D02*
X252420000Y-52085000D01*
X252420000Y-52085000D02*
X258420000Y-52085000D01*
X258420000Y-52085000D02*
X258420000Y-46805000D01*
X252420000Y-48175000D02*
X253420000Y-48175000D01*
X253420000Y-48175000D02*
X253420000Y-50715000D01*
X253420000Y-50715000D02*
X252420000Y-50715000D01*
X253420000Y-48175000D02*
X253850000Y-48425000D01*
X253850000Y-48425000D02*
X253850000Y-50465000D01*
X253850000Y-50465000D02*
X253420000Y-50715000D01*
X252420000Y-48425000D02*
X253420000Y-48425000D01*
X252420000Y-50465000D02*
X253420000Y-50465000D01*
X258420000Y-47375000D02*
X257800000Y-47375000D01*
X257800000Y-47375000D02*
X257800000Y-48975000D01*
X257800000Y-48975000D02*
X258420000Y-48975000D01*
X258420000Y-49915000D02*
X257800000Y-49915000D01*
X257800000Y-49915000D02*
X257800000Y-51515000D01*
X257800000Y-51515000D02*
X258420000Y-51515000D01*
G04 #@! TO.C,J10_red_blank*
X224970000Y-47155000D02*
X218970000Y-47155000D01*
X218970000Y-47155000D02*
X218970000Y-54975000D01*
X218970000Y-54975000D02*
X224970000Y-54975000D01*
X224970000Y-54975000D02*
X224970000Y-47155000D01*
X218970000Y-48525000D02*
X219970000Y-48525000D01*
X219970000Y-48525000D02*
X219970000Y-53605000D01*
X219970000Y-53605000D02*
X218970000Y-53605000D01*
X219970000Y-48525000D02*
X220400000Y-48775000D01*
X220400000Y-48775000D02*
X220400000Y-53355000D01*
X220400000Y-53355000D02*
X219970000Y-53605000D01*
X218970000Y-48775000D02*
X219970000Y-48775000D01*
X218970000Y-53355000D02*
X219970000Y-53355000D01*
X224970000Y-47725000D02*
X224350000Y-47725000D01*
X224350000Y-47725000D02*
X224350000Y-49325000D01*
X224350000Y-49325000D02*
X224970000Y-49325000D01*
X224970000Y-50265000D02*
X224350000Y-50265000D01*
X224350000Y-50265000D02*
X224350000Y-51865000D01*
X224350000Y-51865000D02*
X224970000Y-51865000D01*
X224970000Y-52805000D02*
X224350000Y-52805000D01*
X224350000Y-52805000D02*
X224350000Y-54405000D01*
X224350000Y-54405000D02*
X224970000Y-54405000D01*
G04 #@! TO.C,J11_blue_blank*
X204370000Y-47105000D02*
X198370000Y-47105000D01*
X198370000Y-47105000D02*
X198370000Y-54925000D01*
X198370000Y-54925000D02*
X204370000Y-54925000D01*
X204370000Y-54925000D02*
X204370000Y-47105000D01*
X198370000Y-48475000D02*
X199370000Y-48475000D01*
X199370000Y-48475000D02*
X199370000Y-53555000D01*
X199370000Y-53555000D02*
X198370000Y-53555000D01*
X199370000Y-48475000D02*
X199800000Y-48725000D01*
X199800000Y-48725000D02*
X199800000Y-53305000D01*
X199800000Y-53305000D02*
X199370000Y-53555000D01*
X198370000Y-48725000D02*
X199370000Y-48725000D01*
X198370000Y-53305000D02*
X199370000Y-53305000D01*
X204370000Y-47675000D02*
X203750000Y-47675000D01*
X203750000Y-47675000D02*
X203750000Y-49275000D01*
X203750000Y-49275000D02*
X204370000Y-49275000D01*
X204370000Y-50215000D02*
X203750000Y-50215000D01*
X203750000Y-50215000D02*
X203750000Y-51815000D01*
X203750000Y-51815000D02*
X204370000Y-51815000D01*
X204370000Y-52755000D02*
X203750000Y-52755000D01*
X203750000Y-52755000D02*
X203750000Y-54355000D01*
X203750000Y-54355000D02*
X204370000Y-54355000D01*
G04 #@! TO.C,J13*
X181770000Y-59305000D02*
X175770000Y-59305000D01*
X175770000Y-59305000D02*
X175770000Y-69665000D01*
X175770000Y-69665000D02*
X181770000Y-69665000D01*
X181770000Y-69665000D02*
X181770000Y-59305000D01*
X175770000Y-60675000D02*
X176770000Y-60675000D01*
X176770000Y-60675000D02*
X176770000Y-68295000D01*
X176770000Y-68295000D02*
X175770000Y-68295000D01*
X176770000Y-60675000D02*
X177200000Y-60925000D01*
X177200000Y-60925000D02*
X177200000Y-68045000D01*
X177200000Y-68045000D02*
X176770000Y-68295000D01*
X175770000Y-60925000D02*
X176770000Y-60925000D01*
X175770000Y-68045000D02*
X176770000Y-68045000D01*
X181770000Y-59875000D02*
X181150000Y-59875000D01*
X181150000Y-59875000D02*
X181150000Y-61475000D01*
X181150000Y-61475000D02*
X181770000Y-61475000D01*
X181770000Y-62415000D02*
X181150000Y-62415000D01*
X181150000Y-62415000D02*
X181150000Y-64015000D01*
X181150000Y-64015000D02*
X181770000Y-64015000D01*
X181770000Y-64955000D02*
X181150000Y-64955000D01*
X181150000Y-64955000D02*
X181150000Y-66555000D01*
X181150000Y-66555000D02*
X181770000Y-66555000D01*
X181770000Y-67495000D02*
X181150000Y-67495000D01*
X181150000Y-67495000D02*
X181150000Y-69095000D01*
X181150000Y-69095000D02*
X181770000Y-69095000D01*
G04 #@! TO.C,J14_inv_vcc*
X254180000Y-75715000D02*
X254180000Y-80795000D01*
X258620000Y-75715000D02*
X258620000Y-80795000D01*
X252280000Y-80795000D02*
X252280000Y-75715000D01*
X252280000Y-80795000D02*
X258620000Y-80795000D01*
X252280000Y-75715000D02*
X258620000Y-75715000D01*
G04 #@! TO.C,Q1*
X231100000Y-61265000D02*
X231100000Y-64865000D01*
X231827205Y-60740816D02*
G75*
G03X231100000Y-61265000I1122795J-2324184D01*
G01*
X234048807Y-60708600D02*
G75*
G02X235550000Y-63065000I-1098807J-2356400D01*
G01*
X234048807Y-65421400D02*
G75*
G03X235550000Y-63065000I-1098807J2356400D01*
G01*
X231827205Y-65389184D02*
G75*
G02X231100000Y-64865000I1122795J2324184D01*
G01*
G04 #@! TO.C,Q2*
X189100000Y-61415000D02*
X189100000Y-65015000D01*
X189827205Y-60890816D02*
G75*
G03X189100000Y-61415000I1122795J-2324184D01*
G01*
X192048807Y-60858600D02*
G75*
G02X193550000Y-63215000I-1098807J-2356400D01*
G01*
X192048807Y-65571400D02*
G75*
G03X193550000Y-63215000I-1098807J2356400D01*
G01*
X189827205Y-65539184D02*
G75*
G02X189100000Y-65015000I1122795J2324184D01*
G01*
G04 #@! TO.C,Q3*
X210100000Y-61265000D02*
X210100000Y-64865000D01*
X210827205Y-60740816D02*
G75*
G03X210100000Y-61265000I1122795J-2324184D01*
G01*
X213048807Y-60708600D02*
G75*
G02X214550000Y-63065000I-1098807J-2356400D01*
G01*
X213048807Y-65421400D02*
G75*
G03X214550000Y-63065000I-1098807J2356400D01*
G01*
X210827205Y-65389184D02*
G75*
G02X210100000Y-64865000I1122795J2324184D01*
G01*
G04 #@! TO.C,Q4*
X231100000Y-48765000D02*
X231100000Y-52365000D01*
X231827205Y-48240816D02*
G75*
G03X231100000Y-48765000I1122795J-2324184D01*
G01*
X234048807Y-48208600D02*
G75*
G02X235550000Y-50565000I-1098807J-2356400D01*
G01*
X234048807Y-52921400D02*
G75*
G03X235550000Y-50565000I-1098807J2356400D01*
G01*
X231827205Y-52889184D02*
G75*
G02X231100000Y-52365000I1122795J2324184D01*
G01*
G04 #@! TO.C,Q5*
X210100000Y-48765000D02*
X210100000Y-52365000D01*
X210827205Y-48240816D02*
G75*
G03X210100000Y-48765000I1122795J-2324184D01*
G01*
X213048807Y-48208600D02*
G75*
G02X214550000Y-50565000I-1098807J-2356400D01*
G01*
X213048807Y-52921400D02*
G75*
G03X214550000Y-50565000I-1098807J2356400D01*
G01*
X210827205Y-52889184D02*
G75*
G02X210100000Y-52365000I1122795J2324184D01*
G01*
G04 #@! TO.C,Q6*
X189100000Y-48815000D02*
X189100000Y-52415000D01*
X189827205Y-48290816D02*
G75*
G03X189100000Y-48815000I1122795J-2324184D01*
G01*
X192048807Y-48258600D02*
G75*
G02X193550000Y-50615000I-1098807J-2356400D01*
G01*
X192048807Y-52971400D02*
G75*
G03X193550000Y-50615000I-1098807J2356400D01*
G01*
X189827205Y-52939184D02*
G75*
G02X189100000Y-52415000I1122795J2324184D01*
G01*
G04 #@! TO.C,R1 270*
X190810000Y-69675000D02*
G75*
G03X190810000Y-69675000I-860000J0D01*
G01*
X190810000Y-69675000D02*
X191490000Y-69675000D01*
G04 #@! TO.C,R2 270*
X211810000Y-69525000D02*
G75*
G03X211810000Y-69525000I-860000J0D01*
G01*
X211810000Y-69525000D02*
X212490000Y-69525000D01*
G04 #@! TO.C,R3 270*
X232810000Y-69275000D02*
G75*
G03X232810000Y-69275000I-860000J0D01*
G01*
X232810000Y-69275000D02*
X233490000Y-69275000D01*
G04 #@! TO.C,R4 270*
X235060000Y-43775000D02*
G75*
G03X235060000Y-43775000I-860000J0D01*
G01*
X233340000Y-43775000D02*
X232660000Y-43775000D01*
G04 #@! TO.C,R5 270*
X191010000Y-44075000D02*
G75*
G03X191010000Y-44075000I-860000J0D01*
G01*
X191010000Y-44075000D02*
X191690000Y-44075000D01*
G04 #@! TO.C,R6 270*
X212210000Y-43875000D02*
G75*
G03X212210000Y-43875000I-860000J0D01*
G01*
X212210000Y-43875000D02*
X212890000Y-43875000D01*
G04 #@! TO.C,U1*
X189550000Y-75675000D02*
X189550000Y-77275000D01*
X192750000Y-77275000D02*
X192750000Y-74975000D01*
G04 #@! TO.C,U3*
X230600000Y-75725000D02*
X230600000Y-77325000D01*
X233800000Y-77325000D02*
X233800000Y-75025000D01*
G04 #@! TO.C,J8_Green_Enab*
D12*
X246652380Y-69048809D02*
X247366666Y-69048809D01*
X247509523Y-69096428D01*
X247604761Y-69191666D01*
X247652380Y-69334523D01*
X247652380Y-69429761D01*
X247080952Y-68429761D02*
X247033333Y-68525000D01*
X246985714Y-68572619D01*
X246890476Y-68620238D01*
X246842857Y-68620238D01*
X246747619Y-68572619D01*
X246700000Y-68525000D01*
X246652380Y-68429761D01*
X246652380Y-68239285D01*
X246700000Y-68144047D01*
X246747619Y-68096428D01*
X246842857Y-68048809D01*
X246890476Y-68048809D01*
X246985714Y-68096428D01*
X247033333Y-68144047D01*
X247080952Y-68239285D01*
X247080952Y-68429761D01*
X247128571Y-68525000D01*
X247176190Y-68572619D01*
X247271428Y-68620238D01*
X247461904Y-68620238D01*
X247557142Y-68572619D01*
X247604761Y-68525000D01*
X247652380Y-68429761D01*
X247652380Y-68239285D01*
X247604761Y-68144047D01*
X247557142Y-68096428D01*
X247461904Y-68048809D01*
X247271428Y-68048809D01*
X247176190Y-68096428D01*
X247128571Y-68144047D01*
X247080952Y-68239285D01*
X247747619Y-67858333D02*
X247747619Y-67096428D01*
X246700000Y-66334523D02*
X246652380Y-66429761D01*
X246652380Y-66572619D01*
X246700000Y-66715476D01*
X246795238Y-66810714D01*
X246890476Y-66858333D01*
X247080952Y-66905952D01*
X247223809Y-66905952D01*
X247414285Y-66858333D01*
X247509523Y-66810714D01*
X247604761Y-66715476D01*
X247652380Y-66572619D01*
X247652380Y-66477380D01*
X247604761Y-66334523D01*
X247557142Y-66286904D01*
X247223809Y-66286904D01*
X247223809Y-66477380D01*
X247652380Y-65858333D02*
X246985714Y-65858333D01*
X247176190Y-65858333D02*
X247080952Y-65810714D01*
X247033333Y-65763095D01*
X246985714Y-65667857D01*
X246985714Y-65572619D01*
X247604761Y-64858333D02*
X247652380Y-64953571D01*
X247652380Y-65144047D01*
X247604761Y-65239285D01*
X247509523Y-65286904D01*
X247128571Y-65286904D01*
X247033333Y-65239285D01*
X246985714Y-65144047D01*
X246985714Y-64953571D01*
X247033333Y-64858333D01*
X247128571Y-64810714D01*
X247223809Y-64810714D01*
X247319047Y-65286904D01*
X247604761Y-64001190D02*
X247652380Y-64096428D01*
X247652380Y-64286904D01*
X247604761Y-64382142D01*
X247509523Y-64429761D01*
X247128571Y-64429761D01*
X247033333Y-64382142D01*
X246985714Y-64286904D01*
X246985714Y-64096428D01*
X247033333Y-64001190D01*
X247128571Y-63953571D01*
X247223809Y-63953571D01*
X247319047Y-64429761D01*
X246985714Y-63525000D02*
X247652380Y-63525000D01*
X247080952Y-63525000D02*
X247033333Y-63477380D01*
X246985714Y-63382142D01*
X246985714Y-63239285D01*
X247033333Y-63144047D01*
X247128571Y-63096428D01*
X247652380Y-63096428D01*
X247747619Y-62858333D02*
X247747619Y-62096428D01*
X247128571Y-61858333D02*
X247128571Y-61525000D01*
X247652380Y-61382142D02*
X247652380Y-61858333D01*
X246652380Y-61858333D01*
X246652380Y-61382142D01*
X246985714Y-60953571D02*
X247652380Y-60953571D01*
X247080952Y-60953571D02*
X247033333Y-60905952D01*
X246985714Y-60810714D01*
X246985714Y-60667857D01*
X247033333Y-60572619D01*
X247128571Y-60525000D01*
X247652380Y-60525000D01*
X247652380Y-59620238D02*
X247128571Y-59620238D01*
X247033333Y-59667857D01*
X246985714Y-59763095D01*
X246985714Y-59953571D01*
X247033333Y-60048809D01*
X247604761Y-59620238D02*
X247652380Y-59715476D01*
X247652380Y-59953571D01*
X247604761Y-60048809D01*
X247509523Y-60096428D01*
X247414285Y-60096428D01*
X247319047Y-60048809D01*
X247271428Y-59953571D01*
X247271428Y-59715476D01*
X247223809Y-59620238D01*
X247652380Y-59144047D02*
X246652380Y-59144047D01*
X247033333Y-59144047D02*
X246985714Y-59048809D01*
X246985714Y-58858333D01*
X247033333Y-58763095D01*
X247080952Y-58715476D01*
X247176190Y-58667857D01*
X247461904Y-58667857D01*
X247557142Y-58715476D01*
X247604761Y-58763095D01*
X247652380Y-58858333D01*
X247652380Y-59048809D01*
X247604761Y-59144047D01*
G04 #@! TO.C,J12_green_blank*
X246402380Y-56441666D02*
X247116666Y-56441666D01*
X247259523Y-56489285D01*
X247354761Y-56584523D01*
X247402380Y-56727380D01*
X247402380Y-56822619D01*
X247402380Y-55441666D02*
X247402380Y-56013095D01*
X247402380Y-55727380D02*
X246402380Y-55727380D01*
X246545238Y-55822619D01*
X246640476Y-55917857D01*
X246688095Y-56013095D01*
X246497619Y-55060714D02*
X246450000Y-55013095D01*
X246402380Y-54917857D01*
X246402380Y-54679761D01*
X246450000Y-54584523D01*
X246497619Y-54536904D01*
X246592857Y-54489285D01*
X246688095Y-54489285D01*
X246830952Y-54536904D01*
X247402380Y-55108333D01*
X247402380Y-54489285D01*
X247497619Y-54298809D02*
X247497619Y-53536904D01*
X246735714Y-52870238D02*
X247545238Y-52870238D01*
X247640476Y-52917857D01*
X247688095Y-52965476D01*
X247735714Y-53060714D01*
X247735714Y-53203571D01*
X247688095Y-53298809D01*
X247354761Y-52870238D02*
X247402380Y-52965476D01*
X247402380Y-53155952D01*
X247354761Y-53251190D01*
X247307142Y-53298809D01*
X247211904Y-53346428D01*
X246926190Y-53346428D01*
X246830952Y-53298809D01*
X246783333Y-53251190D01*
X246735714Y-53155952D01*
X246735714Y-52965476D01*
X246783333Y-52870238D01*
X247402380Y-52394047D02*
X246735714Y-52394047D01*
X246926190Y-52394047D02*
X246830952Y-52346428D01*
X246783333Y-52298809D01*
X246735714Y-52203571D01*
X246735714Y-52108333D01*
X247354761Y-51394047D02*
X247402380Y-51489285D01*
X247402380Y-51679761D01*
X247354761Y-51775000D01*
X247259523Y-51822619D01*
X246878571Y-51822619D01*
X246783333Y-51775000D01*
X246735714Y-51679761D01*
X246735714Y-51489285D01*
X246783333Y-51394047D01*
X246878571Y-51346428D01*
X246973809Y-51346428D01*
X247069047Y-51822619D01*
X247354761Y-50536904D02*
X247402380Y-50632142D01*
X247402380Y-50822619D01*
X247354761Y-50917857D01*
X247259523Y-50965476D01*
X246878571Y-50965476D01*
X246783333Y-50917857D01*
X246735714Y-50822619D01*
X246735714Y-50632142D01*
X246783333Y-50536904D01*
X246878571Y-50489285D01*
X246973809Y-50489285D01*
X247069047Y-50965476D01*
X246735714Y-50060714D02*
X247402380Y-50060714D01*
X246830952Y-50060714D02*
X246783333Y-50013095D01*
X246735714Y-49917857D01*
X246735714Y-49775000D01*
X246783333Y-49679761D01*
X246878571Y-49632142D01*
X247402380Y-49632142D01*
X247497619Y-49394047D02*
X247497619Y-48632142D01*
X247402380Y-48394047D02*
X246402380Y-48394047D01*
X246783333Y-48394047D02*
X246735714Y-48298809D01*
X246735714Y-48108333D01*
X246783333Y-48013095D01*
X246830952Y-47965476D01*
X246926190Y-47917857D01*
X247211904Y-47917857D01*
X247307142Y-47965476D01*
X247354761Y-48013095D01*
X247402380Y-48108333D01*
X247402380Y-48298809D01*
X247354761Y-48394047D01*
X247402380Y-47346428D02*
X247354761Y-47441666D01*
X247259523Y-47489285D01*
X246402380Y-47489285D01*
X247402380Y-46536904D02*
X246878571Y-46536904D01*
X246783333Y-46584523D01*
X246735714Y-46679761D01*
X246735714Y-46870238D01*
X246783333Y-46965476D01*
X247354761Y-46536904D02*
X247402380Y-46632142D01*
X247402380Y-46870238D01*
X247354761Y-46965476D01*
X247259523Y-47013095D01*
X247164285Y-47013095D01*
X247069047Y-46965476D01*
X247021428Y-46870238D01*
X247021428Y-46632142D01*
X246973809Y-46536904D01*
X246735714Y-46060714D02*
X247402380Y-46060714D01*
X246830952Y-46060714D02*
X246783333Y-46013095D01*
X246735714Y-45917857D01*
X246735714Y-45775000D01*
X246783333Y-45679761D01*
X246878571Y-45632142D01*
X247402380Y-45632142D01*
X247402380Y-45155952D02*
X246402380Y-45155952D01*
X247021428Y-45060714D02*
X247402380Y-44775000D01*
X246735714Y-44775000D02*
X247116666Y-45155952D01*
X237485714Y-57993571D02*
X238152380Y-57993571D01*
X237580952Y-57993571D02*
X237533333Y-57945952D01*
X237485714Y-57850714D01*
X237485714Y-57707857D01*
X237533333Y-57612619D01*
X237628571Y-57565000D01*
X238152380Y-57565000D01*
X238152380Y-56945952D02*
X238104761Y-57041190D01*
X238057142Y-57088809D01*
X237961904Y-57136428D01*
X237676190Y-57136428D01*
X237580952Y-57088809D01*
X237533333Y-57041190D01*
X237485714Y-56945952D01*
X237485714Y-56803095D01*
X237533333Y-56707857D01*
X237580952Y-56660238D01*
X237676190Y-56612619D01*
X237961904Y-56612619D01*
X238057142Y-56660238D01*
X238104761Y-56707857D01*
X238152380Y-56803095D01*
X238152380Y-56945952D01*
X237485714Y-56184047D02*
X238152380Y-56184047D01*
X237580952Y-56184047D02*
X237533333Y-56136428D01*
X237485714Y-56041190D01*
X237485714Y-55898333D01*
X237533333Y-55803095D01*
X237628571Y-55755476D01*
X238152380Y-55755476D01*
X238247619Y-55517380D02*
X238247619Y-54755476D01*
X238152380Y-54517380D02*
X237152380Y-54517380D01*
X237533333Y-54517380D02*
X237485714Y-54422142D01*
X237485714Y-54231666D01*
X237533333Y-54136428D01*
X237580952Y-54088809D01*
X237676190Y-54041190D01*
X237961904Y-54041190D01*
X238057142Y-54088809D01*
X238104761Y-54136428D01*
X238152380Y-54231666D01*
X238152380Y-54422142D01*
X238104761Y-54517380D01*
X238152380Y-53469761D02*
X238104761Y-53565000D01*
X238009523Y-53612619D01*
X237152380Y-53612619D01*
X238152380Y-52660238D02*
X237628571Y-52660238D01*
X237533333Y-52707857D01*
X237485714Y-52803095D01*
X237485714Y-52993571D01*
X237533333Y-53088809D01*
X238104761Y-52660238D02*
X238152380Y-52755476D01*
X238152380Y-52993571D01*
X238104761Y-53088809D01*
X238009523Y-53136428D01*
X237914285Y-53136428D01*
X237819047Y-53088809D01*
X237771428Y-52993571D01*
X237771428Y-52755476D01*
X237723809Y-52660238D01*
X237485714Y-52184047D02*
X238152380Y-52184047D01*
X237580952Y-52184047D02*
X237533333Y-52136428D01*
X237485714Y-52041190D01*
X237485714Y-51898333D01*
X237533333Y-51803095D01*
X237628571Y-51755476D01*
X238152380Y-51755476D01*
X238152380Y-51279285D02*
X237152380Y-51279285D01*
X237771428Y-51184047D02*
X238152380Y-50898333D01*
X237485714Y-50898333D02*
X237866666Y-51279285D01*
X237104761Y-49755476D02*
X238390476Y-50612619D01*
X238152380Y-49422142D02*
X237152380Y-49422142D01*
X237533333Y-49422142D02*
X237485714Y-49326904D01*
X237485714Y-49136428D01*
X237533333Y-49041190D01*
X237580952Y-48993571D01*
X237676190Y-48945952D01*
X237961904Y-48945952D01*
X238057142Y-48993571D01*
X238104761Y-49041190D01*
X238152380Y-49136428D01*
X238152380Y-49326904D01*
X238104761Y-49422142D01*
X238152380Y-48374523D02*
X238104761Y-48469761D01*
X238009523Y-48517380D01*
X237152380Y-48517380D01*
X238152380Y-47565000D02*
X237628571Y-47565000D01*
X237533333Y-47612619D01*
X237485714Y-47707857D01*
X237485714Y-47898333D01*
X237533333Y-47993571D01*
X238104761Y-47565000D02*
X238152380Y-47660238D01*
X238152380Y-47898333D01*
X238104761Y-47993571D01*
X238009523Y-48041190D01*
X237914285Y-48041190D01*
X237819047Y-47993571D01*
X237771428Y-47898333D01*
X237771428Y-47660238D01*
X237723809Y-47565000D01*
X237485714Y-47088809D02*
X238152380Y-47088809D01*
X237580952Y-47088809D02*
X237533333Y-47041190D01*
X237485714Y-46945952D01*
X237485714Y-46803095D01*
X237533333Y-46707857D01*
X237628571Y-46660238D01*
X238152380Y-46660238D01*
X238152380Y-46184047D02*
X237152380Y-46184047D01*
X237771428Y-46088809D02*
X238152380Y-45803095D01*
X237485714Y-45803095D02*
X237866666Y-46184047D01*
X238152380Y-44088809D02*
X238152380Y-44660238D01*
X238152380Y-44374523D02*
X237152380Y-44374523D01*
X237295238Y-44469761D01*
X237390476Y-44565000D01*
X237438095Y-44660238D01*
G04 #@! TO.C,U2*
X213352380Y-77286904D02*
X214161904Y-77286904D01*
X214257142Y-77239285D01*
X214304761Y-77191666D01*
X214352380Y-77096428D01*
X214352380Y-76905952D01*
X214304761Y-76810714D01*
X214257142Y-76763095D01*
X214161904Y-76715476D01*
X213352380Y-76715476D01*
X213447619Y-76286904D02*
X213400000Y-76239285D01*
X213352380Y-76144047D01*
X213352380Y-75905952D01*
X213400000Y-75810714D01*
X213447619Y-75763095D01*
X213542857Y-75715476D01*
X213638095Y-75715476D01*
X213780952Y-75763095D01*
X214352380Y-76334523D01*
X214352380Y-75715476D01*
X209402380Y-79596428D02*
X208735714Y-79596428D01*
X208402380Y-79596428D02*
X208450000Y-79644047D01*
X208497619Y-79596428D01*
X208450000Y-79548809D01*
X208402380Y-79596428D01*
X208497619Y-79596428D01*
X208735714Y-79120238D02*
X209402380Y-79120238D01*
X208830952Y-79120238D02*
X208783333Y-79072619D01*
X208735714Y-78977380D01*
X208735714Y-78834523D01*
X208783333Y-78739285D01*
X208878571Y-78691666D01*
X209402380Y-78691666D01*
X208735714Y-78310714D02*
X209402380Y-78072619D01*
X208735714Y-77834523D01*
X209354761Y-77072619D02*
X209402380Y-77167857D01*
X209402380Y-77358333D01*
X209354761Y-77453571D01*
X209259523Y-77501190D01*
X208878571Y-77501190D01*
X208783333Y-77453571D01*
X208735714Y-77358333D01*
X208735714Y-77167857D01*
X208783333Y-77072619D01*
X208878571Y-77025000D01*
X208973809Y-77025000D01*
X209069047Y-77501190D01*
X209402380Y-76596428D02*
X208735714Y-76596428D01*
X208926190Y-76596428D02*
X208830952Y-76548809D01*
X208783333Y-76501190D01*
X208735714Y-76405952D01*
X208735714Y-76310714D01*
X208735714Y-76120238D02*
X208735714Y-75739285D01*
X208402380Y-75977380D02*
X209259523Y-75977380D01*
X209354761Y-75929761D01*
X209402380Y-75834523D01*
X209402380Y-75739285D01*
X209354761Y-75025000D02*
X209402380Y-75120238D01*
X209402380Y-75310714D01*
X209354761Y-75405952D01*
X209259523Y-75453571D01*
X208878571Y-75453571D01*
X208783333Y-75405952D01*
X208735714Y-75310714D01*
X208735714Y-75120238D01*
X208783333Y-75025000D01*
X208878571Y-74977380D01*
X208973809Y-74977380D01*
X209069047Y-75453571D01*
X209402380Y-74548809D02*
X208735714Y-74548809D01*
X208926190Y-74548809D02*
X208830952Y-74501190D01*
X208783333Y-74453571D01*
X208735714Y-74358333D01*
X208735714Y-74263095D01*
X208497619Y-73977380D02*
X208450000Y-73929761D01*
X208402380Y-73834523D01*
X208402380Y-73596428D01*
X208450000Y-73501190D01*
X208497619Y-73453571D01*
X208592857Y-73405952D01*
X208688095Y-73405952D01*
X208830952Y-73453571D01*
X209402380Y-74025000D01*
X209402380Y-73405952D01*
G04 #@! TO.C,J1_Blue_enab*
X205302380Y-81298809D02*
X206016666Y-81298809D01*
X206159523Y-81346428D01*
X206254761Y-81441666D01*
X206302380Y-81584523D01*
X206302380Y-81679761D01*
X206302380Y-80298809D02*
X206302380Y-80870238D01*
X206302380Y-80584523D02*
X205302380Y-80584523D01*
X205445238Y-80679761D01*
X205540476Y-80775000D01*
X205588095Y-80870238D01*
X206397619Y-80108333D02*
X206397619Y-79346428D01*
X205778571Y-78775000D02*
X205826190Y-78632142D01*
X205873809Y-78584523D01*
X205969047Y-78536904D01*
X206111904Y-78536904D01*
X206207142Y-78584523D01*
X206254761Y-78632142D01*
X206302380Y-78727380D01*
X206302380Y-79108333D01*
X205302380Y-79108333D01*
X205302380Y-78775000D01*
X205350000Y-78679761D01*
X205397619Y-78632142D01*
X205492857Y-78584523D01*
X205588095Y-78584523D01*
X205683333Y-78632142D01*
X205730952Y-78679761D01*
X205778571Y-78775000D01*
X205778571Y-79108333D01*
X206302380Y-77965476D02*
X206254761Y-78060714D01*
X206159523Y-78108333D01*
X205302380Y-78108333D01*
X205635714Y-77155952D02*
X206302380Y-77155952D01*
X205635714Y-77584523D02*
X206159523Y-77584523D01*
X206254761Y-77536904D01*
X206302380Y-77441666D01*
X206302380Y-77298809D01*
X206254761Y-77203571D01*
X206207142Y-77155952D01*
X206254761Y-76298809D02*
X206302380Y-76394047D01*
X206302380Y-76584523D01*
X206254761Y-76679761D01*
X206159523Y-76727380D01*
X205778571Y-76727380D01*
X205683333Y-76679761D01*
X205635714Y-76584523D01*
X205635714Y-76394047D01*
X205683333Y-76298809D01*
X205778571Y-76251190D01*
X205873809Y-76251190D01*
X205969047Y-76727380D01*
X206397619Y-76060714D02*
X206397619Y-75298809D01*
X206254761Y-74679761D02*
X206302380Y-74775000D01*
X206302380Y-74965476D01*
X206254761Y-75060714D01*
X206159523Y-75108333D01*
X205778571Y-75108333D01*
X205683333Y-75060714D01*
X205635714Y-74965476D01*
X205635714Y-74775000D01*
X205683333Y-74679761D01*
X205778571Y-74632142D01*
X205873809Y-74632142D01*
X205969047Y-75108333D01*
X205635714Y-74203571D02*
X206302380Y-74203571D01*
X205730952Y-74203571D02*
X205683333Y-74155952D01*
X205635714Y-74060714D01*
X205635714Y-73917857D01*
X205683333Y-73822619D01*
X205778571Y-73775000D01*
X206302380Y-73775000D01*
X206302380Y-72870238D02*
X205778571Y-72870238D01*
X205683333Y-72917857D01*
X205635714Y-73013095D01*
X205635714Y-73203571D01*
X205683333Y-73298809D01*
X206254761Y-72870238D02*
X206302380Y-72965476D01*
X206302380Y-73203571D01*
X206254761Y-73298809D01*
X206159523Y-73346428D01*
X206064285Y-73346428D01*
X205969047Y-73298809D01*
X205921428Y-73203571D01*
X205921428Y-72965476D01*
X205873809Y-72870238D01*
X206302380Y-72394047D02*
X205302380Y-72394047D01*
X205683333Y-72394047D02*
X205635714Y-72298809D01*
X205635714Y-72108333D01*
X205683333Y-72013095D01*
X205730952Y-71965476D01*
X205826190Y-71917857D01*
X206111904Y-71917857D01*
X206207142Y-71965476D01*
X206254761Y-72013095D01*
X206302380Y-72108333D01*
X206302380Y-72298809D01*
X206254761Y-72394047D01*
X196635714Y-81638809D02*
X197302380Y-81638809D01*
X196730952Y-81638809D02*
X196683333Y-81591190D01*
X196635714Y-81495952D01*
X196635714Y-81353095D01*
X196683333Y-81257857D01*
X196778571Y-81210238D01*
X197302380Y-81210238D01*
X197302380Y-80591190D02*
X197254761Y-80686428D01*
X197207142Y-80734047D01*
X197111904Y-80781666D01*
X196826190Y-80781666D01*
X196730952Y-80734047D01*
X196683333Y-80686428D01*
X196635714Y-80591190D01*
X196635714Y-80448333D01*
X196683333Y-80353095D01*
X196730952Y-80305476D01*
X196826190Y-80257857D01*
X197111904Y-80257857D01*
X197207142Y-80305476D01*
X197254761Y-80353095D01*
X197302380Y-80448333D01*
X197302380Y-80591190D01*
X196635714Y-79829285D02*
X197302380Y-79829285D01*
X196730952Y-79829285D02*
X196683333Y-79781666D01*
X196635714Y-79686428D01*
X196635714Y-79543571D01*
X196683333Y-79448333D01*
X196778571Y-79400714D01*
X197302380Y-79400714D01*
X197397619Y-79162619D02*
X197397619Y-78400714D01*
X197302380Y-78162619D02*
X196635714Y-78162619D01*
X196302380Y-78162619D02*
X196350000Y-78210238D01*
X196397619Y-78162619D01*
X196350000Y-78115000D01*
X196302380Y-78162619D01*
X196397619Y-78162619D01*
X196635714Y-77686428D02*
X197302380Y-77686428D01*
X196730952Y-77686428D02*
X196683333Y-77638809D01*
X196635714Y-77543571D01*
X196635714Y-77400714D01*
X196683333Y-77305476D01*
X196778571Y-77257857D01*
X197302380Y-77257857D01*
X196635714Y-76876904D02*
X197302380Y-76638809D01*
X196635714Y-76400714D01*
X196254761Y-75305476D02*
X197540476Y-76162619D01*
X197302380Y-74972142D02*
X196635714Y-74972142D01*
X196302380Y-74972142D02*
X196350000Y-75019761D01*
X196397619Y-74972142D01*
X196350000Y-74924523D01*
X196302380Y-74972142D01*
X196397619Y-74972142D01*
X196635714Y-74495952D02*
X197302380Y-74495952D01*
X196730952Y-74495952D02*
X196683333Y-74448333D01*
X196635714Y-74353095D01*
X196635714Y-74210238D01*
X196683333Y-74115000D01*
X196778571Y-74067380D01*
X197302380Y-74067380D01*
X196635714Y-73686428D02*
X197302380Y-73448333D01*
X196635714Y-73210238D01*
X196302380Y-72162619D02*
X196302380Y-71543571D01*
X196683333Y-71876904D01*
X196683333Y-71734047D01*
X196730952Y-71638809D01*
X196778571Y-71591190D01*
X196873809Y-71543571D01*
X197111904Y-71543571D01*
X197207142Y-71591190D01*
X197254761Y-71638809D01*
X197302380Y-71734047D01*
X197302380Y-72019761D01*
X197254761Y-72115000D01*
X197207142Y-72162619D01*
G04 #@! TO.C,J2_Green_PWM*
X246402380Y-81632142D02*
X247116666Y-81632142D01*
X247259523Y-81679761D01*
X247354761Y-81775000D01*
X247402380Y-81917857D01*
X247402380Y-82013095D01*
X246497619Y-81203571D02*
X246450000Y-81155952D01*
X246402380Y-81060714D01*
X246402380Y-80822619D01*
X246450000Y-80727380D01*
X246497619Y-80679761D01*
X246592857Y-80632142D01*
X246688095Y-80632142D01*
X246830952Y-80679761D01*
X247402380Y-81251190D01*
X247402380Y-80632142D01*
X247497619Y-80441666D02*
X247497619Y-79679761D01*
X246450000Y-78917857D02*
X246402380Y-79013095D01*
X246402380Y-79155952D01*
X246450000Y-79298809D01*
X246545238Y-79394047D01*
X246640476Y-79441666D01*
X246830952Y-79489285D01*
X246973809Y-79489285D01*
X247164285Y-79441666D01*
X247259523Y-79394047D01*
X247354761Y-79298809D01*
X247402380Y-79155952D01*
X247402380Y-79060714D01*
X247354761Y-78917857D01*
X247307142Y-78870238D01*
X246973809Y-78870238D01*
X246973809Y-79060714D01*
X247402380Y-78441666D02*
X246735714Y-78441666D01*
X246926190Y-78441666D02*
X246830952Y-78394047D01*
X246783333Y-78346428D01*
X246735714Y-78251190D01*
X246735714Y-78155952D01*
X247354761Y-77441666D02*
X247402380Y-77536904D01*
X247402380Y-77727380D01*
X247354761Y-77822619D01*
X247259523Y-77870238D01*
X246878571Y-77870238D01*
X246783333Y-77822619D01*
X246735714Y-77727380D01*
X246735714Y-77536904D01*
X246783333Y-77441666D01*
X246878571Y-77394047D01*
X246973809Y-77394047D01*
X247069047Y-77870238D01*
X247354761Y-76584523D02*
X247402380Y-76679761D01*
X247402380Y-76870238D01*
X247354761Y-76965476D01*
X247259523Y-77013095D01*
X246878571Y-77013095D01*
X246783333Y-76965476D01*
X246735714Y-76870238D01*
X246735714Y-76679761D01*
X246783333Y-76584523D01*
X246878571Y-76536904D01*
X246973809Y-76536904D01*
X247069047Y-77013095D01*
X246735714Y-76108333D02*
X247402380Y-76108333D01*
X246830952Y-76108333D02*
X246783333Y-76060714D01*
X246735714Y-75965476D01*
X246735714Y-75822619D01*
X246783333Y-75727380D01*
X246878571Y-75679761D01*
X247402380Y-75679761D01*
X247497619Y-75441666D02*
X247497619Y-74679761D01*
X247402380Y-74441666D02*
X246402380Y-74441666D01*
X246402380Y-74060714D01*
X246450000Y-73965476D01*
X246497619Y-73917857D01*
X246592857Y-73870238D01*
X246735714Y-73870238D01*
X246830952Y-73917857D01*
X246878571Y-73965476D01*
X246926190Y-74060714D01*
X246926190Y-74441666D01*
X246402380Y-73536904D02*
X247402380Y-73298809D01*
X246688095Y-73108333D01*
X247402380Y-72917857D01*
X246402380Y-72679761D01*
X247402380Y-72298809D02*
X246402380Y-72298809D01*
X247116666Y-71965476D01*
X246402380Y-71632142D01*
X247402380Y-71632142D01*
X237735714Y-81588809D02*
X238402380Y-81588809D01*
X237830952Y-81588809D02*
X237783333Y-81541190D01*
X237735714Y-81445952D01*
X237735714Y-81303095D01*
X237783333Y-81207857D01*
X237878571Y-81160238D01*
X238402380Y-81160238D01*
X238402380Y-80541190D02*
X238354761Y-80636428D01*
X238307142Y-80684047D01*
X238211904Y-80731666D01*
X237926190Y-80731666D01*
X237830952Y-80684047D01*
X237783333Y-80636428D01*
X237735714Y-80541190D01*
X237735714Y-80398333D01*
X237783333Y-80303095D01*
X237830952Y-80255476D01*
X237926190Y-80207857D01*
X238211904Y-80207857D01*
X238307142Y-80255476D01*
X238354761Y-80303095D01*
X238402380Y-80398333D01*
X238402380Y-80541190D01*
X237735714Y-79779285D02*
X238402380Y-79779285D01*
X237830952Y-79779285D02*
X237783333Y-79731666D01*
X237735714Y-79636428D01*
X237735714Y-79493571D01*
X237783333Y-79398333D01*
X237878571Y-79350714D01*
X238402380Y-79350714D01*
X238497619Y-79112619D02*
X238497619Y-78350714D01*
X238402380Y-78112619D02*
X237735714Y-78112619D01*
X237402380Y-78112619D02*
X237450000Y-78160238D01*
X237497619Y-78112619D01*
X237450000Y-78065000D01*
X237402380Y-78112619D01*
X237497619Y-78112619D01*
X237735714Y-77636428D02*
X238402380Y-77636428D01*
X237830952Y-77636428D02*
X237783333Y-77588809D01*
X237735714Y-77493571D01*
X237735714Y-77350714D01*
X237783333Y-77255476D01*
X237878571Y-77207857D01*
X238402380Y-77207857D01*
X237735714Y-76826904D02*
X238402380Y-76588809D01*
X237735714Y-76350714D01*
X237354761Y-75255476D02*
X238640476Y-76112619D01*
X238402380Y-74922142D02*
X237735714Y-74922142D01*
X237402380Y-74922142D02*
X237450000Y-74969761D01*
X237497619Y-74922142D01*
X237450000Y-74874523D01*
X237402380Y-74922142D01*
X237497619Y-74922142D01*
X237735714Y-74445952D02*
X238402380Y-74445952D01*
X237830952Y-74445952D02*
X237783333Y-74398333D01*
X237735714Y-74303095D01*
X237735714Y-74160238D01*
X237783333Y-74065000D01*
X237878571Y-74017380D01*
X238402380Y-74017380D01*
X237735714Y-73636428D02*
X238402380Y-73398333D01*
X237735714Y-73160238D01*
X238402380Y-71493571D02*
X238402380Y-72065000D01*
X238402380Y-71779285D02*
X237402380Y-71779285D01*
X237545238Y-71874523D01*
X237640476Y-71969761D01*
X237688095Y-72065000D01*
G04 #@! TO.C,J3_Red_PWM*
X225902380Y-80394047D02*
X226616666Y-80394047D01*
X226759523Y-80441666D01*
X226854761Y-80536904D01*
X226902380Y-80679761D01*
X226902380Y-80775000D01*
X225902380Y-80013095D02*
X225902380Y-79394047D01*
X226283333Y-79727380D01*
X226283333Y-79584523D01*
X226330952Y-79489285D01*
X226378571Y-79441666D01*
X226473809Y-79394047D01*
X226711904Y-79394047D01*
X226807142Y-79441666D01*
X226854761Y-79489285D01*
X226902380Y-79584523D01*
X226902380Y-79870238D01*
X226854761Y-79965476D01*
X226807142Y-80013095D01*
X226997619Y-79203571D02*
X226997619Y-78441666D01*
X226902380Y-77632142D02*
X226426190Y-77965476D01*
X226902380Y-78203571D02*
X225902380Y-78203571D01*
X225902380Y-77822619D01*
X225950000Y-77727380D01*
X225997619Y-77679761D01*
X226092857Y-77632142D01*
X226235714Y-77632142D01*
X226330952Y-77679761D01*
X226378571Y-77727380D01*
X226426190Y-77822619D01*
X226426190Y-78203571D01*
X226854761Y-76822619D02*
X226902380Y-76917857D01*
X226902380Y-77108333D01*
X226854761Y-77203571D01*
X226759523Y-77251190D01*
X226378571Y-77251190D01*
X226283333Y-77203571D01*
X226235714Y-77108333D01*
X226235714Y-76917857D01*
X226283333Y-76822619D01*
X226378571Y-76775000D01*
X226473809Y-76775000D01*
X226569047Y-77251190D01*
X226902380Y-75917857D02*
X225902380Y-75917857D01*
X226854761Y-75917857D02*
X226902380Y-76013095D01*
X226902380Y-76203571D01*
X226854761Y-76298809D01*
X226807142Y-76346428D01*
X226711904Y-76394047D01*
X226426190Y-76394047D01*
X226330952Y-76346428D01*
X226283333Y-76298809D01*
X226235714Y-76203571D01*
X226235714Y-76013095D01*
X226283333Y-75917857D01*
X226997619Y-75679761D02*
X226997619Y-74917857D01*
X226902380Y-74679761D02*
X225902380Y-74679761D01*
X225902380Y-74298809D01*
X225950000Y-74203571D01*
X225997619Y-74155952D01*
X226092857Y-74108333D01*
X226235714Y-74108333D01*
X226330952Y-74155952D01*
X226378571Y-74203571D01*
X226426190Y-74298809D01*
X226426190Y-74679761D01*
X225902380Y-73775000D02*
X226902380Y-73536904D01*
X226188095Y-73346428D01*
X226902380Y-73155952D01*
X225902380Y-72917857D01*
X226902380Y-72536904D02*
X225902380Y-72536904D01*
X226616666Y-72203571D01*
X225902380Y-71870238D01*
X226902380Y-71870238D01*
X217235714Y-81588809D02*
X217902380Y-81588809D01*
X217330952Y-81588809D02*
X217283333Y-81541190D01*
X217235714Y-81445952D01*
X217235714Y-81303095D01*
X217283333Y-81207857D01*
X217378571Y-81160238D01*
X217902380Y-81160238D01*
X217902380Y-80541190D02*
X217854761Y-80636428D01*
X217807142Y-80684047D01*
X217711904Y-80731666D01*
X217426190Y-80731666D01*
X217330952Y-80684047D01*
X217283333Y-80636428D01*
X217235714Y-80541190D01*
X217235714Y-80398333D01*
X217283333Y-80303095D01*
X217330952Y-80255476D01*
X217426190Y-80207857D01*
X217711904Y-80207857D01*
X217807142Y-80255476D01*
X217854761Y-80303095D01*
X217902380Y-80398333D01*
X217902380Y-80541190D01*
X217235714Y-79779285D02*
X217902380Y-79779285D01*
X217330952Y-79779285D02*
X217283333Y-79731666D01*
X217235714Y-79636428D01*
X217235714Y-79493571D01*
X217283333Y-79398333D01*
X217378571Y-79350714D01*
X217902380Y-79350714D01*
X217997619Y-79112619D02*
X217997619Y-78350714D01*
X217902380Y-78112619D02*
X217235714Y-78112619D01*
X216902380Y-78112619D02*
X216950000Y-78160238D01*
X216997619Y-78112619D01*
X216950000Y-78065000D01*
X216902380Y-78112619D01*
X216997619Y-78112619D01*
X217235714Y-77636428D02*
X217902380Y-77636428D01*
X217330952Y-77636428D02*
X217283333Y-77588809D01*
X217235714Y-77493571D01*
X217235714Y-77350714D01*
X217283333Y-77255476D01*
X217378571Y-77207857D01*
X217902380Y-77207857D01*
X217235714Y-76826904D02*
X217902380Y-76588809D01*
X217235714Y-76350714D01*
X216854761Y-75255476D02*
X218140476Y-76112619D01*
X217902380Y-74922142D02*
X217235714Y-74922142D01*
X216902380Y-74922142D02*
X216950000Y-74969761D01*
X216997619Y-74922142D01*
X216950000Y-74874523D01*
X216902380Y-74922142D01*
X216997619Y-74922142D01*
X217235714Y-74445952D02*
X217902380Y-74445952D01*
X217330952Y-74445952D02*
X217283333Y-74398333D01*
X217235714Y-74303095D01*
X217235714Y-74160238D01*
X217283333Y-74065000D01*
X217378571Y-74017380D01*
X217902380Y-74017380D01*
X217235714Y-73636428D02*
X217902380Y-73398333D01*
X217235714Y-73160238D01*
X216997619Y-72065000D02*
X216950000Y-72017380D01*
X216902380Y-71922142D01*
X216902380Y-71684047D01*
X216950000Y-71588809D01*
X216997619Y-71541190D01*
X217092857Y-71493571D01*
X217188095Y-71493571D01*
X217330952Y-71541190D01*
X217902380Y-72112619D01*
X217902380Y-71493571D01*
G04 #@! TO.C,J5*
X258366666Y-57527380D02*
X258366666Y-58241666D01*
X258319047Y-58384523D01*
X258223809Y-58479761D01*
X258080952Y-58527380D01*
X257985714Y-58527380D01*
X259319047Y-57527380D02*
X258842857Y-57527380D01*
X258795238Y-58003571D01*
X258842857Y-57955952D01*
X258938095Y-57908333D01*
X259176190Y-57908333D01*
X259271428Y-57955952D01*
X259319047Y-58003571D01*
X259366666Y-58098809D01*
X259366666Y-58336904D01*
X259319047Y-58432142D01*
X259271428Y-58479761D01*
X259176190Y-58527380D01*
X258938095Y-58527380D01*
X258842857Y-58479761D01*
X258795238Y-58432142D01*
G04 #@! TO.C,J6_Blue_Enab*
X205402380Y-68572619D02*
X206116666Y-68572619D01*
X206259523Y-68620238D01*
X206354761Y-68715476D01*
X206402380Y-68858333D01*
X206402380Y-68953571D01*
X205402380Y-67667857D02*
X205402380Y-67858333D01*
X205450000Y-67953571D01*
X205497619Y-68001190D01*
X205640476Y-68096428D01*
X205830952Y-68144047D01*
X206211904Y-68144047D01*
X206307142Y-68096428D01*
X206354761Y-68048809D01*
X206402380Y-67953571D01*
X206402380Y-67763095D01*
X206354761Y-67667857D01*
X206307142Y-67620238D01*
X206211904Y-67572619D01*
X205973809Y-67572619D01*
X205878571Y-67620238D01*
X205830952Y-67667857D01*
X205783333Y-67763095D01*
X205783333Y-67953571D01*
X205830952Y-68048809D01*
X205878571Y-68096428D01*
X205973809Y-68144047D01*
X206497619Y-67382142D02*
X206497619Y-66620238D01*
X205878571Y-66048809D02*
X205926190Y-65905952D01*
X205973809Y-65858333D01*
X206069047Y-65810714D01*
X206211904Y-65810714D01*
X206307142Y-65858333D01*
X206354761Y-65905952D01*
X206402380Y-66001190D01*
X206402380Y-66382142D01*
X205402380Y-66382142D01*
X205402380Y-66048809D01*
X205450000Y-65953571D01*
X205497619Y-65905952D01*
X205592857Y-65858333D01*
X205688095Y-65858333D01*
X205783333Y-65905952D01*
X205830952Y-65953571D01*
X205878571Y-66048809D01*
X205878571Y-66382142D01*
X206402380Y-65239285D02*
X206354761Y-65334523D01*
X206259523Y-65382142D01*
X205402380Y-65382142D01*
X205735714Y-64429761D02*
X206402380Y-64429761D01*
X205735714Y-64858333D02*
X206259523Y-64858333D01*
X206354761Y-64810714D01*
X206402380Y-64715476D01*
X206402380Y-64572619D01*
X206354761Y-64477380D01*
X206307142Y-64429761D01*
X206354761Y-63572619D02*
X206402380Y-63667857D01*
X206402380Y-63858333D01*
X206354761Y-63953571D01*
X206259523Y-64001190D01*
X205878571Y-64001190D01*
X205783333Y-63953571D01*
X205735714Y-63858333D01*
X205735714Y-63667857D01*
X205783333Y-63572619D01*
X205878571Y-63525000D01*
X205973809Y-63525000D01*
X206069047Y-64001190D01*
X206497619Y-63334523D02*
X206497619Y-62572619D01*
X205878571Y-62334523D02*
X205878571Y-62001190D01*
X206402380Y-61858333D02*
X206402380Y-62334523D01*
X205402380Y-62334523D01*
X205402380Y-61858333D01*
X205735714Y-61429761D02*
X206402380Y-61429761D01*
X205830952Y-61429761D02*
X205783333Y-61382142D01*
X205735714Y-61286904D01*
X205735714Y-61144047D01*
X205783333Y-61048809D01*
X205878571Y-61001190D01*
X206402380Y-61001190D01*
X206402380Y-60096428D02*
X205878571Y-60096428D01*
X205783333Y-60144047D01*
X205735714Y-60239285D01*
X205735714Y-60429761D01*
X205783333Y-60525000D01*
X206354761Y-60096428D02*
X206402380Y-60191666D01*
X206402380Y-60429761D01*
X206354761Y-60525000D01*
X206259523Y-60572619D01*
X206164285Y-60572619D01*
X206069047Y-60525000D01*
X206021428Y-60429761D01*
X206021428Y-60191666D01*
X205973809Y-60096428D01*
X206402380Y-59620238D02*
X205402380Y-59620238D01*
X205783333Y-59620238D02*
X205735714Y-59525000D01*
X205735714Y-59334523D01*
X205783333Y-59239285D01*
X205830952Y-59191666D01*
X205926190Y-59144047D01*
X206211904Y-59144047D01*
X206307142Y-59191666D01*
X206354761Y-59239285D01*
X206402380Y-59334523D01*
X206402380Y-59525000D01*
X206354761Y-59620238D01*
G04 #@! TO.C,J7_Red_enab*
X225902380Y-68036904D02*
X226616666Y-68036904D01*
X226759523Y-68084523D01*
X226854761Y-68179761D01*
X226902380Y-68322619D01*
X226902380Y-68417857D01*
X225902380Y-67655952D02*
X225902380Y-66989285D01*
X226902380Y-67417857D01*
X226997619Y-66846428D02*
X226997619Y-66084523D01*
X226902380Y-65275000D02*
X226426190Y-65608333D01*
X226902380Y-65846428D02*
X225902380Y-65846428D01*
X225902380Y-65465476D01*
X225950000Y-65370238D01*
X225997619Y-65322619D01*
X226092857Y-65275000D01*
X226235714Y-65275000D01*
X226330952Y-65322619D01*
X226378571Y-65370238D01*
X226426190Y-65465476D01*
X226426190Y-65846428D01*
X226854761Y-64465476D02*
X226902380Y-64560714D01*
X226902380Y-64751190D01*
X226854761Y-64846428D01*
X226759523Y-64894047D01*
X226378571Y-64894047D01*
X226283333Y-64846428D01*
X226235714Y-64751190D01*
X226235714Y-64560714D01*
X226283333Y-64465476D01*
X226378571Y-64417857D01*
X226473809Y-64417857D01*
X226569047Y-64894047D01*
X226902380Y-63560714D02*
X225902380Y-63560714D01*
X226854761Y-63560714D02*
X226902380Y-63655952D01*
X226902380Y-63846428D01*
X226854761Y-63941666D01*
X226807142Y-63989285D01*
X226711904Y-64036904D01*
X226426190Y-64036904D01*
X226330952Y-63989285D01*
X226283333Y-63941666D01*
X226235714Y-63846428D01*
X226235714Y-63655952D01*
X226283333Y-63560714D01*
X226997619Y-63322619D02*
X226997619Y-62560714D01*
X226854761Y-61941666D02*
X226902380Y-62036904D01*
X226902380Y-62227380D01*
X226854761Y-62322619D01*
X226759523Y-62370238D01*
X226378571Y-62370238D01*
X226283333Y-62322619D01*
X226235714Y-62227380D01*
X226235714Y-62036904D01*
X226283333Y-61941666D01*
X226378571Y-61894047D01*
X226473809Y-61894047D01*
X226569047Y-62370238D01*
X226235714Y-61465476D02*
X226902380Y-61465476D01*
X226330952Y-61465476D02*
X226283333Y-61417857D01*
X226235714Y-61322619D01*
X226235714Y-61179761D01*
X226283333Y-61084523D01*
X226378571Y-61036904D01*
X226902380Y-61036904D01*
X226902380Y-60132142D02*
X226378571Y-60132142D01*
X226283333Y-60179761D01*
X226235714Y-60275000D01*
X226235714Y-60465476D01*
X226283333Y-60560714D01*
X226854761Y-60132142D02*
X226902380Y-60227380D01*
X226902380Y-60465476D01*
X226854761Y-60560714D01*
X226759523Y-60608333D01*
X226664285Y-60608333D01*
X226569047Y-60560714D01*
X226521428Y-60465476D01*
X226521428Y-60227380D01*
X226473809Y-60132142D01*
X226902380Y-59655952D02*
X225902380Y-59655952D01*
X226283333Y-59655952D02*
X226235714Y-59560714D01*
X226235714Y-59370238D01*
X226283333Y-59275000D01*
X226330952Y-59227380D01*
X226426190Y-59179761D01*
X226711904Y-59179761D01*
X226807142Y-59227380D01*
X226854761Y-59275000D01*
X226902380Y-59370238D01*
X226902380Y-59560714D01*
X226854761Y-59655952D01*
G04 #@! TO.C,J9*
X254616666Y-44727380D02*
X254616666Y-45441666D01*
X254569047Y-45584523D01*
X254473809Y-45679761D01*
X254330952Y-45727380D01*
X254235714Y-45727380D01*
X255140476Y-45727380D02*
X255330952Y-45727380D01*
X255426190Y-45679761D01*
X255473809Y-45632142D01*
X255569047Y-45489285D01*
X255616666Y-45298809D01*
X255616666Y-44917857D01*
X255569047Y-44822619D01*
X255521428Y-44775000D01*
X255426190Y-44727380D01*
X255235714Y-44727380D01*
X255140476Y-44775000D01*
X255092857Y-44822619D01*
X255045238Y-44917857D01*
X255045238Y-45155952D01*
X255092857Y-45251190D01*
X255140476Y-45298809D01*
X255235714Y-45346428D01*
X255426190Y-45346428D01*
X255521428Y-45298809D01*
X255569047Y-45251190D01*
X255616666Y-45155952D01*
X251352380Y-52373571D02*
X250352380Y-52373571D01*
X250733333Y-52373571D02*
X250685714Y-52278333D01*
X250685714Y-52087857D01*
X250733333Y-51992619D01*
X250780952Y-51945000D01*
X250876190Y-51897380D01*
X251161904Y-51897380D01*
X251257142Y-51945000D01*
X251304761Y-51992619D01*
X251352380Y-52087857D01*
X251352380Y-52278333D01*
X251304761Y-52373571D01*
X251352380Y-51325952D02*
X251304761Y-51421190D01*
X251209523Y-51468809D01*
X250352380Y-51468809D01*
X251352380Y-50516428D02*
X250828571Y-50516428D01*
X250733333Y-50564047D01*
X250685714Y-50659285D01*
X250685714Y-50849761D01*
X250733333Y-50945000D01*
X251304761Y-50516428D02*
X251352380Y-50611666D01*
X251352380Y-50849761D01*
X251304761Y-50945000D01*
X251209523Y-50992619D01*
X251114285Y-50992619D01*
X251019047Y-50945000D01*
X250971428Y-50849761D01*
X250971428Y-50611666D01*
X250923809Y-50516428D01*
X250685714Y-50040238D02*
X251352380Y-50040238D01*
X250780952Y-50040238D02*
X250733333Y-49992619D01*
X250685714Y-49897380D01*
X250685714Y-49754523D01*
X250733333Y-49659285D01*
X250828571Y-49611666D01*
X251352380Y-49611666D01*
X251352380Y-49135476D02*
X250352380Y-49135476D01*
X250971428Y-49040238D02*
X251352380Y-48754523D01*
X250685714Y-48754523D02*
X251066666Y-49135476D01*
X251352380Y-48325952D02*
X250685714Y-48325952D01*
X250352380Y-48325952D02*
X250400000Y-48373571D01*
X250447619Y-48325952D01*
X250400000Y-48278333D01*
X250352380Y-48325952D01*
X250447619Y-48325952D01*
X250685714Y-47849761D02*
X251352380Y-47849761D01*
X250780952Y-47849761D02*
X250733333Y-47802142D01*
X250685714Y-47706904D01*
X250685714Y-47564047D01*
X250733333Y-47468809D01*
X250828571Y-47421190D01*
X251352380Y-47421190D01*
X250685714Y-46516428D02*
X251495238Y-46516428D01*
X251590476Y-46564047D01*
X251638095Y-46611666D01*
X251685714Y-46706904D01*
X251685714Y-46849761D01*
X251638095Y-46945000D01*
X251304761Y-46516428D02*
X251352380Y-46611666D01*
X251352380Y-46802142D01*
X251304761Y-46897380D01*
X251257142Y-46945000D01*
X251161904Y-46992619D01*
X250876190Y-46992619D01*
X250780952Y-46945000D01*
X250733333Y-46897380D01*
X250685714Y-46802142D01*
X250685714Y-46611666D01*
X250733333Y-46516428D01*
G04 #@! TO.C,J10_red_blank*
X225902380Y-56060714D02*
X226616666Y-56060714D01*
X226759523Y-56108333D01*
X226854761Y-56203571D01*
X226902380Y-56346428D01*
X226902380Y-56441666D01*
X226902380Y-55060714D02*
X226902380Y-55632142D01*
X226902380Y-55346428D02*
X225902380Y-55346428D01*
X226045238Y-55441666D01*
X226140476Y-55536904D01*
X226188095Y-55632142D01*
X225902380Y-54441666D02*
X225902380Y-54346428D01*
X225950000Y-54251190D01*
X225997619Y-54203571D01*
X226092857Y-54155952D01*
X226283333Y-54108333D01*
X226521428Y-54108333D01*
X226711904Y-54155952D01*
X226807142Y-54203571D01*
X226854761Y-54251190D01*
X226902380Y-54346428D01*
X226902380Y-54441666D01*
X226854761Y-54536904D01*
X226807142Y-54584523D01*
X226711904Y-54632142D01*
X226521428Y-54679761D01*
X226283333Y-54679761D01*
X226092857Y-54632142D01*
X225997619Y-54584523D01*
X225950000Y-54536904D01*
X225902380Y-54441666D01*
X226997619Y-53917857D02*
X226997619Y-53155952D01*
X226902380Y-52917857D02*
X226235714Y-52917857D01*
X226426190Y-52917857D02*
X226330952Y-52870238D01*
X226283333Y-52822619D01*
X226235714Y-52727380D01*
X226235714Y-52632142D01*
X226854761Y-51917857D02*
X226902380Y-52013095D01*
X226902380Y-52203571D01*
X226854761Y-52298809D01*
X226759523Y-52346428D01*
X226378571Y-52346428D01*
X226283333Y-52298809D01*
X226235714Y-52203571D01*
X226235714Y-52013095D01*
X226283333Y-51917857D01*
X226378571Y-51870238D01*
X226473809Y-51870238D01*
X226569047Y-52346428D01*
X226902380Y-51013095D02*
X225902380Y-51013095D01*
X226854761Y-51013095D02*
X226902380Y-51108333D01*
X226902380Y-51298809D01*
X226854761Y-51394047D01*
X226807142Y-51441666D01*
X226711904Y-51489285D01*
X226426190Y-51489285D01*
X226330952Y-51441666D01*
X226283333Y-51394047D01*
X226235714Y-51298809D01*
X226235714Y-51108333D01*
X226283333Y-51013095D01*
X226997619Y-50775000D02*
X226997619Y-50013095D01*
X226902380Y-49775000D02*
X225902380Y-49775000D01*
X226283333Y-49775000D02*
X226235714Y-49679761D01*
X226235714Y-49489285D01*
X226283333Y-49394047D01*
X226330952Y-49346428D01*
X226426190Y-49298809D01*
X226711904Y-49298809D01*
X226807142Y-49346428D01*
X226854761Y-49394047D01*
X226902380Y-49489285D01*
X226902380Y-49679761D01*
X226854761Y-49775000D01*
X226902380Y-48727380D02*
X226854761Y-48822619D01*
X226759523Y-48870238D01*
X225902380Y-48870238D01*
X226902380Y-47917857D02*
X226378571Y-47917857D01*
X226283333Y-47965476D01*
X226235714Y-48060714D01*
X226235714Y-48251190D01*
X226283333Y-48346428D01*
X226854761Y-47917857D02*
X226902380Y-48013095D01*
X226902380Y-48251190D01*
X226854761Y-48346428D01*
X226759523Y-48394047D01*
X226664285Y-48394047D01*
X226569047Y-48346428D01*
X226521428Y-48251190D01*
X226521428Y-48013095D01*
X226473809Y-47917857D01*
X226235714Y-47441666D02*
X226902380Y-47441666D01*
X226330952Y-47441666D02*
X226283333Y-47394047D01*
X226235714Y-47298809D01*
X226235714Y-47155952D01*
X226283333Y-47060714D01*
X226378571Y-47013095D01*
X226902380Y-47013095D01*
X226902380Y-46536904D02*
X225902380Y-46536904D01*
X226521428Y-46441666D02*
X226902380Y-46155952D01*
X226235714Y-46155952D02*
X226616666Y-46536904D01*
X217235714Y-57993571D02*
X217902380Y-57993571D01*
X217330952Y-57993571D02*
X217283333Y-57945952D01*
X217235714Y-57850714D01*
X217235714Y-57707857D01*
X217283333Y-57612619D01*
X217378571Y-57565000D01*
X217902380Y-57565000D01*
X217902380Y-56945952D02*
X217854761Y-57041190D01*
X217807142Y-57088809D01*
X217711904Y-57136428D01*
X217426190Y-57136428D01*
X217330952Y-57088809D01*
X217283333Y-57041190D01*
X217235714Y-56945952D01*
X217235714Y-56803095D01*
X217283333Y-56707857D01*
X217330952Y-56660238D01*
X217426190Y-56612619D01*
X217711904Y-56612619D01*
X217807142Y-56660238D01*
X217854761Y-56707857D01*
X217902380Y-56803095D01*
X217902380Y-56945952D01*
X217235714Y-56184047D02*
X217902380Y-56184047D01*
X217330952Y-56184047D02*
X217283333Y-56136428D01*
X217235714Y-56041190D01*
X217235714Y-55898333D01*
X217283333Y-55803095D01*
X217378571Y-55755476D01*
X217902380Y-55755476D01*
X217997619Y-55517380D02*
X217997619Y-54755476D01*
X217902380Y-54517380D02*
X216902380Y-54517380D01*
X217283333Y-54517380D02*
X217235714Y-54422142D01*
X217235714Y-54231666D01*
X217283333Y-54136428D01*
X217330952Y-54088809D01*
X217426190Y-54041190D01*
X217711904Y-54041190D01*
X217807142Y-54088809D01*
X217854761Y-54136428D01*
X217902380Y-54231666D01*
X217902380Y-54422142D01*
X217854761Y-54517380D01*
X217902380Y-53469761D02*
X217854761Y-53565000D01*
X217759523Y-53612619D01*
X216902380Y-53612619D01*
X217902380Y-52660238D02*
X217378571Y-52660238D01*
X217283333Y-52707857D01*
X217235714Y-52803095D01*
X217235714Y-52993571D01*
X217283333Y-53088809D01*
X217854761Y-52660238D02*
X217902380Y-52755476D01*
X217902380Y-52993571D01*
X217854761Y-53088809D01*
X217759523Y-53136428D01*
X217664285Y-53136428D01*
X217569047Y-53088809D01*
X217521428Y-52993571D01*
X217521428Y-52755476D01*
X217473809Y-52660238D01*
X217235714Y-52184047D02*
X217902380Y-52184047D01*
X217330952Y-52184047D02*
X217283333Y-52136428D01*
X217235714Y-52041190D01*
X217235714Y-51898333D01*
X217283333Y-51803095D01*
X217378571Y-51755476D01*
X217902380Y-51755476D01*
X217902380Y-51279285D02*
X216902380Y-51279285D01*
X217521428Y-51184047D02*
X217902380Y-50898333D01*
X217235714Y-50898333D02*
X217616666Y-51279285D01*
X216854761Y-49755476D02*
X218140476Y-50612619D01*
X217902380Y-49422142D02*
X216902380Y-49422142D01*
X217283333Y-49422142D02*
X217235714Y-49326904D01*
X217235714Y-49136428D01*
X217283333Y-49041190D01*
X217330952Y-48993571D01*
X217426190Y-48945952D01*
X217711904Y-48945952D01*
X217807142Y-48993571D01*
X217854761Y-49041190D01*
X217902380Y-49136428D01*
X217902380Y-49326904D01*
X217854761Y-49422142D01*
X217902380Y-48374523D02*
X217854761Y-48469761D01*
X217759523Y-48517380D01*
X216902380Y-48517380D01*
X217902380Y-47565000D02*
X217378571Y-47565000D01*
X217283333Y-47612619D01*
X217235714Y-47707857D01*
X217235714Y-47898333D01*
X217283333Y-47993571D01*
X217854761Y-47565000D02*
X217902380Y-47660238D01*
X217902380Y-47898333D01*
X217854761Y-47993571D01*
X217759523Y-48041190D01*
X217664285Y-48041190D01*
X217569047Y-47993571D01*
X217521428Y-47898333D01*
X217521428Y-47660238D01*
X217473809Y-47565000D01*
X217235714Y-47088809D02*
X217902380Y-47088809D01*
X217330952Y-47088809D02*
X217283333Y-47041190D01*
X217235714Y-46945952D01*
X217235714Y-46803095D01*
X217283333Y-46707857D01*
X217378571Y-46660238D01*
X217902380Y-46660238D01*
X217902380Y-46184047D02*
X216902380Y-46184047D01*
X217521428Y-46088809D02*
X217902380Y-45803095D01*
X217235714Y-45803095D02*
X217616666Y-46184047D01*
X216997619Y-44660238D02*
X216950000Y-44612619D01*
X216902380Y-44517380D01*
X216902380Y-44279285D01*
X216950000Y-44184047D01*
X216997619Y-44136428D01*
X217092857Y-44088809D01*
X217188095Y-44088809D01*
X217330952Y-44136428D01*
X217902380Y-44707857D01*
X217902380Y-44088809D01*
G04 #@! TO.C,J11_blue_blank*
X205302380Y-56215476D02*
X206016666Y-56215476D01*
X206159523Y-56263095D01*
X206254761Y-56358333D01*
X206302380Y-56501190D01*
X206302380Y-56596428D01*
X206302380Y-55215476D02*
X206302380Y-55786904D01*
X206302380Y-55501190D02*
X205302380Y-55501190D01*
X205445238Y-55596428D01*
X205540476Y-55691666D01*
X205588095Y-55786904D01*
X206302380Y-54263095D02*
X206302380Y-54834523D01*
X206302380Y-54548809D02*
X205302380Y-54548809D01*
X205445238Y-54644047D01*
X205540476Y-54739285D01*
X205588095Y-54834523D01*
X206397619Y-54072619D02*
X206397619Y-53310714D01*
X206302380Y-53072619D02*
X205302380Y-53072619D01*
X205683333Y-53072619D02*
X205635714Y-52977380D01*
X205635714Y-52786904D01*
X205683333Y-52691666D01*
X205730952Y-52644047D01*
X205826190Y-52596428D01*
X206111904Y-52596428D01*
X206207142Y-52644047D01*
X206254761Y-52691666D01*
X206302380Y-52786904D01*
X206302380Y-52977380D01*
X206254761Y-53072619D01*
X206302380Y-52025000D02*
X206254761Y-52120238D01*
X206159523Y-52167857D01*
X205302380Y-52167857D01*
X205635714Y-51215476D02*
X206302380Y-51215476D01*
X205635714Y-51644047D02*
X206159523Y-51644047D01*
X206254761Y-51596428D01*
X206302380Y-51501190D01*
X206302380Y-51358333D01*
X206254761Y-51263095D01*
X206207142Y-51215476D01*
X206254761Y-50358333D02*
X206302380Y-50453571D01*
X206302380Y-50644047D01*
X206254761Y-50739285D01*
X206159523Y-50786904D01*
X205778571Y-50786904D01*
X205683333Y-50739285D01*
X205635714Y-50644047D01*
X205635714Y-50453571D01*
X205683333Y-50358333D01*
X205778571Y-50310714D01*
X205873809Y-50310714D01*
X205969047Y-50786904D01*
X206397619Y-50120238D02*
X206397619Y-49358333D01*
X206302380Y-49120238D02*
X205302380Y-49120238D01*
X205683333Y-49120238D02*
X205635714Y-49025000D01*
X205635714Y-48834523D01*
X205683333Y-48739285D01*
X205730952Y-48691666D01*
X205826190Y-48644047D01*
X206111904Y-48644047D01*
X206207142Y-48691666D01*
X206254761Y-48739285D01*
X206302380Y-48834523D01*
X206302380Y-49025000D01*
X206254761Y-49120238D01*
X206302380Y-48072619D02*
X206254761Y-48167857D01*
X206159523Y-48215476D01*
X205302380Y-48215476D01*
X206302380Y-47263095D02*
X205778571Y-47263095D01*
X205683333Y-47310714D01*
X205635714Y-47405952D01*
X205635714Y-47596428D01*
X205683333Y-47691666D01*
X206254761Y-47263095D02*
X206302380Y-47358333D01*
X206302380Y-47596428D01*
X206254761Y-47691666D01*
X206159523Y-47739285D01*
X206064285Y-47739285D01*
X205969047Y-47691666D01*
X205921428Y-47596428D01*
X205921428Y-47358333D01*
X205873809Y-47263095D01*
X205635714Y-46786904D02*
X206302380Y-46786904D01*
X205730952Y-46786904D02*
X205683333Y-46739285D01*
X205635714Y-46644047D01*
X205635714Y-46501190D01*
X205683333Y-46405952D01*
X205778571Y-46358333D01*
X206302380Y-46358333D01*
X206302380Y-45882142D02*
X205302380Y-45882142D01*
X205921428Y-45786904D02*
X206302380Y-45501190D01*
X205635714Y-45501190D02*
X206016666Y-45882142D01*
X196635714Y-57562619D02*
X197302380Y-57562619D01*
X196730952Y-57562619D02*
X196683333Y-57515000D01*
X196635714Y-57419761D01*
X196635714Y-57276904D01*
X196683333Y-57181666D01*
X196778571Y-57134047D01*
X197302380Y-57134047D01*
X197302380Y-56515000D02*
X197254761Y-56610238D01*
X197207142Y-56657857D01*
X197111904Y-56705476D01*
X196826190Y-56705476D01*
X196730952Y-56657857D01*
X196683333Y-56610238D01*
X196635714Y-56515000D01*
X196635714Y-56372142D01*
X196683333Y-56276904D01*
X196730952Y-56229285D01*
X196826190Y-56181666D01*
X197111904Y-56181666D01*
X197207142Y-56229285D01*
X197254761Y-56276904D01*
X197302380Y-56372142D01*
X197302380Y-56515000D01*
X196635714Y-55753095D02*
X197302380Y-55753095D01*
X196730952Y-55753095D02*
X196683333Y-55705476D01*
X196635714Y-55610238D01*
X196635714Y-55467380D01*
X196683333Y-55372142D01*
X196778571Y-55324523D01*
X197302380Y-55324523D01*
X197397619Y-55086428D02*
X197397619Y-54324523D01*
X197302380Y-54086428D02*
X196302380Y-54086428D01*
X196683333Y-54086428D02*
X196635714Y-53991190D01*
X196635714Y-53800714D01*
X196683333Y-53705476D01*
X196730952Y-53657857D01*
X196826190Y-53610238D01*
X197111904Y-53610238D01*
X197207142Y-53657857D01*
X197254761Y-53705476D01*
X197302380Y-53800714D01*
X197302380Y-53991190D01*
X197254761Y-54086428D01*
X197302380Y-53038809D02*
X197254761Y-53134047D01*
X197159523Y-53181666D01*
X196302380Y-53181666D01*
X197302380Y-52229285D02*
X196778571Y-52229285D01*
X196683333Y-52276904D01*
X196635714Y-52372142D01*
X196635714Y-52562619D01*
X196683333Y-52657857D01*
X197254761Y-52229285D02*
X197302380Y-52324523D01*
X197302380Y-52562619D01*
X197254761Y-52657857D01*
X197159523Y-52705476D01*
X197064285Y-52705476D01*
X196969047Y-52657857D01*
X196921428Y-52562619D01*
X196921428Y-52324523D01*
X196873809Y-52229285D01*
X196635714Y-51753095D02*
X197302380Y-51753095D01*
X196730952Y-51753095D02*
X196683333Y-51705476D01*
X196635714Y-51610238D01*
X196635714Y-51467380D01*
X196683333Y-51372142D01*
X196778571Y-51324523D01*
X197302380Y-51324523D01*
X197302380Y-50848333D02*
X196302380Y-50848333D01*
X196921428Y-50753095D02*
X197302380Y-50467380D01*
X196635714Y-50467380D02*
X197016666Y-50848333D01*
X196254761Y-49324523D02*
X197540476Y-50181666D01*
X197302380Y-48991190D02*
X196302380Y-48991190D01*
X196683333Y-48991190D02*
X196635714Y-48895952D01*
X196635714Y-48705476D01*
X196683333Y-48610238D01*
X196730952Y-48562619D01*
X196826190Y-48515000D01*
X197111904Y-48515000D01*
X197207142Y-48562619D01*
X197254761Y-48610238D01*
X197302380Y-48705476D01*
X197302380Y-48895952D01*
X197254761Y-48991190D01*
X197302380Y-47943571D02*
X197254761Y-48038809D01*
X197159523Y-48086428D01*
X196302380Y-48086428D01*
X197302380Y-47134047D02*
X196778571Y-47134047D01*
X196683333Y-47181666D01*
X196635714Y-47276904D01*
X196635714Y-47467380D01*
X196683333Y-47562619D01*
X197254761Y-47134047D02*
X197302380Y-47229285D01*
X197302380Y-47467380D01*
X197254761Y-47562619D01*
X197159523Y-47610238D01*
X197064285Y-47610238D01*
X196969047Y-47562619D01*
X196921428Y-47467380D01*
X196921428Y-47229285D01*
X196873809Y-47134047D01*
X196635714Y-46657857D02*
X197302380Y-46657857D01*
X196730952Y-46657857D02*
X196683333Y-46610238D01*
X196635714Y-46515000D01*
X196635714Y-46372142D01*
X196683333Y-46276904D01*
X196778571Y-46229285D01*
X197302380Y-46229285D01*
X197302380Y-45753095D02*
X196302380Y-45753095D01*
X196921428Y-45657857D02*
X197302380Y-45372142D01*
X196635714Y-45372142D02*
X197016666Y-45753095D01*
X196302380Y-45038809D02*
X196302380Y-44419761D01*
X196683333Y-44753095D01*
X196683333Y-44610238D01*
X196730952Y-44515000D01*
X196778571Y-44467380D01*
X196873809Y-44419761D01*
X197111904Y-44419761D01*
X197207142Y-44467380D01*
X197254761Y-44515000D01*
X197302380Y-44610238D01*
X197302380Y-44895952D01*
X197254761Y-44991190D01*
X197207142Y-45038809D01*
G04 #@! TO.C,J13*
X180140476Y-70727380D02*
X180140476Y-71441666D01*
X180092857Y-71584523D01*
X179997619Y-71679761D01*
X179854761Y-71727380D01*
X179759523Y-71727380D01*
X181140476Y-71727380D02*
X180569047Y-71727380D01*
X180854761Y-71727380D02*
X180854761Y-70727380D01*
X180759523Y-70870238D01*
X180664285Y-70965476D01*
X180569047Y-71013095D01*
X181473809Y-70727380D02*
X182092857Y-70727380D01*
X181759523Y-71108333D01*
X181902380Y-71108333D01*
X181997619Y-71155952D01*
X182045238Y-71203571D01*
X182092857Y-71298809D01*
X182092857Y-71536904D01*
X182045238Y-71632142D01*
X181997619Y-71679761D01*
X181902380Y-71727380D01*
X181616666Y-71727380D01*
X181521428Y-71679761D01*
X181473809Y-71632142D01*
X174702380Y-71818333D02*
X173702380Y-71818333D01*
X173702380Y-71437380D01*
X173750000Y-71342142D01*
X173797619Y-71294523D01*
X173892857Y-71246904D01*
X174035714Y-71246904D01*
X174130952Y-71294523D01*
X174178571Y-71342142D01*
X174226190Y-71437380D01*
X174226190Y-71818333D01*
X173702380Y-70913571D02*
X174702380Y-70675476D01*
X173988095Y-70485000D01*
X174702380Y-70294523D01*
X173702380Y-70056428D01*
X174702380Y-69675476D02*
X173702380Y-69675476D01*
X174416666Y-69342142D01*
X173702380Y-69008809D01*
X174702380Y-69008809D01*
X174797619Y-68770714D02*
X174797619Y-68008809D01*
X174654761Y-67342142D02*
X174702380Y-67437380D01*
X174702380Y-67627857D01*
X174654761Y-67723095D01*
X174607142Y-67770714D01*
X174511904Y-67818333D01*
X174226190Y-67818333D01*
X174130952Y-67770714D01*
X174083333Y-67723095D01*
X174035714Y-67627857D01*
X174035714Y-67437380D01*
X174083333Y-67342142D01*
X174702380Y-66770714D02*
X174654761Y-66865952D01*
X174607142Y-66913571D01*
X174511904Y-66961190D01*
X174226190Y-66961190D01*
X174130952Y-66913571D01*
X174083333Y-66865952D01*
X174035714Y-66770714D01*
X174035714Y-66627857D01*
X174083333Y-66532619D01*
X174130952Y-66485000D01*
X174226190Y-66437380D01*
X174511904Y-66437380D01*
X174607142Y-66485000D01*
X174654761Y-66532619D01*
X174702380Y-66627857D01*
X174702380Y-66770714D01*
X174035714Y-66008809D02*
X174702380Y-66008809D01*
X174130952Y-66008809D02*
X174083333Y-65961190D01*
X174035714Y-65865952D01*
X174035714Y-65723095D01*
X174083333Y-65627857D01*
X174178571Y-65580238D01*
X174702380Y-65580238D01*
X174035714Y-65246904D02*
X174035714Y-64865952D01*
X173702380Y-65104047D02*
X174559523Y-65104047D01*
X174654761Y-65056428D01*
X174702380Y-64961190D01*
X174702380Y-64865952D01*
X174702380Y-64532619D02*
X174035714Y-64532619D01*
X174226190Y-64532619D02*
X174130952Y-64485000D01*
X174083333Y-64437380D01*
X174035714Y-64342142D01*
X174035714Y-64246904D01*
X174702380Y-63770714D02*
X174654761Y-63865952D01*
X174607142Y-63913571D01*
X174511904Y-63961190D01*
X174226190Y-63961190D01*
X174130952Y-63913571D01*
X174083333Y-63865952D01*
X174035714Y-63770714D01*
X174035714Y-63627857D01*
X174083333Y-63532619D01*
X174130952Y-63485000D01*
X174226190Y-63437380D01*
X174511904Y-63437380D01*
X174607142Y-63485000D01*
X174654761Y-63532619D01*
X174702380Y-63627857D01*
X174702380Y-63770714D01*
X174702380Y-62865952D02*
X174654761Y-62961190D01*
X174559523Y-63008809D01*
X173702380Y-63008809D01*
X174654761Y-62532619D02*
X174702380Y-62437380D01*
X174702380Y-62246904D01*
X174654761Y-62151666D01*
X174559523Y-62104047D01*
X174511904Y-62104047D01*
X174416666Y-62151666D01*
X174369047Y-62246904D01*
X174369047Y-62389761D01*
X174321428Y-62485000D01*
X174226190Y-62532619D01*
X174178571Y-62532619D01*
X174083333Y-62485000D01*
X174035714Y-62389761D01*
X174035714Y-62246904D01*
X174083333Y-62151666D01*
X174797619Y-61913571D02*
X174797619Y-61151666D01*
X174702380Y-60485000D02*
X173702380Y-60485000D01*
X174654761Y-60485000D02*
X174702380Y-60580238D01*
X174702380Y-60770714D01*
X174654761Y-60865952D01*
X174607142Y-60913571D01*
X174511904Y-60961190D01*
X174226190Y-60961190D01*
X174130952Y-60913571D01*
X174083333Y-60865952D01*
X174035714Y-60770714D01*
X174035714Y-60580238D01*
X174083333Y-60485000D01*
X174702380Y-60008809D02*
X174035714Y-60008809D01*
X174226190Y-60008809D02*
X174130952Y-59961190D01*
X174083333Y-59913571D01*
X174035714Y-59818333D01*
X174035714Y-59723095D01*
X174702380Y-59389761D02*
X174035714Y-59389761D01*
X173702380Y-59389761D02*
X173750000Y-59437380D01*
X173797619Y-59389761D01*
X173750000Y-59342142D01*
X173702380Y-59389761D01*
X173797619Y-59389761D01*
X174035714Y-59008809D02*
X174702380Y-58770714D01*
X174035714Y-58532619D01*
X174654761Y-57770714D02*
X174702380Y-57865952D01*
X174702380Y-58056428D01*
X174654761Y-58151666D01*
X174559523Y-58199285D01*
X174178571Y-58199285D01*
X174083333Y-58151666D01*
X174035714Y-58056428D01*
X174035714Y-57865952D01*
X174083333Y-57770714D01*
X174178571Y-57723095D01*
X174273809Y-57723095D01*
X174369047Y-58199285D01*
X174702380Y-57294523D02*
X174035714Y-57294523D01*
X174226190Y-57294523D02*
X174130952Y-57246904D01*
X174083333Y-57199285D01*
X174035714Y-57104047D01*
X174035714Y-57008809D01*
G04 #@! TO.C,J14_inv_vcc*
X251569047Y-81227380D02*
X251569047Y-81941666D01*
X251521428Y-82084523D01*
X251426190Y-82179761D01*
X251283333Y-82227380D01*
X251188095Y-82227380D01*
X252569047Y-82227380D02*
X251997619Y-82227380D01*
X252283333Y-82227380D02*
X252283333Y-81227380D01*
X252188095Y-81370238D01*
X252092857Y-81465476D01*
X251997619Y-81513095D01*
X253426190Y-81560714D02*
X253426190Y-82227380D01*
X253188095Y-81179761D02*
X252950000Y-81894047D01*
X253569047Y-81894047D01*
X253711904Y-82322619D02*
X254473809Y-82322619D01*
X254711904Y-82227380D02*
X254711904Y-81560714D01*
X254711904Y-81227380D02*
X254664285Y-81275000D01*
X254711904Y-81322619D01*
X254759523Y-81275000D01*
X254711904Y-81227380D01*
X254711904Y-81322619D01*
X255188095Y-81560714D02*
X255188095Y-82227380D01*
X255188095Y-81655952D02*
X255235714Y-81608333D01*
X255330952Y-81560714D01*
X255473809Y-81560714D01*
X255569047Y-81608333D01*
X255616666Y-81703571D01*
X255616666Y-82227380D01*
X255997619Y-81560714D02*
X256235714Y-82227380D01*
X256473809Y-81560714D01*
X256616666Y-82322619D02*
X257378571Y-82322619D01*
X257521428Y-81560714D02*
X257759523Y-82227380D01*
X257997619Y-81560714D01*
X258807142Y-82179761D02*
X258711904Y-82227380D01*
X258521428Y-82227380D01*
X258426190Y-82179761D01*
X258378571Y-82132142D01*
X258330952Y-82036904D01*
X258330952Y-81751190D01*
X258378571Y-81655952D01*
X258426190Y-81608333D01*
X258521428Y-81560714D01*
X258711904Y-81560714D01*
X258807142Y-81608333D01*
X259664285Y-82179761D02*
X259569047Y-82227380D01*
X259378571Y-82227380D01*
X259283333Y-82179761D01*
X259235714Y-82132142D01*
X259188095Y-82036904D01*
X259188095Y-81751190D01*
X259235714Y-81655952D01*
X259283333Y-81608333D01*
X259378571Y-81560714D01*
X259569047Y-81560714D01*
X259664285Y-81608333D01*
G04 #@! TO.C,Q1*
X237057619Y-63160238D02*
X237010000Y-63255476D01*
X236914761Y-63350714D01*
X236771904Y-63493571D01*
X236724285Y-63588809D01*
X236724285Y-63684047D01*
X236962380Y-63636428D02*
X236914761Y-63731666D01*
X236819523Y-63826904D01*
X236629047Y-63874523D01*
X236295714Y-63874523D01*
X236105238Y-63826904D01*
X236010000Y-63731666D01*
X235962380Y-63636428D01*
X235962380Y-63445952D01*
X236010000Y-63350714D01*
X236105238Y-63255476D01*
X236295714Y-63207857D01*
X236629047Y-63207857D01*
X236819523Y-63255476D01*
X236914761Y-63350714D01*
X236962380Y-63445952D01*
X236962380Y-63636428D01*
X236962380Y-62255476D02*
X236962380Y-62826904D01*
X236962380Y-62541190D02*
X235962380Y-62541190D01*
X236105238Y-62636428D01*
X236200476Y-62731666D01*
X236248095Y-62826904D01*
G04 #@! TO.C,Q2*
X195057619Y-63310238D02*
X195010000Y-63405476D01*
X194914761Y-63500714D01*
X194771904Y-63643571D01*
X194724285Y-63738809D01*
X194724285Y-63834047D01*
X194962380Y-63786428D02*
X194914761Y-63881666D01*
X194819523Y-63976904D01*
X194629047Y-64024523D01*
X194295714Y-64024523D01*
X194105238Y-63976904D01*
X194010000Y-63881666D01*
X193962380Y-63786428D01*
X193962380Y-63595952D01*
X194010000Y-63500714D01*
X194105238Y-63405476D01*
X194295714Y-63357857D01*
X194629047Y-63357857D01*
X194819523Y-63405476D01*
X194914761Y-63500714D01*
X194962380Y-63595952D01*
X194962380Y-63786428D01*
X194057619Y-62976904D02*
X194010000Y-62929285D01*
X193962380Y-62834047D01*
X193962380Y-62595952D01*
X194010000Y-62500714D01*
X194057619Y-62453095D01*
X194152857Y-62405476D01*
X194248095Y-62405476D01*
X194390952Y-62453095D01*
X194962380Y-63024523D01*
X194962380Y-62405476D01*
G04 #@! TO.C,Q3*
X216057619Y-63160238D02*
X216010000Y-63255476D01*
X215914761Y-63350714D01*
X215771904Y-63493571D01*
X215724285Y-63588809D01*
X215724285Y-63684047D01*
X215962380Y-63636428D02*
X215914761Y-63731666D01*
X215819523Y-63826904D01*
X215629047Y-63874523D01*
X215295714Y-63874523D01*
X215105238Y-63826904D01*
X215010000Y-63731666D01*
X214962380Y-63636428D01*
X214962380Y-63445952D01*
X215010000Y-63350714D01*
X215105238Y-63255476D01*
X215295714Y-63207857D01*
X215629047Y-63207857D01*
X215819523Y-63255476D01*
X215914761Y-63350714D01*
X215962380Y-63445952D01*
X215962380Y-63636428D01*
X214962380Y-62874523D02*
X214962380Y-62255476D01*
X215343333Y-62588809D01*
X215343333Y-62445952D01*
X215390952Y-62350714D01*
X215438571Y-62303095D01*
X215533809Y-62255476D01*
X215771904Y-62255476D01*
X215867142Y-62303095D01*
X215914761Y-62350714D01*
X215962380Y-62445952D01*
X215962380Y-62731666D01*
X215914761Y-62826904D01*
X215867142Y-62874523D01*
G04 #@! TO.C,Q4*
X237057619Y-50660238D02*
X237010000Y-50755476D01*
X236914761Y-50850714D01*
X236771904Y-50993571D01*
X236724285Y-51088809D01*
X236724285Y-51184047D01*
X236962380Y-51136428D02*
X236914761Y-51231666D01*
X236819523Y-51326904D01*
X236629047Y-51374523D01*
X236295714Y-51374523D01*
X236105238Y-51326904D01*
X236010000Y-51231666D01*
X235962380Y-51136428D01*
X235962380Y-50945952D01*
X236010000Y-50850714D01*
X236105238Y-50755476D01*
X236295714Y-50707857D01*
X236629047Y-50707857D01*
X236819523Y-50755476D01*
X236914761Y-50850714D01*
X236962380Y-50945952D01*
X236962380Y-51136428D01*
X236295714Y-49850714D02*
X236962380Y-49850714D01*
X235914761Y-50088809D02*
X236629047Y-50326904D01*
X236629047Y-49707857D01*
G04 #@! TO.C,Q5*
X216057619Y-50660238D02*
X216010000Y-50755476D01*
X215914761Y-50850714D01*
X215771904Y-50993571D01*
X215724285Y-51088809D01*
X215724285Y-51184047D01*
X215962380Y-51136428D02*
X215914761Y-51231666D01*
X215819523Y-51326904D01*
X215629047Y-51374523D01*
X215295714Y-51374523D01*
X215105238Y-51326904D01*
X215010000Y-51231666D01*
X214962380Y-51136428D01*
X214962380Y-50945952D01*
X215010000Y-50850714D01*
X215105238Y-50755476D01*
X215295714Y-50707857D01*
X215629047Y-50707857D01*
X215819523Y-50755476D01*
X215914761Y-50850714D01*
X215962380Y-50945952D01*
X215962380Y-51136428D01*
X214962380Y-49803095D02*
X214962380Y-50279285D01*
X215438571Y-50326904D01*
X215390952Y-50279285D01*
X215343333Y-50184047D01*
X215343333Y-49945952D01*
X215390952Y-49850714D01*
X215438571Y-49803095D01*
X215533809Y-49755476D01*
X215771904Y-49755476D01*
X215867142Y-49803095D01*
X215914761Y-49850714D01*
X215962380Y-49945952D01*
X215962380Y-50184047D01*
X215914761Y-50279285D01*
X215867142Y-50326904D01*
G04 #@! TO.C,Q6*
X195057619Y-50710238D02*
X195010000Y-50805476D01*
X194914761Y-50900714D01*
X194771904Y-51043571D01*
X194724285Y-51138809D01*
X194724285Y-51234047D01*
X194962380Y-51186428D02*
X194914761Y-51281666D01*
X194819523Y-51376904D01*
X194629047Y-51424523D01*
X194295714Y-51424523D01*
X194105238Y-51376904D01*
X194010000Y-51281666D01*
X193962380Y-51186428D01*
X193962380Y-50995952D01*
X194010000Y-50900714D01*
X194105238Y-50805476D01*
X194295714Y-50757857D01*
X194629047Y-50757857D01*
X194819523Y-50805476D01*
X194914761Y-50900714D01*
X194962380Y-50995952D01*
X194962380Y-51186428D01*
X193962380Y-49900714D02*
X193962380Y-50091190D01*
X194010000Y-50186428D01*
X194057619Y-50234047D01*
X194200476Y-50329285D01*
X194390952Y-50376904D01*
X194771904Y-50376904D01*
X194867142Y-50329285D01*
X194914761Y-50281666D01*
X194962380Y-50186428D01*
X194962380Y-49995952D01*
X194914761Y-49900714D01*
X194867142Y-49853095D01*
X194771904Y-49805476D01*
X194533809Y-49805476D01*
X194438571Y-49853095D01*
X194390952Y-49900714D01*
X194343333Y-49995952D01*
X194343333Y-50186428D01*
X194390952Y-50281666D01*
X194438571Y-50329285D01*
X194533809Y-50376904D01*
G04 #@! TO.C,R1 270*
X189243809Y-68267380D02*
X188910476Y-67791190D01*
X188672380Y-68267380D02*
X188672380Y-67267380D01*
X189053333Y-67267380D01*
X189148571Y-67315000D01*
X189196190Y-67362619D01*
X189243809Y-67457857D01*
X189243809Y-67600714D01*
X189196190Y-67695952D01*
X189148571Y-67743571D01*
X189053333Y-67791190D01*
X188672380Y-67791190D01*
X190196190Y-68267380D02*
X189624761Y-68267380D01*
X189910476Y-68267380D02*
X189910476Y-67267380D01*
X189815238Y-67410238D01*
X189720000Y-67505476D01*
X189624761Y-67553095D01*
X191339047Y-67362619D02*
X191386666Y-67315000D01*
X191481904Y-67267380D01*
X191720000Y-67267380D01*
X191815238Y-67315000D01*
X191862857Y-67362619D01*
X191910476Y-67457857D01*
X191910476Y-67553095D01*
X191862857Y-67695952D01*
X191291428Y-68267380D01*
X191910476Y-68267380D01*
X192243809Y-67267380D02*
X192910476Y-67267380D01*
X192481904Y-68267380D01*
X193481904Y-67267380D02*
X193577142Y-67267380D01*
X193672380Y-67315000D01*
X193720000Y-67362619D01*
X193767619Y-67457857D01*
X193815238Y-67648333D01*
X193815238Y-67886428D01*
X193767619Y-68076904D01*
X193720000Y-68172142D01*
X193672380Y-68219761D01*
X193577142Y-68267380D01*
X193481904Y-68267380D01*
X193386666Y-68219761D01*
X193339047Y-68172142D01*
X193291428Y-68076904D01*
X193243809Y-67886428D01*
X193243809Y-67648333D01*
X193291428Y-67457857D01*
X193339047Y-67362619D01*
X193386666Y-67315000D01*
X193481904Y-67267380D01*
G04 #@! TO.C,R2 270*
X210243809Y-68117380D02*
X209910476Y-67641190D01*
X209672380Y-68117380D02*
X209672380Y-67117380D01*
X210053333Y-67117380D01*
X210148571Y-67165000D01*
X210196190Y-67212619D01*
X210243809Y-67307857D01*
X210243809Y-67450714D01*
X210196190Y-67545952D01*
X210148571Y-67593571D01*
X210053333Y-67641190D01*
X209672380Y-67641190D01*
X210624761Y-67212619D02*
X210672380Y-67165000D01*
X210767619Y-67117380D01*
X211005714Y-67117380D01*
X211100952Y-67165000D01*
X211148571Y-67212619D01*
X211196190Y-67307857D01*
X211196190Y-67403095D01*
X211148571Y-67545952D01*
X210577142Y-68117380D01*
X211196190Y-68117380D01*
X212339047Y-67212619D02*
X212386666Y-67165000D01*
X212481904Y-67117380D01*
X212720000Y-67117380D01*
X212815238Y-67165000D01*
X212862857Y-67212619D01*
X212910476Y-67307857D01*
X212910476Y-67403095D01*
X212862857Y-67545952D01*
X212291428Y-68117380D01*
X212910476Y-68117380D01*
X213243809Y-67117380D02*
X213910476Y-67117380D01*
X213481904Y-68117380D01*
X214481904Y-67117380D02*
X214577142Y-67117380D01*
X214672380Y-67165000D01*
X214720000Y-67212619D01*
X214767619Y-67307857D01*
X214815238Y-67498333D01*
X214815238Y-67736428D01*
X214767619Y-67926904D01*
X214720000Y-68022142D01*
X214672380Y-68069761D01*
X214577142Y-68117380D01*
X214481904Y-68117380D01*
X214386666Y-68069761D01*
X214339047Y-68022142D01*
X214291428Y-67926904D01*
X214243809Y-67736428D01*
X214243809Y-67498333D01*
X214291428Y-67307857D01*
X214339047Y-67212619D01*
X214386666Y-67165000D01*
X214481904Y-67117380D01*
G04 #@! TO.C,R3 270*
X231243809Y-67867380D02*
X230910476Y-67391190D01*
X230672380Y-67867380D02*
X230672380Y-66867380D01*
X231053333Y-66867380D01*
X231148571Y-66915000D01*
X231196190Y-66962619D01*
X231243809Y-67057857D01*
X231243809Y-67200714D01*
X231196190Y-67295952D01*
X231148571Y-67343571D01*
X231053333Y-67391190D01*
X230672380Y-67391190D01*
X231577142Y-66867380D02*
X232196190Y-66867380D01*
X231862857Y-67248333D01*
X232005714Y-67248333D01*
X232100952Y-67295952D01*
X232148571Y-67343571D01*
X232196190Y-67438809D01*
X232196190Y-67676904D01*
X232148571Y-67772142D01*
X232100952Y-67819761D01*
X232005714Y-67867380D01*
X231720000Y-67867380D01*
X231624761Y-67819761D01*
X231577142Y-67772142D01*
X233339047Y-66962619D02*
X233386666Y-66915000D01*
X233481904Y-66867380D01*
X233720000Y-66867380D01*
X233815238Y-66915000D01*
X233862857Y-66962619D01*
X233910476Y-67057857D01*
X233910476Y-67153095D01*
X233862857Y-67295952D01*
X233291428Y-67867380D01*
X233910476Y-67867380D01*
X234243809Y-66867380D02*
X234910476Y-66867380D01*
X234481904Y-67867380D01*
X235481904Y-66867380D02*
X235577142Y-66867380D01*
X235672380Y-66915000D01*
X235720000Y-66962619D01*
X235767619Y-67057857D01*
X235815238Y-67248333D01*
X235815238Y-67486428D01*
X235767619Y-67676904D01*
X235720000Y-67772142D01*
X235672380Y-67819761D01*
X235577142Y-67867380D01*
X235481904Y-67867380D01*
X235386666Y-67819761D01*
X235339047Y-67772142D01*
X235291428Y-67676904D01*
X235243809Y-67486428D01*
X235243809Y-67248333D01*
X235291428Y-67057857D01*
X235339047Y-66962619D01*
X235386666Y-66915000D01*
X235481904Y-66867380D01*
G04 #@! TO.C,R4 270*
X230723809Y-42477380D02*
X230390476Y-42001190D01*
X230152380Y-42477380D02*
X230152380Y-41477380D01*
X230533333Y-41477380D01*
X230628571Y-41525000D01*
X230676190Y-41572619D01*
X230723809Y-41667857D01*
X230723809Y-41810714D01*
X230676190Y-41905952D01*
X230628571Y-41953571D01*
X230533333Y-42001190D01*
X230152380Y-42001190D01*
X231580952Y-41810714D02*
X231580952Y-42477380D01*
X231342857Y-41429761D02*
X231104761Y-42144047D01*
X231723809Y-42144047D01*
X232819047Y-41572619D02*
X232866666Y-41525000D01*
X232961904Y-41477380D01*
X233200000Y-41477380D01*
X233295238Y-41525000D01*
X233342857Y-41572619D01*
X233390476Y-41667857D01*
X233390476Y-41763095D01*
X233342857Y-41905952D01*
X232771428Y-42477380D01*
X233390476Y-42477380D01*
X233723809Y-41477380D02*
X234390476Y-41477380D01*
X233961904Y-42477380D01*
X234961904Y-41477380D02*
X235057142Y-41477380D01*
X235152380Y-41525000D01*
X235200000Y-41572619D01*
X235247619Y-41667857D01*
X235295238Y-41858333D01*
X235295238Y-42096428D01*
X235247619Y-42286904D01*
X235200000Y-42382142D01*
X235152380Y-42429761D01*
X235057142Y-42477380D01*
X234961904Y-42477380D01*
X234866666Y-42429761D01*
X234819047Y-42382142D01*
X234771428Y-42286904D01*
X234723809Y-42096428D01*
X234723809Y-41858333D01*
X234771428Y-41667857D01*
X234819047Y-41572619D01*
X234866666Y-41525000D01*
X234961904Y-41477380D01*
G04 #@! TO.C,R5 270*
X189443809Y-42667380D02*
X189110476Y-42191190D01*
X188872380Y-42667380D02*
X188872380Y-41667380D01*
X189253333Y-41667380D01*
X189348571Y-41715000D01*
X189396190Y-41762619D01*
X189443809Y-41857857D01*
X189443809Y-42000714D01*
X189396190Y-42095952D01*
X189348571Y-42143571D01*
X189253333Y-42191190D01*
X188872380Y-42191190D01*
X190348571Y-41667380D02*
X189872380Y-41667380D01*
X189824761Y-42143571D01*
X189872380Y-42095952D01*
X189967619Y-42048333D01*
X190205714Y-42048333D01*
X190300952Y-42095952D01*
X190348571Y-42143571D01*
X190396190Y-42238809D01*
X190396190Y-42476904D01*
X190348571Y-42572142D01*
X190300952Y-42619761D01*
X190205714Y-42667380D01*
X189967619Y-42667380D01*
X189872380Y-42619761D01*
X189824761Y-42572142D01*
X191539047Y-41762619D02*
X191586666Y-41715000D01*
X191681904Y-41667380D01*
X191920000Y-41667380D01*
X192015238Y-41715000D01*
X192062857Y-41762619D01*
X192110476Y-41857857D01*
X192110476Y-41953095D01*
X192062857Y-42095952D01*
X191491428Y-42667380D01*
X192110476Y-42667380D01*
X192443809Y-41667380D02*
X193110476Y-41667380D01*
X192681904Y-42667380D01*
X193681904Y-41667380D02*
X193777142Y-41667380D01*
X193872380Y-41715000D01*
X193920000Y-41762619D01*
X193967619Y-41857857D01*
X194015238Y-42048333D01*
X194015238Y-42286428D01*
X193967619Y-42476904D01*
X193920000Y-42572142D01*
X193872380Y-42619761D01*
X193777142Y-42667380D01*
X193681904Y-42667380D01*
X193586666Y-42619761D01*
X193539047Y-42572142D01*
X193491428Y-42476904D01*
X193443809Y-42286428D01*
X193443809Y-42048333D01*
X193491428Y-41857857D01*
X193539047Y-41762619D01*
X193586666Y-41715000D01*
X193681904Y-41667380D01*
G04 #@! TO.C,R6 270*
X210643809Y-42467380D02*
X210310476Y-41991190D01*
X210072380Y-42467380D02*
X210072380Y-41467380D01*
X210453333Y-41467380D01*
X210548571Y-41515000D01*
X210596190Y-41562619D01*
X210643809Y-41657857D01*
X210643809Y-41800714D01*
X210596190Y-41895952D01*
X210548571Y-41943571D01*
X210453333Y-41991190D01*
X210072380Y-41991190D01*
X211500952Y-41467380D02*
X211310476Y-41467380D01*
X211215238Y-41515000D01*
X211167619Y-41562619D01*
X211072380Y-41705476D01*
X211024761Y-41895952D01*
X211024761Y-42276904D01*
X211072380Y-42372142D01*
X211120000Y-42419761D01*
X211215238Y-42467380D01*
X211405714Y-42467380D01*
X211500952Y-42419761D01*
X211548571Y-42372142D01*
X211596190Y-42276904D01*
X211596190Y-42038809D01*
X211548571Y-41943571D01*
X211500952Y-41895952D01*
X211405714Y-41848333D01*
X211215238Y-41848333D01*
X211120000Y-41895952D01*
X211072380Y-41943571D01*
X211024761Y-42038809D01*
X212739047Y-41562619D02*
X212786666Y-41515000D01*
X212881904Y-41467380D01*
X213120000Y-41467380D01*
X213215238Y-41515000D01*
X213262857Y-41562619D01*
X213310476Y-41657857D01*
X213310476Y-41753095D01*
X213262857Y-41895952D01*
X212691428Y-42467380D01*
X213310476Y-42467380D01*
X213643809Y-41467380D02*
X214310476Y-41467380D01*
X213881904Y-42467380D01*
X214881904Y-41467380D02*
X214977142Y-41467380D01*
X215072380Y-41515000D01*
X215120000Y-41562619D01*
X215167619Y-41657857D01*
X215215238Y-41848333D01*
X215215238Y-42086428D01*
X215167619Y-42276904D01*
X215120000Y-42372142D01*
X215072380Y-42419761D01*
X214977142Y-42467380D01*
X214881904Y-42467380D01*
X214786666Y-42419761D01*
X214739047Y-42372142D01*
X214691428Y-42276904D01*
X214643809Y-42086428D01*
X214643809Y-41848333D01*
X214691428Y-41657857D01*
X214739047Y-41562619D01*
X214786666Y-41515000D01*
X214881904Y-41467380D01*
G04 #@! TO.C,U1*
X193052380Y-77236904D02*
X193861904Y-77236904D01*
X193957142Y-77189285D01*
X194004761Y-77141666D01*
X194052380Y-77046428D01*
X194052380Y-76855952D01*
X194004761Y-76760714D01*
X193957142Y-76713095D01*
X193861904Y-76665476D01*
X193052380Y-76665476D01*
X194052380Y-75665476D02*
X194052380Y-76236904D01*
X194052380Y-75951190D02*
X193052380Y-75951190D01*
X193195238Y-76046428D01*
X193290476Y-76141666D01*
X193338095Y-76236904D01*
X189102380Y-79927380D02*
X188102380Y-79927380D01*
X188435714Y-79451190D02*
X189102380Y-79451190D01*
X188530952Y-79451190D02*
X188483333Y-79403571D01*
X188435714Y-79308333D01*
X188435714Y-79165476D01*
X188483333Y-79070238D01*
X188578571Y-79022619D01*
X189102380Y-79022619D01*
X188435714Y-78641666D02*
X189102380Y-78403571D01*
X188435714Y-78165476D01*
X189054761Y-77403571D02*
X189102380Y-77498809D01*
X189102380Y-77689285D01*
X189054761Y-77784523D01*
X188959523Y-77832142D01*
X188578571Y-77832142D01*
X188483333Y-77784523D01*
X188435714Y-77689285D01*
X188435714Y-77498809D01*
X188483333Y-77403571D01*
X188578571Y-77355952D01*
X188673809Y-77355952D01*
X188769047Y-77832142D01*
X189102380Y-76927380D02*
X188435714Y-76927380D01*
X188626190Y-76927380D02*
X188530952Y-76879761D01*
X188483333Y-76832142D01*
X188435714Y-76736904D01*
X188435714Y-76641666D01*
X188435714Y-76451190D02*
X188435714Y-76070238D01*
X188102380Y-76308333D02*
X188959523Y-76308333D01*
X189054761Y-76260714D01*
X189102380Y-76165476D01*
X189102380Y-76070238D01*
X189054761Y-75355952D02*
X189102380Y-75451190D01*
X189102380Y-75641666D01*
X189054761Y-75736904D01*
X188959523Y-75784523D01*
X188578571Y-75784523D01*
X188483333Y-75736904D01*
X188435714Y-75641666D01*
X188435714Y-75451190D01*
X188483333Y-75355952D01*
X188578571Y-75308333D01*
X188673809Y-75308333D01*
X188769047Y-75784523D01*
X189102380Y-74879761D02*
X188435714Y-74879761D01*
X188626190Y-74879761D02*
X188530952Y-74832142D01*
X188483333Y-74784523D01*
X188435714Y-74689285D01*
X188435714Y-74594047D01*
X188102380Y-73594047D02*
X188102380Y-72975000D01*
X188483333Y-73308333D01*
X188483333Y-73165476D01*
X188530952Y-73070238D01*
X188578571Y-73022619D01*
X188673809Y-72975000D01*
X188911904Y-72975000D01*
X189007142Y-73022619D01*
X189054761Y-73070238D01*
X189102380Y-73165476D01*
X189102380Y-73451190D01*
X189054761Y-73546428D01*
X189007142Y-73594047D01*
G04 #@! TO.C,U3*
X234102380Y-77286904D02*
X234911904Y-77286904D01*
X235007142Y-77239285D01*
X235054761Y-77191666D01*
X235102380Y-77096428D01*
X235102380Y-76905952D01*
X235054761Y-76810714D01*
X235007142Y-76763095D01*
X234911904Y-76715476D01*
X234102380Y-76715476D01*
X234102380Y-76334523D02*
X234102380Y-75715476D01*
X234483333Y-76048809D01*
X234483333Y-75905952D01*
X234530952Y-75810714D01*
X234578571Y-75763095D01*
X234673809Y-75715476D01*
X234911904Y-75715476D01*
X235007142Y-75763095D01*
X235054761Y-75810714D01*
X235102380Y-75905952D01*
X235102380Y-76191666D01*
X235054761Y-76286904D01*
X235007142Y-76334523D01*
X230152380Y-79596428D02*
X229485714Y-79596428D01*
X229152380Y-79596428D02*
X229200000Y-79644047D01*
X229247619Y-79596428D01*
X229200000Y-79548809D01*
X229152380Y-79596428D01*
X229247619Y-79596428D01*
X229485714Y-79120238D02*
X230152380Y-79120238D01*
X229580952Y-79120238D02*
X229533333Y-79072619D01*
X229485714Y-78977380D01*
X229485714Y-78834523D01*
X229533333Y-78739285D01*
X229628571Y-78691666D01*
X230152380Y-78691666D01*
X229485714Y-78310714D02*
X230152380Y-78072619D01*
X229485714Y-77834523D01*
X230104761Y-77072619D02*
X230152380Y-77167857D01*
X230152380Y-77358333D01*
X230104761Y-77453571D01*
X230009523Y-77501190D01*
X229628571Y-77501190D01*
X229533333Y-77453571D01*
X229485714Y-77358333D01*
X229485714Y-77167857D01*
X229533333Y-77072619D01*
X229628571Y-77025000D01*
X229723809Y-77025000D01*
X229819047Y-77501190D01*
X230152380Y-76596428D02*
X229485714Y-76596428D01*
X229676190Y-76596428D02*
X229580952Y-76548809D01*
X229533333Y-76501190D01*
X229485714Y-76405952D01*
X229485714Y-76310714D01*
X229485714Y-76120238D02*
X229485714Y-75739285D01*
X229152380Y-75977380D02*
X230009523Y-75977380D01*
X230104761Y-75929761D01*
X230152380Y-75834523D01*
X230152380Y-75739285D01*
X230104761Y-75025000D02*
X230152380Y-75120238D01*
X230152380Y-75310714D01*
X230104761Y-75405952D01*
X230009523Y-75453571D01*
X229628571Y-75453571D01*
X229533333Y-75405952D01*
X229485714Y-75310714D01*
X229485714Y-75120238D01*
X229533333Y-75025000D01*
X229628571Y-74977380D01*
X229723809Y-74977380D01*
X229819047Y-75453571D01*
X230152380Y-74548809D02*
X229485714Y-74548809D01*
X229676190Y-74548809D02*
X229580952Y-74501190D01*
X229533333Y-74453571D01*
X229485714Y-74358333D01*
X229485714Y-74263095D01*
X230152380Y-73405952D02*
X230152380Y-73977380D01*
X230152380Y-73691666D02*
X229152380Y-73691666D01*
X229295238Y-73786904D01*
X229390476Y-73882142D01*
X229438095Y-73977380D01*
G04 #@! TD*
M02*
