G04 #@! TF.FileFunction,Copper,L1,Top,Signal*
%FSLAX46Y46*%
G04 Gerber Fmt 4.6, Leading zero omitted, Abs format (unit mm)*
G04 Created by KiCad (PCBNEW 4.0.7) date 07/20/18 15:01:26*
%MOMM*%
%LPD*%
G01*
G04 APERTURE LIST*
%ADD10C,0.100000*%
%ADD11R,1.998980X1.998980*%
%ADD12R,1.700000X1.700000*%
%ADD13O,1.700000X1.700000*%
%ADD14C,0.750000*%
%ADD15C,0.254000*%
G04 APERTURE END LIST*
D10*
G36*
X144426940Y-95929450D02*
X144426940Y-92030550D01*
X147927060Y-93130370D01*
X147927060Y-94829630D01*
X144426940Y-95929450D01*
X144426940Y-95929450D01*
G37*
G36*
X152753060Y-92030550D02*
X152753060Y-95929450D01*
X149252940Y-94829630D01*
X149252940Y-93130370D01*
X152753060Y-92030550D01*
X152753060Y-92030550D01*
G37*
D11*
X143088360Y-93980000D03*
X154091640Y-93980000D03*
D12*
X147320000Y-86360000D03*
D13*
X149860000Y-86360000D03*
D14*
X153591260Y-93980000D02*
X151003000Y-93980000D01*
X151003000Y-93980000D02*
X151003000Y-91003000D01*
X149860000Y-89860000D02*
X149860000Y-86360000D01*
X151003000Y-91003000D02*
X149860000Y-89860000D01*
D15*
G36*
X152955674Y-83119827D02*
X154924768Y-84104374D01*
X157895626Y-87075232D01*
X159873000Y-91029980D01*
X159873000Y-96964822D01*
X156907433Y-101907433D01*
X151964822Y-104873000D01*
X145035178Y-104873000D01*
X140097052Y-101910125D01*
X137127000Y-95970020D01*
X137127000Y-94265750D01*
X141453870Y-94265750D01*
X141453870Y-95105800D01*
X141550543Y-95339189D01*
X141729172Y-95517817D01*
X141962561Y-95614490D01*
X142802610Y-95614490D01*
X142961360Y-95455740D01*
X142961360Y-94107000D01*
X143215360Y-94107000D01*
X143215360Y-95455740D01*
X143374110Y-95614490D01*
X143779500Y-95614490D01*
X143779500Y-95929450D01*
X143804149Y-96106397D01*
X143922058Y-96334756D01*
X144119523Y-96499251D01*
X144365427Y-96573961D01*
X144621025Y-96547115D01*
X146050000Y-96098097D01*
X146050000Y-94107000D01*
X146304000Y-94107000D01*
X146304000Y-96018285D01*
X148121145Y-95447295D01*
X148378501Y-95293720D01*
X148523491Y-95081520D01*
X148574500Y-94829630D01*
X148574500Y-94107000D01*
X146304000Y-94107000D01*
X146050000Y-94107000D01*
X143215360Y-94107000D01*
X142961360Y-94107000D01*
X141612620Y-94107000D01*
X141453870Y-94265750D01*
X137127000Y-94265750D01*
X137127000Y-92854200D01*
X141453870Y-92854200D01*
X141453870Y-93694250D01*
X141612620Y-93853000D01*
X142961360Y-93853000D01*
X142961360Y-92504260D01*
X143215360Y-92504260D01*
X143215360Y-93853000D01*
X146050000Y-93853000D01*
X146304000Y-93853000D01*
X148574500Y-93853000D01*
X148574500Y-93130370D01*
X148505136Y-92838812D01*
X148346160Y-92636878D01*
X148121145Y-92512705D01*
X146304000Y-91941715D01*
X146304000Y-93853000D01*
X146050000Y-93853000D01*
X146050000Y-91861903D01*
X144621025Y-91412885D01*
X144444827Y-91383357D01*
X144191623Y-91427388D01*
X143975499Y-91566460D01*
X143830509Y-91778660D01*
X143779500Y-92030550D01*
X143779500Y-92345510D01*
X143374110Y-92345510D01*
X143215360Y-92504260D01*
X142961360Y-92504260D01*
X142802610Y-92345510D01*
X141962561Y-92345510D01*
X141729172Y-92442183D01*
X141550543Y-92620811D01*
X141453870Y-92854200D01*
X137127000Y-92854200D01*
X137127000Y-91029980D01*
X139104374Y-87075232D01*
X139533856Y-86645750D01*
X145835000Y-86645750D01*
X145835000Y-87336309D01*
X145931673Y-87569698D01*
X146110301Y-87748327D01*
X146343690Y-87845000D01*
X147034250Y-87845000D01*
X147193000Y-87686250D01*
X147193000Y-86487000D01*
X145993750Y-86487000D01*
X145835000Y-86645750D01*
X139533856Y-86645750D01*
X140795915Y-85383691D01*
X145835000Y-85383691D01*
X145835000Y-86074250D01*
X145993750Y-86233000D01*
X147193000Y-86233000D01*
X147193000Y-85033750D01*
X147447000Y-85033750D01*
X147447000Y-86233000D01*
X147467000Y-86233000D01*
X147467000Y-86487000D01*
X147447000Y-86487000D01*
X147447000Y-87686250D01*
X147605750Y-87845000D01*
X148296310Y-87845000D01*
X148529699Y-87748327D01*
X148708327Y-87569698D01*
X148780597Y-87395223D01*
X148809946Y-87439147D01*
X148850000Y-87465910D01*
X148850000Y-89860000D01*
X148926882Y-90246510D01*
X149145822Y-90574178D01*
X149993000Y-91421356D01*
X149993000Y-92219175D01*
X149058855Y-92512705D01*
X148801499Y-92666280D01*
X148656509Y-92878480D01*
X148605500Y-93130370D01*
X148605500Y-94829630D01*
X148674864Y-95121188D01*
X148833840Y-95323122D01*
X149058855Y-95447295D01*
X152558975Y-96547115D01*
X152735173Y-96576643D01*
X152988377Y-96532612D01*
X153204501Y-96393540D01*
X153349491Y-96181340D01*
X153400500Y-95929450D01*
X153400500Y-95626930D01*
X155091130Y-95626930D01*
X155326447Y-95582652D01*
X155542571Y-95443580D01*
X155687561Y-95231380D01*
X155738570Y-94979490D01*
X155738570Y-92980510D01*
X155694292Y-92745193D01*
X155555220Y-92529069D01*
X155343020Y-92384079D01*
X155091130Y-92333070D01*
X153400500Y-92333070D01*
X153400500Y-92030550D01*
X153375851Y-91853603D01*
X153257942Y-91625244D01*
X153060477Y-91460749D01*
X152814573Y-91386039D01*
X152558975Y-91412885D01*
X152013000Y-91584443D01*
X152013000Y-91003000D01*
X151936118Y-90616490D01*
X151717178Y-90288822D01*
X150870000Y-89441644D01*
X150870000Y-87465910D01*
X150910054Y-87439147D01*
X151231961Y-86957378D01*
X151345000Y-86389093D01*
X151345000Y-86330907D01*
X151231961Y-85762622D01*
X150910054Y-85280853D01*
X150428285Y-84958946D01*
X149860000Y-84845907D01*
X149291715Y-84958946D01*
X148809946Y-85280853D01*
X148780597Y-85324777D01*
X148708327Y-85150302D01*
X148529699Y-84971673D01*
X148296310Y-84875000D01*
X147605750Y-84875000D01*
X147447000Y-85033750D01*
X147193000Y-85033750D01*
X147034250Y-84875000D01*
X146343690Y-84875000D01*
X146110301Y-84971673D01*
X145931673Y-85150302D01*
X145835000Y-85383691D01*
X140795915Y-85383691D01*
X142068604Y-84111002D01*
X145035538Y-83122024D01*
X149000000Y-82130909D01*
X152955674Y-83119827D01*
X152955674Y-83119827D01*
G37*
X152955674Y-83119827D02*
X154924768Y-84104374D01*
X157895626Y-87075232D01*
X159873000Y-91029980D01*
X159873000Y-96964822D01*
X156907433Y-101907433D01*
X151964822Y-104873000D01*
X145035178Y-104873000D01*
X140097052Y-101910125D01*
X137127000Y-95970020D01*
X137127000Y-94265750D01*
X141453870Y-94265750D01*
X141453870Y-95105800D01*
X141550543Y-95339189D01*
X141729172Y-95517817D01*
X141962561Y-95614490D01*
X142802610Y-95614490D01*
X142961360Y-95455740D01*
X142961360Y-94107000D01*
X143215360Y-94107000D01*
X143215360Y-95455740D01*
X143374110Y-95614490D01*
X143779500Y-95614490D01*
X143779500Y-95929450D01*
X143804149Y-96106397D01*
X143922058Y-96334756D01*
X144119523Y-96499251D01*
X144365427Y-96573961D01*
X144621025Y-96547115D01*
X146050000Y-96098097D01*
X146050000Y-94107000D01*
X146304000Y-94107000D01*
X146304000Y-96018285D01*
X148121145Y-95447295D01*
X148378501Y-95293720D01*
X148523491Y-95081520D01*
X148574500Y-94829630D01*
X148574500Y-94107000D01*
X146304000Y-94107000D01*
X146050000Y-94107000D01*
X143215360Y-94107000D01*
X142961360Y-94107000D01*
X141612620Y-94107000D01*
X141453870Y-94265750D01*
X137127000Y-94265750D01*
X137127000Y-92854200D01*
X141453870Y-92854200D01*
X141453870Y-93694250D01*
X141612620Y-93853000D01*
X142961360Y-93853000D01*
X142961360Y-92504260D01*
X143215360Y-92504260D01*
X143215360Y-93853000D01*
X146050000Y-93853000D01*
X146304000Y-93853000D01*
X148574500Y-93853000D01*
X148574500Y-93130370D01*
X148505136Y-92838812D01*
X148346160Y-92636878D01*
X148121145Y-92512705D01*
X146304000Y-91941715D01*
X146304000Y-93853000D01*
X146050000Y-93853000D01*
X146050000Y-91861903D01*
X144621025Y-91412885D01*
X144444827Y-91383357D01*
X144191623Y-91427388D01*
X143975499Y-91566460D01*
X143830509Y-91778660D01*
X143779500Y-92030550D01*
X143779500Y-92345510D01*
X143374110Y-92345510D01*
X143215360Y-92504260D01*
X142961360Y-92504260D01*
X142802610Y-92345510D01*
X141962561Y-92345510D01*
X141729172Y-92442183D01*
X141550543Y-92620811D01*
X141453870Y-92854200D01*
X137127000Y-92854200D01*
X137127000Y-91029980D01*
X139104374Y-87075232D01*
X139533856Y-86645750D01*
X145835000Y-86645750D01*
X145835000Y-87336309D01*
X145931673Y-87569698D01*
X146110301Y-87748327D01*
X146343690Y-87845000D01*
X147034250Y-87845000D01*
X147193000Y-87686250D01*
X147193000Y-86487000D01*
X145993750Y-86487000D01*
X145835000Y-86645750D01*
X139533856Y-86645750D01*
X140795915Y-85383691D01*
X145835000Y-85383691D01*
X145835000Y-86074250D01*
X145993750Y-86233000D01*
X147193000Y-86233000D01*
X147193000Y-85033750D01*
X147447000Y-85033750D01*
X147447000Y-86233000D01*
X147467000Y-86233000D01*
X147467000Y-86487000D01*
X147447000Y-86487000D01*
X147447000Y-87686250D01*
X147605750Y-87845000D01*
X148296310Y-87845000D01*
X148529699Y-87748327D01*
X148708327Y-87569698D01*
X148780597Y-87395223D01*
X148809946Y-87439147D01*
X148850000Y-87465910D01*
X148850000Y-89860000D01*
X148926882Y-90246510D01*
X149145822Y-90574178D01*
X149993000Y-91421356D01*
X149993000Y-92219175D01*
X149058855Y-92512705D01*
X148801499Y-92666280D01*
X148656509Y-92878480D01*
X148605500Y-93130370D01*
X148605500Y-94829630D01*
X148674864Y-95121188D01*
X148833840Y-95323122D01*
X149058855Y-95447295D01*
X152558975Y-96547115D01*
X152735173Y-96576643D01*
X152988377Y-96532612D01*
X153204501Y-96393540D01*
X153349491Y-96181340D01*
X153400500Y-95929450D01*
X153400500Y-95626930D01*
X155091130Y-95626930D01*
X155326447Y-95582652D01*
X155542571Y-95443580D01*
X155687561Y-95231380D01*
X155738570Y-94979490D01*
X155738570Y-92980510D01*
X155694292Y-92745193D01*
X155555220Y-92529069D01*
X155343020Y-92384079D01*
X155091130Y-92333070D01*
X153400500Y-92333070D01*
X153400500Y-92030550D01*
X153375851Y-91853603D01*
X153257942Y-91625244D01*
X153060477Y-91460749D01*
X152814573Y-91386039D01*
X152558975Y-91412885D01*
X152013000Y-91584443D01*
X152013000Y-91003000D01*
X151936118Y-90616490D01*
X151717178Y-90288822D01*
X150870000Y-89441644D01*
X150870000Y-87465910D01*
X150910054Y-87439147D01*
X151231961Y-86957378D01*
X151345000Y-86389093D01*
X151345000Y-86330907D01*
X151231961Y-85762622D01*
X150910054Y-85280853D01*
X150428285Y-84958946D01*
X149860000Y-84845907D01*
X149291715Y-84958946D01*
X148809946Y-85280853D01*
X148780597Y-85324777D01*
X148708327Y-85150302D01*
X148529699Y-84971673D01*
X148296310Y-84875000D01*
X147605750Y-84875000D01*
X147447000Y-85033750D01*
X147193000Y-85033750D01*
X147034250Y-84875000D01*
X146343690Y-84875000D01*
X146110301Y-84971673D01*
X145931673Y-85150302D01*
X145835000Y-85383691D01*
X140795915Y-85383691D01*
X142068604Y-84111002D01*
X145035538Y-83122024D01*
X149000000Y-82130909D01*
X152955674Y-83119827D01*
M02*
