G04 #@! TF.FileFunction,Legend,Top*
%FSLAX46Y46*%
G04 Gerber Fmt 4.6, Leading zero omitted, Abs format (unit mm)*
G04 Created by KiCad (PCBNEW 4.0.7) date 07/20/18 15:01:26*
%MOMM*%
%LPD*%
G01*
G04 APERTURE LIST*
%ADD10C,0.100000*%
%ADD11C,0.300000*%
%ADD12C,0.150000*%
%ADD13C,0.120000*%
G04 APERTURE END LIST*
D10*
D11*
X145428572Y-97107143D02*
X146571429Y-97107143D01*
X151428572Y-97107143D02*
X152571429Y-97107143D01*
X152000000Y-97678571D02*
X152000000Y-96535714D01*
D12*
X148590000Y-94780100D02*
X148790660Y-94780100D01*
X148590000Y-94780100D02*
X148389340Y-94780100D01*
X148490940Y-93179900D02*
X148389340Y-93179900D01*
X148389340Y-93179900D02*
X148790660Y-93179900D01*
D13*
X148590000Y-87690000D02*
X151190000Y-87690000D01*
X151190000Y-87690000D02*
X151190000Y-85030000D01*
X151190000Y-85030000D02*
X148590000Y-85030000D01*
X148590000Y-85030000D02*
X148590000Y-87690000D01*
X147320000Y-87690000D02*
X145990000Y-87690000D01*
X145990000Y-87690000D02*
X145990000Y-86360000D01*
D12*
X147950965Y-91333581D02*
X147950965Y-90333581D01*
X148189060Y-90333581D01*
X148331918Y-90381200D01*
X148427156Y-90476438D01*
X148474775Y-90571676D01*
X148522394Y-90762152D01*
X148522394Y-90905010D01*
X148474775Y-91095486D01*
X148427156Y-91190724D01*
X148331918Y-91285962D01*
X148189060Y-91333581D01*
X147950965Y-91333581D01*
X149474775Y-91333581D02*
X148903346Y-91333581D01*
X149189060Y-91333581D02*
X149189060Y-90333581D01*
X149093822Y-90476438D01*
X148998584Y-90571676D01*
X148903346Y-90619295D01*
X144442381Y-86693333D02*
X145156667Y-86693333D01*
X145299524Y-86740953D01*
X145394762Y-86836191D01*
X145442381Y-86979048D01*
X145442381Y-87074286D01*
X145442381Y-85693333D02*
X145442381Y-86264762D01*
X145442381Y-85979048D02*
X144442381Y-85979048D01*
X144585238Y-86074286D01*
X144680476Y-86169524D01*
X144728095Y-86264762D01*
M02*
