solid OpenSCAD_Model
  facet normal -1 0 0
    outer loop
      vertex -15.3 1.5 -20.7
      vertex -15.3 0 -2.5
      vertex -15.3 1.5 -2.5
    endloop
  endfacet
  facet normal -1 -0 0
    outer loop
      vertex -15.3 0 -2.5
      vertex -15.3 -1.5 -20.7
      vertex -15.3 0 2.5
    endloop
  endfacet
  facet normal -1 0 0
    outer loop
      vertex -15.3 -1.5 -20.7
      vertex -15.3 0 -2.5
      vertex -15.3 1.5 -20.7
    endloop
  endfacet
  facet normal -1 0 0
    outer loop
      vertex -15.3 0 2.5
      vertex -15.3 1.5 20.7
      vertex -15.3 1.5 2.5
    endloop
  endfacet
  facet normal -1 0 0
    outer loop
      vertex -15.3 0 2.5
      vertex -15.3 -1.5 20.7
      vertex -15.3 1.5 20.7
    endloop
  endfacet
  facet normal -1 0 0
    outer loop
      vertex -15.3 -1.5 20.7
      vertex -15.3 0 2.5
      vertex -15.3 -1.5 -20.7
    endloop
  endfacet
  facet normal -0 0 1
    outer loop
      vertex -15.3 1.5 20.7
      vertex 15.3 -1.5 20.7
      vertex 15.3 1.5 20.7
    endloop
  endfacet
  facet normal 0 0 1
    outer loop
      vertex 15.3 -1.5 20.7
      vertex -15.3 1.5 20.7
      vertex -15.3 -1.5 20.7
    endloop
  endfacet
  facet normal 1 -0 0
    outer loop
      vertex 15.3 -1.5 20.7
      vertex 15.3 1.5 -20.7
      vertex 15.3 1.5 20.7
    endloop
  endfacet
  facet normal 1 0 0
    outer loop
      vertex 15.3 1.5 -20.7
      vertex 15.3 -1.5 20.7
      vertex 15.3 -1.5 -20.7
    endloop
  endfacet
  facet normal 0 0 -1
    outer loop
      vertex -15.3 -1.5 -20.7
      vertex 15.3 1.5 -20.7
      vertex 15.3 -1.5 -20.7
    endloop
  endfacet
  facet normal -0 0 -1
    outer loop
      vertex 15.3 1.5 -20.7
      vertex -15.3 -1.5 -20.7
      vertex -15.3 1.5 -20.7
    endloop
  endfacet
  facet normal 0 -1 0
    outer loop
      vertex -15.3 -1.5 20.7
      vertex -11.55 -1.5 16.95
      vertex 15.3 -1.5 20.7
    endloop
  endfacet
  facet normal 0 -1 0
    outer loop
      vertex -15.3 -1.5 20.7
      vertex -11.55 -1.5 -16.95
      vertex -11.55 -1.5 16.95
    endloop
  endfacet
  facet normal 0 -1 -0
    outer loop
      vertex -11.55 -1.5 -16.95
      vertex -15.3 -1.5 -20.7
      vertex 11.55 -1.5 -16.95
    endloop
  endfacet
  facet normal 0 -1 0
    outer loop
      vertex -15.3 -1.5 -20.7
      vertex -11.55 -1.5 -16.95
      vertex -15.3 -1.5 20.7
    endloop
  endfacet
  facet normal 0 -1 0
    outer loop
      vertex 11.55 -1.5 16.95
      vertex 15.3 -1.5 20.7
      vertex -11.55 -1.5 16.95
    endloop
  endfacet
  facet normal 0 -1 0
    outer loop
      vertex 11.55 -1.5 -16.95
      vertex 15.3 -1.5 20.7
      vertex 11.55 -1.5 16.95
    endloop
  endfacet
  facet normal 0 -1 0
    outer loop
      vertex 11.55 -1.5 -16.95
      vertex 15.3 -1.5 -20.7
      vertex 15.3 -1.5 20.7
    endloop
  endfacet
  facet normal 0 -1 0
    outer loop
      vertex 15.3 -1.5 -20.7
      vertex 11.55 -1.5 -16.95
      vertex -15.3 -1.5 -20.7
    endloop
  endfacet
  facet normal 0 1 0
    outer loop
      vertex 15.3 1.5 20.7
      vertex 12.875 1.5 18.275
      vertex -15.3 1.5 20.7
    endloop
  endfacet
  facet normal 0 1 0
    outer loop
      vertex 15.3 1.5 20.7
      vertex 12.875 1.5 -18.275
      vertex 12.875 1.5 18.275
    endloop
  endfacet
  facet normal 0 1 0
    outer loop
      vertex 12.875 1.5 -18.275
      vertex 15.3 1.5 -20.7
      vertex -12.875 1.5 -18.275
    endloop
  endfacet
  facet normal 0 1 -0
    outer loop
      vertex 15.3 1.5 -20.7
      vertex 12.875 1.5 -18.275
      vertex 15.3 1.5 20.7
    endloop
  endfacet
  facet normal 0 1 -0
    outer loop
      vertex -12.875 1.5 18.275
      vertex -15.3 1.5 20.7
      vertex 12.875 1.5 18.275
    endloop
  endfacet
  facet normal 0 1 0
    outer loop
      vertex -15.3 1.5 2.5
      vertex -12.875 1.5 18.275
      vertex -12.875 1.5 2.5
    endloop
  endfacet
  facet normal 0 1 0
    outer loop
      vertex -12.875 1.5 18.275
      vertex -15.3 1.5 2.5
      vertex -15.3 1.5 20.7
    endloop
  endfacet
  facet normal 0 1 -0
    outer loop
      vertex -12.875 1.5 -18.275
      vertex -15.3 1.5 -2.5
      vertex -12.875 1.5 -2.5
    endloop
  endfacet
  facet normal 0 1 0
    outer loop
      vertex -12.875 1.5 -18.275
      vertex -15.3 1.5 -20.7
      vertex -15.3 1.5 -2.5
    endloop
  endfacet
  facet normal 0 1 0
    outer loop
      vertex -15.3 1.5 -20.7
      vertex -12.875 1.5 -18.275
      vertex 15.3 1.5 -20.7
    endloop
  endfacet
  facet normal 1 0 0
    outer loop
      vertex -12.875 1.5 18.275
      vertex -12.875 0 2.5
      vertex -12.875 1.5 2.5
    endloop
  endfacet
  facet normal 1 0 0
    outer loop
      vertex -12.875 0 2.5
      vertex -12.875 -0.625 18.275
      vertex -12.875 0 -2.5
    endloop
  endfacet
  facet normal 1 -0 0
    outer loop
      vertex -12.875 -0.625 18.275
      vertex -12.875 0 2.5
      vertex -12.875 1.5 18.275
    endloop
  endfacet
  facet normal 1 -0 0
    outer loop
      vertex -12.875 0 -2.5
      vertex -12.875 1.5 -18.275
      vertex -12.875 1.5 -2.5
    endloop
  endfacet
  facet normal 1 0 0
    outer loop
      vertex -12.875 0 -2.5
      vertex -12.875 -0.625 -18.275
      vertex -12.875 1.5 -18.275
    endloop
  endfacet
  facet normal 1 0 0
    outer loop
      vertex -12.875 -0.625 -18.275
      vertex -12.875 0 -2.5
      vertex -12.875 -0.625 18.275
    endloop
  endfacet
  facet normal 0 0 -1
    outer loop
      vertex -12.875 -0.625 18.275
      vertex 12.875 1.5 18.275
      vertex 12.875 -0.625 18.275
    endloop
  endfacet
  facet normal -0 0 -1
    outer loop
      vertex 12.875 1.5 18.275
      vertex -12.875 -0.625 18.275
      vertex -12.875 1.5 18.275
    endloop
  endfacet
  facet normal -1 0 0
    outer loop
      vertex 12.875 -0.625 -18.275
      vertex 12.875 1.5 18.275
      vertex 12.875 1.5 -18.275
    endloop
  endfacet
  facet normal -1 -0 0
    outer loop
      vertex 12.875 1.5 18.275
      vertex 12.875 -0.625 -18.275
      vertex 12.875 -0.625 18.275
    endloop
  endfacet
  facet normal -0 0 1
    outer loop
      vertex -12.875 1.5 -18.275
      vertex 12.875 -0.625 -18.275
      vertex 12.875 1.5 -18.275
    endloop
  endfacet
  facet normal 0 0 1
    outer loop
      vertex 12.875 -0.625 -18.275
      vertex -12.875 1.5 -18.275
      vertex -12.875 -0.625 -18.275
    endloop
  endfacet
  facet normal 0 1 0
    outer loop
      vertex 12.875 -0.625 18.275
      vertex 11.55 -0.625 16.95
      vertex -12.875 -0.625 18.275
    endloop
  endfacet
  facet normal 0 1 0
    outer loop
      vertex 12.875 -0.625 18.275
      vertex 11.55 -0.625 -16.95
      vertex 11.55 -0.625 16.95
    endloop
  endfacet
  facet normal 0 1 0
    outer loop
      vertex 11.55 -0.625 -16.95
      vertex 12.875 -0.625 -18.275
      vertex -11.55 -0.625 -16.95
    endloop
  endfacet
  facet normal 0 1 -0
    outer loop
      vertex 12.875 -0.625 -18.275
      vertex 11.55 -0.625 -16.95
      vertex 12.875 -0.625 18.275
    endloop
  endfacet
  facet normal 0 1 -0
    outer loop
      vertex -11.55 -0.625 16.95
      vertex -12.875 -0.625 18.275
      vertex 11.55 -0.625 16.95
    endloop
  endfacet
  facet normal 0 1 -0
    outer loop
      vertex -11.55 -0.625 -16.95
      vertex -12.875 -0.625 18.275
      vertex -11.55 -0.625 16.95
    endloop
  endfacet
  facet normal 0 1 0
    outer loop
      vertex -11.55 -0.625 -16.95
      vertex -12.875 -0.625 -18.275
      vertex -12.875 -0.625 18.275
    endloop
  endfacet
  facet normal 0 1 0
    outer loop
      vertex -12.875 -0.625 -18.275
      vertex -11.55 -0.625 -16.95
      vertex 12.875 -0.625 -18.275
    endloop
  endfacet
  facet normal 1 -0 0
    outer loop
      vertex -11.55 -1.5 16.95
      vertex -11.55 -0.625 -16.95
      vertex -11.55 -0.625 16.95
    endloop
  endfacet
  facet normal 1 0 0
    outer loop
      vertex -11.55 -0.625 -16.95
      vertex -11.55 -1.5 16.95
      vertex -11.55 -1.5 -16.95
    endloop
  endfacet
  facet normal 0 0 -1
    outer loop
      vertex -11.55 -1.5 16.95
      vertex 11.55 -0.625 16.95
      vertex 11.55 -1.5 16.95
    endloop
  endfacet
  facet normal -0 0 -1
    outer loop
      vertex 11.55 -0.625 16.95
      vertex -11.55 -1.5 16.95
      vertex -11.55 -0.625 16.95
    endloop
  endfacet
  facet normal -1 0 0
    outer loop
      vertex 11.55 -1.5 -16.95
      vertex 11.55 -0.625 16.95
      vertex 11.55 -0.625 -16.95
    endloop
  endfacet
  facet normal -1 -0 0
    outer loop
      vertex 11.55 -0.625 16.95
      vertex 11.55 -1.5 -16.95
      vertex 11.55 -1.5 16.95
    endloop
  endfacet
  facet normal -0 0 1
    outer loop
      vertex -11.55 -0.625 -16.95
      vertex 11.55 -1.5 -16.95
      vertex 11.55 -0.625 -16.95
    endloop
  endfacet
  facet normal 0 0 1
    outer loop
      vertex 11.55 -1.5 -16.95
      vertex -11.55 -0.625 -16.95
      vertex -11.55 -1.5 -16.95
    endloop
  endfacet
  facet normal 0 0 -1
    outer loop
      vertex -15.3 0 2.5
      vertex -12.875 1.5 2.5
      vertex -12.875 0 2.5
    endloop
  endfacet
  facet normal -0 0 -1
    outer loop
      vertex -12.875 1.5 2.5
      vertex -15.3 0 2.5
      vertex -15.3 1.5 2.5
    endloop
  endfacet
  facet normal -0 0 1
    outer loop
      vertex -15.3 1.5 -2.5
      vertex -12.875 0 -2.5
      vertex -12.875 1.5 -2.5
    endloop
  endfacet
  facet normal 0 0 1
    outer loop
      vertex -12.875 0 -2.5
      vertex -15.3 1.5 -2.5
      vertex -15.3 0 -2.5
    endloop
  endfacet
  facet normal 0 1 -0
    outer loop
      vertex -12.875 0 -2.5
      vertex -15.3 0 2.5
      vertex -12.875 0 2.5
    endloop
  endfacet
  facet normal 0 1 0
    outer loop
      vertex -15.3 0 2.5
      vertex -12.875 0 -2.5
      vertex -15.3 0 -2.5
    endloop
  endfacet
endsolid OpenSCAD_Model
