solid OpenSCAD_Model
  facet normal 1 0 0
    outer loop
      vertex -1.85 0 3.5
      vertex -1.85 -1.85 3.5
      vertex -1.85 0 0.799999
    endloop
  endfacet
  facet normal 1 -0 0
    outer loop
      vertex -1.85 0 0.799999
      vertex -1.85 1.85 0
      vertex -1.85 1.85 0.799999
    endloop
  endfacet
  facet normal 1 0 0
    outer loop
      vertex -1.85 0 0.799999
      vertex -1.85 -1.85 0
      vertex -1.85 1.85 0
    endloop
  endfacet
  facet normal 1 0 0
    outer loop
      vertex -1.85 -1.85 0
      vertex -1.85 0 0.799999
      vertex -1.85 -1.85 3.5
    endloop
  endfacet
  facet normal -1 0 0
    outer loop
      vertex 1.85 1.85 0
      vertex 1.85 0 0.799999
      vertex 1.85 1.85 0.799999
    endloop
  endfacet
  facet normal -1 0 0
    outer loop
      vertex 1.85 -1.85 0
      vertex 1.85 0 0.799999
      vertex 1.85 1.85 0
    endloop
  endfacet
  facet normal -1 0 0
    outer loop
      vertex 1.85 -1.85 3.5
      vertex 1.85 0 0.799999
      vertex 1.85 -1.85 0
    endloop
  endfacet
  facet normal -1 0 0
    outer loop
      vertex 1.85 0 0.799999
      vertex 1.85 -1.85 3.5
      vertex 1.85 0 3.5
    endloop
  endfacet
  facet normal 0 -1 0
    outer loop
      vertex -1.85 1.85 0
      vertex 1.85 1.85 0.799999
      vertex -1.85 1.85 0.799999
    endloop
  endfacet
  facet normal 0 -1 -0
    outer loop
      vertex 1.85 1.85 0.799999
      vertex -1.85 1.85 0
      vertex 1.85 1.85 0
    endloop
  endfacet
  facet normal 0 1 -0
    outer loop
      vertex 1.85 -1.85 0
      vertex -1.85 -1.85 3.5
      vertex 1.85 -1.85 3.5
    endloop
  endfacet
  facet normal 0 1 0
    outer loop
      vertex -1.85 -1.85 3.5
      vertex 1.85 -1.85 0
      vertex -1.85 -1.85 0
    endloop
  endfacet
  facet normal 1 -0 0
    outer loop
      vertex -2.075 0 3.5
      vertex -2.075 12.5732 0.799999
      vertex -2.075 12.5732 3.5
    endloop
  endfacet
  facet normal 1 0 0
    outer loop
      vertex -2.075 12.5732 0.799999
      vertex -2.075 0 3.5
      vertex -2.075 0 0.799999
    endloop
  endfacet
  facet normal -1 0 0
    outer loop
      vertex 2.075 0 0.799999
      vertex 2.075 12.5732 3.5
      vertex 2.075 12.5732 0.799999
    endloop
  endfacet
  facet normal -1 -0 0
    outer loop
      vertex 2.075 12.5732 3.5
      vertex 2.075 0 0.799999
      vertex 2.075 0 3.5
    endloop
  endfacet
  facet normal 0 0 1
    outer loop
      vertex 2.075 12.5732 0.799999
      vertex 1.85 1.85 0.799999
      vertex 2.075 0 0.799999
    endloop
  endfacet
  facet normal 0 0 1
    outer loop
      vertex 1.33796 12.7299 0.799999
      vertex 1.85 1.85 0.799999
      vertex 2.075 12.5732 0.799999
    endloop
  endfacet
  facet normal -0 0 1
    outer loop
      vertex -1.33796 12.7299 0.799999
      vertex 1.85 1.85 0.799999
      vertex 1.33796 12.7299 0.799999
    endloop
  endfacet
  facet normal 0 0 1
    outer loop
      vertex -1.33796 12.7299 0.799999
      vertex -1.85 1.85 0.799999
      vertex 1.85 1.85 0.799999
    endloop
  endfacet
  facet normal -0 0 1
    outer loop
      vertex -2.075 12.5732 0.799999
      vertex -1.85 1.85 0.799999
      vertex -1.33796 12.7299 0.799999
    endloop
  endfacet
  facet normal 0 0 1
    outer loop
      vertex -2.075 0 0.799999
      vertex -1.85 1.85 0.799999
      vertex -2.075 12.5732 0.799999
    endloop
  endfacet
  facet normal 0 0 1
    outer loop
      vertex -1.85 1.85 0.799999
      vertex -2.075 0 0.799999
      vertex -1.85 0 0.799999
    endloop
  endfacet
  facet normal 0 0 1
    outer loop
      vertex 2.075 0 0.799999
      vertex 1.85 1.85 0.799999
      vertex 1.85 0 0.799999
    endloop
  endfacet
  facet normal 0 1 -0
    outer loop
      vertex -1.85 0 0.799999
      vertex -2.075 0 3.5
      vertex -1.85 0 3.5
    endloop
  endfacet
  facet normal 0 1 0
    outer loop
      vertex -2.075 0 3.5
      vertex -1.85 0 0.799999
      vertex -2.075 0 0.799999
    endloop
  endfacet
  facet normal 0 1 -0
    outer loop
      vertex 2.075 0 0.799999
      vertex 1.85 0 3.5
      vertex 2.075 0 3.5
    endloop
  endfacet
  facet normal 0 1 0
    outer loop
      vertex 1.85 0 3.5
      vertex 2.075 0 0.799999
      vertex 1.85 0 0.799999
    endloop
  endfacet
  facet normal 0.994522 0.104529 0
    outer loop
      vertex 12.8 0 3.5
      vertex 12.5203 2.66127 0
      vertex 12.5203 2.66127 3.5
    endloop
  endfacet
  facet normal 0.994522 0.104529 0
    outer loop
      vertex 12.5203 2.66127 0
      vertex 12.8 0 3.5
      vertex 12.8 0 0
    endloop
  endfacet
  facet normal -0.994522 0.104529 0
    outer loop
      vertex -12.8 0 0
      vertex -12.5203 2.66127 3.5
      vertex -12.5203 2.66127 0
    endloop
  endfacet
  facet normal -0.994522 0.104529 0
    outer loop
      vertex -12.5203 2.66127 3.5
      vertex -12.8 0 0
      vertex -12.8 0 3.5
    endloop
  endfacet
  facet normal 0 1 -0
    outer loop
      vertex 1.33796 12.7299 0
      vertex -1.33796 12.7299 0.799999
      vertex 1.33796 12.7299 0.799999
    endloop
  endfacet
  facet normal 0 1 0
    outer loop
      vertex -1.33796 12.7299 0.799999
      vertex 1.33796 12.7299 0
      vertex -1.33796 12.7299 0
    endloop
  endfacet
  facet normal 0 -1 0
    outer loop
      vertex -1.33796 -12.7299 0
      vertex 1.33796 -12.7299 3.5
      vertex -1.33796 -12.7299 3.5
    endloop
  endfacet
  facet normal 0 -1 -0
    outer loop
      vertex 1.33796 -12.7299 3.5
      vertex -1.33796 -12.7299 0
      vertex 1.33796 -12.7299 0
    endloop
  endfacet
  facet normal 0.587785 0.809017 -0
    outer loop
      vertex 8.56487 9.51225 0
      vertex 6.4 11.0851 3.5
      vertex 8.56487 9.51225 3.5
    endloop
  endfacet
  facet normal 0.587785 0.809017 0
    outer loop
      vertex 6.4 11.0851 3.5
      vertex 8.56487 9.51225 0
      vertex 6.4 11.0851 0
    endloop
  endfacet
  facet normal 0.406736 0.913546 -0
    outer loop
      vertex 6.4 11.0851 0
      vertex 3.95542 12.1735 3.5
      vertex 6.4 11.0851 3.5
    endloop
  endfacet
  facet normal 0.406736 0.913546 0
    outer loop
      vertex 3.95542 12.1735 3.5
      vertex 6.4 11.0851 0
      vertex 3.95542 12.1735 0
    endloop
  endfacet
  facet normal -0.743145 0.669131 0
    outer loop
      vertex -10.3554 7.52365 0
      vertex -8.56487 9.51225 3.5
      vertex -8.56487 9.51225 0
    endloop
  endfacet
  facet normal -0.743145 0.669131 0
    outer loop
      vertex -8.56487 9.51225 3.5
      vertex -10.3554 7.52365 0
      vertex -10.3554 7.52365 3.5
    endloop
  endfacet
  facet normal -0.866026 0.5 0
    outer loop
      vertex -11.6934 5.20623 0
      vertex -10.3554 7.52365 3.5
      vertex -10.3554 7.52365 0
    endloop
  endfacet
  facet normal -0.866026 0.5 0
    outer loop
      vertex -10.3554 7.52365 3.5
      vertex -11.6934 5.20623 0
      vertex -11.6934 5.20623 3.5
    endloop
  endfacet
  facet normal -0.406736 0.913546 0
    outer loop
      vertex -3.95542 12.1735 0
      vertex -6.4 11.0851 3.5
      vertex -3.95542 12.1735 3.5
    endloop
  endfacet
  facet normal -0.406736 0.913546 0
    outer loop
      vertex -6.4 11.0851 3.5
      vertex -3.95542 12.1735 0
      vertex -6.4 11.0851 0
    endloop
  endfacet
  facet normal 0.866026 0.5 0
    outer loop
      vertex 11.6934 5.20623 3.5
      vertex 10.3554 7.52365 0
      vertex 10.3554 7.52365 3.5
    endloop
  endfacet
  facet normal 0.866026 0.5 0
    outer loop
      vertex 10.3554 7.52365 0
      vertex 11.6934 5.20623 3.5
      vertex 11.6934 5.20623 0
    endloop
  endfacet
  facet normal 0.951057 0.309017 0
    outer loop
      vertex 12.5203 2.66127 3.5
      vertex 11.6934 5.20623 0
      vertex 11.6934 5.20623 3.5
    endloop
  endfacet
  facet normal 0.951057 0.309017 0
    outer loop
      vertex 11.6934 5.20623 0
      vertex 12.5203 2.66127 3.5
      vertex 12.5203 2.66127 0
    endloop
  endfacet
  facet normal 0.743145 0.669131 0
    outer loop
      vertex 10.3554 7.52365 3.5
      vertex 8.56487 9.51225 0
      vertex 8.56487 9.51225 3.5
    endloop
  endfacet
  facet normal 0.743145 0.669131 0
    outer loop
      vertex 8.56487 9.51225 0
      vertex 10.3554 7.52365 3.5
      vertex 10.3554 7.52365 0
    endloop
  endfacet
  facet normal 0.207911 0.978148 0
    outer loop
      vertex 3.95542 12.1735 3.5
      vertex 2.075 12.5732 0.799999
      vertex 2.075 12.5732 3.5
    endloop
  endfacet
  facet normal 0.207911 0.978148 -0
    outer loop
      vertex 3.95542 12.1735 0
      vertex 2.075 12.5732 0.799999
      vertex 3.95542 12.1735 3.5
    endloop
  endfacet
  facet normal 0.207912 0.978148 3.50306e-007
    outer loop
      vertex 1.33796 12.7299 0
      vertex 2.075 12.5732 0.799999
      vertex 3.95542 12.1735 0
    endloop
  endfacet
  facet normal 0.207912 0.978148 0
    outer loop
      vertex 2.075 12.5732 0.799999
      vertex 1.33796 12.7299 0
      vertex 1.33796 12.7299 0.799999
    endloop
  endfacet
  facet normal -0.951057 0.309017 0
    outer loop
      vertex -12.5203 2.66127 0
      vertex -11.6934 5.20623 3.5
      vertex -11.6934 5.20623 0
    endloop
  endfacet
  facet normal -0.951057 0.309017 0
    outer loop
      vertex -11.6934 5.20623 3.5
      vertex -12.5203 2.66127 0
      vertex -12.5203 2.66127 3.5
    endloop
  endfacet
  facet normal 0 0 1
    outer loop
      vertex -2.075 12.5732 3.5
      vertex -3.95542 12.1735 3.5
      vertex -2.075 0 3.5
    endloop
  endfacet
  facet normal 0 0 1
    outer loop
      vertex -1.85 0 3.5
      vertex -2.075 0 3.5
      vertex -1.85 -1.85 3.5
    endloop
  endfacet
  facet normal 0 0 1
    outer loop
      vertex 2.075 0 3.5
      vertex 12.8 0 3.5
      vertex 12.5203 2.66127 3.5
    endloop
  endfacet
  facet normal 0 0 1
    outer loop
      vertex 2.075 0 3.5
      vertex 12.5203 2.66127 3.5
      vertex 11.6934 5.20623 3.5
    endloop
  endfacet
  facet normal 0 0 1
    outer loop
      vertex 12.8 0 3.5
      vertex 2.075 0 3.5
      vertex 12.5203 -2.66127 3.5
    endloop
  endfacet
  facet normal 0 0 1
    outer loop
      vertex 2.075 0 3.5
      vertex 11.6934 5.20623 3.5
      vertex 10.3554 7.52365 3.5
    endloop
  endfacet
  facet normal -0 0 1
    outer loop
      vertex 1.85 -1.85 3.5
      vertex 12.5203 -2.66127 3.5
      vertex 2.075 0 3.5
    endloop
  endfacet
  facet normal 0 0 1
    outer loop
      vertex 2.075 0 3.5
      vertex 10.3554 7.52365 3.5
      vertex 8.56487 9.51225 3.5
    endloop
  endfacet
  facet normal 0 0 1
    outer loop
      vertex 12.5203 -2.66127 3.5
      vertex 1.85 -1.85 3.5
      vertex 11.6934 -5.20623 3.5
    endloop
  endfacet
  facet normal 0 0 1
    outer loop
      vertex 2.075 0 3.5
      vertex 8.56487 9.51225 3.5
      vertex 6.4 11.0851 3.5
    endloop
  endfacet
  facet normal 0 0 1
    outer loop
      vertex 11.6934 -5.20623 3.5
      vertex 1.85 -1.85 3.5
      vertex 10.3554 -7.52365 3.5
    endloop
  endfacet
  facet normal 0 0 1
    outer loop
      vertex 2.075 0 3.5
      vertex 6.4 11.0851 3.5
      vertex 3.95542 12.1735 3.5
    endloop
  endfacet
  facet normal 0 0 1
    outer loop
      vertex 10.3554 -7.52365 3.5
      vertex 1.85 -1.85 3.5
      vertex 8.56487 -9.51225 3.5
    endloop
  endfacet
  facet normal 0 0 1
    outer loop
      vertex 2.075 0 3.5
      vertex 3.95542 12.1735 3.5
      vertex 2.075 12.5732 3.5
    endloop
  endfacet
  facet normal 0 0 1
    outer loop
      vertex 8.56487 -9.51225 3.5
      vertex 1.85 -1.85 3.5
      vertex 6.4 -11.0851 3.5
    endloop
  endfacet
  facet normal 0 0 1
    outer loop
      vertex 1.85 -1.85 3.5
      vertex 2.075 0 3.5
      vertex 1.85 0 3.5
    endloop
  endfacet
  facet normal 0 0 1
    outer loop
      vertex 6.4 -11.0851 3.5
      vertex 1.85 -1.85 3.5
      vertex 3.95542 -12.1735 3.5
    endloop
  endfacet
  facet normal 0 0 1
    outer loop
      vertex 1.85 -1.85 3.5
      vertex 1.33796 -12.7299 3.5
      vertex 3.95542 -12.1735 3.5
    endloop
  endfacet
  facet normal 0 0 1
    outer loop
      vertex 1.85 -1.85 3.5
      vertex -1.33796 -12.7299 3.5
      vertex 1.33796 -12.7299 3.5
    endloop
  endfacet
  facet normal -0 0 1
    outer loop
      vertex -1.85 -1.85 3.5
      vertex -1.33796 -12.7299 3.5
      vertex 1.85 -1.85 3.5
    endloop
  endfacet
  facet normal 0 0 1
    outer loop
      vertex -12.5203 -2.66127 3.5
      vertex -1.85 -1.85 3.5
      vertex -2.075 0 3.5
    endloop
  endfacet
  facet normal -0 0 1
    outer loop
      vertex -6.4 11.0851 3.5
      vertex -2.075 0 3.5
      vertex -3.95542 12.1735 3.5
    endloop
  endfacet
  facet normal 0 0 1
    outer loop
      vertex -1.85 -1.85 3.5
      vertex -3.95542 -12.1735 3.5
      vertex -1.33796 -12.7299 3.5
    endloop
  endfacet
  facet normal -0 0 1
    outer loop
      vertex -8.56487 9.51225 3.5
      vertex -2.075 0 3.5
      vertex -6.4 11.0851 3.5
    endloop
  endfacet
  facet normal 0 0 1
    outer loop
      vertex -1.85 -1.85 3.5
      vertex -6.4 -11.0851 3.5
      vertex -3.95542 -12.1735 3.5
    endloop
  endfacet
  facet normal -0 0 1
    outer loop
      vertex -10.3554 7.52365 3.5
      vertex -2.075 0 3.5
      vertex -8.56487 9.51225 3.5
    endloop
  endfacet
  facet normal 0 0 1
    outer loop
      vertex -1.85 -1.85 3.5
      vertex -8.56487 -9.51225 3.5
      vertex -6.4 -11.0851 3.5
    endloop
  endfacet
  facet normal -0 0 1
    outer loop
      vertex -11.6934 5.20623 3.5
      vertex -2.075 0 3.5
      vertex -10.3554 7.52365 3.5
    endloop
  endfacet
  facet normal 0 0 1
    outer loop
      vertex -1.85 -1.85 3.5
      vertex -10.3554 -7.52365 3.5
      vertex -8.56487 -9.51225 3.5
    endloop
  endfacet
  facet normal -0 0 1
    outer loop
      vertex -12.5203 2.66127 3.5
      vertex -2.075 0 3.5
      vertex -11.6934 5.20623 3.5
    endloop
  endfacet
  facet normal 0 0 1
    outer loop
      vertex -1.85 -1.85 3.5
      vertex -11.6934 -5.20623 3.5
      vertex -10.3554 -7.52365 3.5
    endloop
  endfacet
  facet normal 0 0 1
    outer loop
      vertex -12.8 0 3.5
      vertex -2.075 0 3.5
      vertex -12.5203 2.66127 3.5
    endloop
  endfacet
  facet normal 0 0 1
    outer loop
      vertex -1.85 -1.85 3.5
      vertex -12.5203 -2.66127 3.5
      vertex -11.6934 -5.20623 3.5
    endloop
  endfacet
  facet normal 0 0 1
    outer loop
      vertex -2.075 0 3.5
      vertex -12.8 0 3.5
      vertex -12.5203 -2.66127 3.5
    endloop
  endfacet
  facet normal -0.587785 0.809017 0
    outer loop
      vertex -6.4 11.0851 0
      vertex -8.56487 9.51225 3.5
      vertex -6.4 11.0851 3.5
    endloop
  endfacet
  facet normal -0.587785 0.809017 0
    outer loop
      vertex -8.56487 9.51225 3.5
      vertex -6.4 11.0851 0
      vertex -8.56487 9.51225 0
    endloop
  endfacet
  facet normal -0.207912 0.978148 0
    outer loop
      vertex -1.33796 12.7299 0.799999
      vertex -1.33796 12.7299 0
      vertex -2.075 12.5732 0.799999
    endloop
  endfacet
  facet normal -0.207911 0.978148 0
    outer loop
      vertex -2.075 12.5732 0.799999
      vertex -3.95542 12.1735 3.5
      vertex -2.075 12.5732 3.5
    endloop
  endfacet
  facet normal -0.207911 0.978148 0
    outer loop
      vertex -2.075 12.5732 0.799999
      vertex -3.95542 12.1735 0
      vertex -3.95542 12.1735 3.5
    endloop
  endfacet
  facet normal -0.207912 0.978148 3.50306e-007
    outer loop
      vertex -3.95542 12.1735 0
      vertex -2.075 12.5732 0.799999
      vertex -1.33796 12.7299 0
    endloop
  endfacet
  facet normal 0.994522 -0.104529 0
    outer loop
      vertex 12.5203 -2.66127 3.5
      vertex 12.8 0 0
      vertex 12.8 0 3.5
    endloop
  endfacet
  facet normal 0.994522 -0.104529 0
    outer loop
      vertex 12.8 0 0
      vertex 12.5203 -2.66127 3.5
      vertex 12.5203 -2.66127 0
    endloop
  endfacet
  facet normal 0 0 -1
    outer loop
      vertex 1.85 -1.85 0
      vertex 12.8 0 0
      vertex 12.5203 -2.66127 0
    endloop
  endfacet
  facet normal 0 0 -1
    outer loop
      vertex 1.85 -1.85 0
      vertex 12.5203 -2.66127 0
      vertex 11.6934 -5.20623 0
    endloop
  endfacet
  facet normal 0 0 -1
    outer loop
      vertex 1.85 1.85 0
      vertex 12.8 0 0
      vertex 1.85 -1.85 0
    endloop
  endfacet
  facet normal 0 0 -1
    outer loop
      vertex 1.85 -1.85 0
      vertex 11.6934 -5.20623 0
      vertex 10.3554 -7.52365 0
    endloop
  endfacet
  facet normal 0 0 -1
    outer loop
      vertex 12.8 0 0
      vertex 1.85 1.85 0
      vertex 12.5203 2.66127 0
    endloop
  endfacet
  facet normal 0 0 -1
    outer loop
      vertex 1.85 -1.85 0
      vertex 10.3554 -7.52365 0
      vertex 8.56487 -9.51225 0
    endloop
  endfacet
  facet normal -0 0 -1
    outer loop
      vertex 12.5203 2.66127 0
      vertex 1.85 1.85 0
      vertex 11.6934 5.20623 0
    endloop
  endfacet
  facet normal 0 0 -1
    outer loop
      vertex 1.85 -1.85 0
      vertex 8.56487 -9.51225 0
      vertex 6.4 -11.0851 0
    endloop
  endfacet
  facet normal -0 0 -1
    outer loop
      vertex 11.6934 5.20623 0
      vertex 1.85 1.85 0
      vertex 10.3554 7.52365 0
    endloop
  endfacet
  facet normal 0 0 -1
    outer loop
      vertex 1.85 -1.85 0
      vertex 6.4 -11.0851 0
      vertex 3.95542 -12.1735 0
    endloop
  endfacet
  facet normal -0 0 -1
    outer loop
      vertex 10.3554 7.52365 0
      vertex 1.85 1.85 0
      vertex 8.56487 9.51225 0
    endloop
  endfacet
  facet normal -0 0 -1
    outer loop
      vertex 8.56487 9.51225 0
      vertex 1.85 1.85 0
      vertex 6.4 11.0851 0
    endloop
  endfacet
  facet normal 0 0 -1
    outer loop
      vertex 1.33796 -12.7299 0
      vertex 1.85 -1.85 0
      vertex 3.95542 -12.1735 0
    endloop
  endfacet
  facet normal 0 0 -1
    outer loop
      vertex -1.33796 -12.7299 0
      vertex 1.85 -1.85 0
      vertex 1.33796 -12.7299 0
    endloop
  endfacet
  facet normal 0 0 -1
    outer loop
      vertex -1.33796 -12.7299 0
      vertex -1.85 -1.85 0
      vertex 1.85 -1.85 0
    endloop
  endfacet
  facet normal 0 0 -1
    outer loop
      vertex -6.4 -11.0851 0
      vertex -1.85 -1.85 0
      vertex -3.95542 -12.1735 0
    endloop
  endfacet
  facet normal 0 0 -1
    outer loop
      vertex -3.95542 -12.1735 0
      vertex -1.85 -1.85 0
      vertex -1.33796 -12.7299 0
    endloop
  endfacet
  facet normal -0 0 -1
    outer loop
      vertex 6.4 11.0851 0
      vertex 1.85 1.85 0
      vertex 3.95542 12.1735 0
    endloop
  endfacet
  facet normal 0 0 -1
    outer loop
      vertex 1.85 1.85 0
      vertex 1.33796 12.7299 0
      vertex 3.95542 12.1735 0
    endloop
  endfacet
  facet normal 0 0 -1
    outer loop
      vertex 1.85 1.85 0
      vertex -1.33796 12.7299 0
      vertex 1.33796 12.7299 0
    endloop
  endfacet
  facet normal 0 0 -1
    outer loop
      vertex -1.85 1.85 0
      vertex -1.33796 12.7299 0
      vertex 1.85 1.85 0
    endloop
  endfacet
  facet normal 0 0 -1
    outer loop
      vertex -8.56487 -9.51225 0
      vertex -1.85 -1.85 0
      vertex -6.4 -11.0851 0
    endloop
  endfacet
  facet normal 0 0 -1
    outer loop
      vertex -1.85 1.85 0
      vertex -3.95542 12.1735 0
      vertex -1.33796 12.7299 0
    endloop
  endfacet
  facet normal 0 0 -1
    outer loop
      vertex -10.3554 -7.52365 0
      vertex -1.85 -1.85 0
      vertex -8.56487 -9.51225 0
    endloop
  endfacet
  facet normal 0 0 -1
    outer loop
      vertex -1.85 1.85 0
      vertex -6.4 11.0851 0
      vertex -3.95542 12.1735 0
    endloop
  endfacet
  facet normal 0 0 -1
    outer loop
      vertex -11.6934 -5.20623 0
      vertex -1.85 -1.85 0
      vertex -10.3554 -7.52365 0
    endloop
  endfacet
  facet normal 0 0 -1
    outer loop
      vertex -1.85 1.85 0
      vertex -8.56487 9.51225 0
      vertex -6.4 11.0851 0
    endloop
  endfacet
  facet normal 0 0 -1
    outer loop
      vertex -12.5203 -2.66127 0
      vertex -1.85 -1.85 0
      vertex -11.6934 -5.20623 0
    endloop
  endfacet
  facet normal 0 0 -1
    outer loop
      vertex -1.85 1.85 0
      vertex -10.3554 7.52365 0
      vertex -8.56487 9.51225 0
    endloop
  endfacet
  facet normal 0 0 -1
    outer loop
      vertex -12.8 0 0
      vertex -1.85 -1.85 0
      vertex -12.5203 -2.66127 0
    endloop
  endfacet
  facet normal 0 0 -1
    outer loop
      vertex -1.85 1.85 0
      vertex -11.6934 5.20623 0
      vertex -10.3554 7.52365 0
    endloop
  endfacet
  facet normal 0 0 -1
    outer loop
      vertex -1.85 -1.85 0
      vertex -12.8 0 0
      vertex -1.85 1.85 0
    endloop
  endfacet
  facet normal 0 0 -1
    outer loop
      vertex -1.85 1.85 0
      vertex -12.5203 2.66127 0
      vertex -11.6934 5.20623 0
    endloop
  endfacet
  facet normal -0 0 -1
    outer loop
      vertex -1.85 1.85 0
      vertex -12.8 0 0
      vertex -12.5203 2.66127 0
    endloop
  endfacet
  facet normal 0.207912 -0.978148 0
    outer loop
      vertex 1.33796 -12.7299 0
      vertex 3.95542 -12.1735 3.5
      vertex 1.33796 -12.7299 3.5
    endloop
  endfacet
  facet normal 0.207912 -0.978148 0
    outer loop
      vertex 3.95542 -12.1735 3.5
      vertex 1.33796 -12.7299 0
      vertex 3.95542 -12.1735 0
    endloop
  endfacet
  facet normal 0.743145 -0.669131 0
    outer loop
      vertex 8.56487 -9.51225 3.5
      vertex 10.3554 -7.52365 0
      vertex 10.3554 -7.52365 3.5
    endloop
  endfacet
  facet normal 0.743145 -0.669131 0
    outer loop
      vertex 10.3554 -7.52365 0
      vertex 8.56487 -9.51225 3.5
      vertex 8.56487 -9.51225 0
    endloop
  endfacet
  facet normal 0.951057 -0.309017 0
    outer loop
      vertex 11.6934 -5.20623 3.5
      vertex 12.5203 -2.66127 0
      vertex 12.5203 -2.66127 3.5
    endloop
  endfacet
  facet normal 0.951057 -0.309017 0
    outer loop
      vertex 12.5203 -2.66127 0
      vertex 11.6934 -5.20623 3.5
      vertex 11.6934 -5.20623 0
    endloop
  endfacet
  facet normal 0.866026 -0.5 0
    outer loop
      vertex 10.3554 -7.52365 3.5
      vertex 11.6934 -5.20623 0
      vertex 11.6934 -5.20623 3.5
    endloop
  endfacet
  facet normal 0.866026 -0.5 0
    outer loop
      vertex 11.6934 -5.20623 0
      vertex 10.3554 -7.52365 3.5
      vertex 10.3554 -7.52365 0
    endloop
  endfacet
  facet normal -0.587785 -0.809017 0
    outer loop
      vertex -8.56487 -9.51225 0
      vertex -6.4 -11.0851 3.5
      vertex -8.56487 -9.51225 3.5
    endloop
  endfacet
  facet normal -0.587785 -0.809017 -0
    outer loop
      vertex -6.4 -11.0851 3.5
      vertex -8.56487 -9.51225 0
      vertex -6.4 -11.0851 0
    endloop
  endfacet
  facet normal -0.866026 -0.5 0
    outer loop
      vertex -10.3554 -7.52365 0
      vertex -11.6934 -5.20623 3.5
      vertex -11.6934 -5.20623 0
    endloop
  endfacet
  facet normal -0.866026 -0.5 0
    outer loop
      vertex -11.6934 -5.20623 3.5
      vertex -10.3554 -7.52365 0
      vertex -10.3554 -7.52365 3.5
    endloop
  endfacet
  facet normal 0.587785 -0.809017 0
    outer loop
      vertex 6.4 -11.0851 0
      vertex 8.56487 -9.51225 3.5
      vertex 6.4 -11.0851 3.5
    endloop
  endfacet
  facet normal 0.587785 -0.809017 0
    outer loop
      vertex 8.56487 -9.51225 3.5
      vertex 6.4 -11.0851 0
      vertex 8.56487 -9.51225 0
    endloop
  endfacet
  facet normal 0.406736 -0.913546 0
    outer loop
      vertex 3.95542 -12.1735 0
      vertex 6.4 -11.0851 3.5
      vertex 3.95542 -12.1735 3.5
    endloop
  endfacet
  facet normal 0.406736 -0.913546 0
    outer loop
      vertex 6.4 -11.0851 3.5
      vertex 3.95542 -12.1735 0
      vertex 6.4 -11.0851 0
    endloop
  endfacet
  facet normal -0.207912 -0.978148 0
    outer loop
      vertex -3.95542 -12.1735 0
      vertex -1.33796 -12.7299 3.5
      vertex -3.95542 -12.1735 3.5
    endloop
  endfacet
  facet normal -0.207912 -0.978148 -0
    outer loop
      vertex -1.33796 -12.7299 3.5
      vertex -3.95542 -12.1735 0
      vertex -1.33796 -12.7299 0
    endloop
  endfacet
  facet normal -0.743145 -0.669131 0
    outer loop
      vertex -8.56487 -9.51225 0
      vertex -10.3554 -7.52365 3.5
      vertex -10.3554 -7.52365 0
    endloop
  endfacet
  facet normal -0.743145 -0.669131 0
    outer loop
      vertex -10.3554 -7.52365 3.5
      vertex -8.56487 -9.51225 0
      vertex -8.56487 -9.51225 3.5
    endloop
  endfacet
  facet normal -0.951057 -0.309017 0
    outer loop
      vertex -11.6934 -5.20623 0
      vertex -12.5203 -2.66127 3.5
      vertex -12.5203 -2.66127 0
    endloop
  endfacet
  facet normal -0.951057 -0.309017 0
    outer loop
      vertex -12.5203 -2.66127 3.5
      vertex -11.6934 -5.20623 0
      vertex -11.6934 -5.20623 3.5
    endloop
  endfacet
  facet normal -0.994522 -0.104529 0
    outer loop
      vertex -12.5203 -2.66127 0
      vertex -12.8 0 3.5
      vertex -12.8 0 0
    endloop
  endfacet
  facet normal -0.994522 -0.104529 0
    outer loop
      vertex -12.8 0 3.5
      vertex -12.5203 -2.66127 0
      vertex -12.5203 -2.66127 3.5
    endloop
  endfacet
  facet normal -0.406736 -0.913546 0
    outer loop
      vertex -6.4 -11.0851 0
      vertex -3.95542 -12.1735 3.5
      vertex -6.4 -11.0851 3.5
    endloop
  endfacet
  facet normal -0.406736 -0.913546 -0
    outer loop
      vertex -3.95542 -12.1735 3.5
      vertex -6.4 -11.0851 0
      vertex -3.95542 -12.1735 0
    endloop
  endfacet
endsolid OpenSCAD_Model
